<svg xmlns="http://www.w3.org/2000/svg" version="1.1" width="600px" height="600px" viewBox="0 0 200 200" style="overflow:hidden!important;"><g id="svga-group-wrapper"><g id="svga-group-backs-single"><path id="SvgjsPath11514" d="M0 0h200v200H0V0z" fill="#f4c8e5" stroke-width="none" opacity="1" stroke="none"></path></g><g id="svga-group-humanwrap-move" transform="matrix(1,0,0,1,0,0)"><g id="svga-group-humanwrap"><g id="svga-group-hair-back-move" transform="matrix(1,0,0,1,0,0)"><g id="svga-group-hair-back" transform="matrix(1.0200003000000002,0,0,1.0001003000000002,-1.9748311051765626,-0.011770205612208429)"><path id="SvgjsPath11750" d="M51.7 79.9s-5 26.3-5.9 29c-.8 2.8 4.8 13.1 4.8 13.1s-1.7 8.1-2 10.1 4.8 7.3 4.8 7.3-4.2 8.7-4.2 9.8 3.1 8.7 3.1 8.7l-5.9 7.5 7 10.3s8.4-1.7 9.2-2.2 11.7-10.3 11.4-13.4 8.4-5.9 8.4-5.9 12-10.6 14.5-10.9c2.5-.3 24.3-3.6 26-4.2 1.7-.6 18.4-12.3 18.4-12.3s10.1-31 10.1-32.1c0-1.1-3.1-28.8-3.4-29.9-.3-1.1-84.9-5.3-84.9-5.3L51.7 79.9z" fill="#ded4b0" stroke-width="none" opacity="1" stroke="none"></path><path id="SvgjsPath11751" d="m152.3 93.4-.2-2.3c-.6-6.2-1.3-12.3-2-18.5l-.5-4.6-.3-2.3c0-.2 0-.4-.1-.6l-.1-.3v-.1c-.1-.2-.3-.5-.4-.6-.1 0-.1-.1-.2-.1-.1-.1-.1-.1-.2-.1h-.1c-.5-.1-.9-.2-1.3-.2-3.1-.4-6.2-.6-9.3-.8-12.4-.9-24.8-1.5-37.2-2.1L81.8 60l-18.6-1h-.3l-.1.3-11.2 20.6-4.6 21.4-1.2 5.3-.3 1.3c-.1.4-.2.8-.3 1.4-.1 1.1.2 2 .4 2.9 1 3.5 2.6 6.7 4.2 9.9l-1.8 9.1-.1.6v.8c.1.5.3.9.5 1.3.4.8.8 1.5 1.3 2.1.8 1.2 1.8 2.2 2.7 3.3-.6 1.3-1.3 2.7-1.9 4-.7 1.5-1.4 3-2 4.7-.1.2-.2.4-.2.8s0 .7.1.9c.1.5.2.9.4 1.3.3.8.5 1.6.8 2.4.5 1.4 1.1 2.8 1.7 4.2l-5.5 7.2-.4.5.3.5 5.4 7.8c.3-.4.7-.8 1.1-1.2-1.6-2.4-3.1-4.7-4.7-7.1l5.5-7 .3-.4-.2-.5c-.6-1.5-1.2-3.1-1.8-4.6l-.8-2.3c-.1-.4-.2-.8-.3-1.1 0-.2-.1-.3 0-.3 0 0 .1-.2.1-.4.5-1.5 1.2-3 1.9-4.5l2.1-4.5.2-.5-.4-.4c-1.1-1.1-2.1-2.3-3-3.6-.5-.6-.9-1.3-1.2-1.9-.2-.3-.3-.6-.3-.9V132.1l.1-.6 1.8-9.3v-.3l-.1-.2c-1.7-3.2-3.3-6.4-4.5-9.8-.2-.8-.5-1.7-.4-2.4 0-.3.2-.8.3-1.3l.3-1.3 1.1-5.4c.7-3.6 1.3-7.2 2-10.8.6-3.6 1.3-7.2 1.9-10.8L63.4 60l36.8 2.3 18.6 1.2 18.6 1.2c3.1.2 6.2.5 9.2.8.2 0 .4.1.5.1v.2l.3 2.3.6 4.6c.7 6.2 1.4 12.3 2.1 18.5l.2 2.3.1 1.1c0 .1-.1.2-.1.3l-.1.5c-.4 1.5-.9 2.9-1.3 4.4l-2.7 8.9-5.5 17.5c-4.5 3.2-8.9 6.3-13.4 9.4-1.2.8-2.3 1.6-3.5 2.3-.6.4-1.1.6-1.7.8l-2 .4c-2.7.5-5.5 1-8.2 1.4s-5.5.9-8.2 1.3l-4.1.6-2.1.3-.5.1-.6.2c-.3.1-.7.3-1 .5-2.4 1.4-4.6 3.2-6.8 5-2.2 1.7-4.3 3.5-6.4 5.3-.4.1-.8.3-1.2.4 0 .3 0 .5-.1.8l1.5-.6h.1l.1-.1 6.3-5.4c2.2-1.7 4.3-3.5 6.7-4.9.3-.1.6-.3.9-.4l.4-.1.5-.1 2.1-.3 4.1-.6 8.2-1.2c2.8-.4 5.5-.8 8.2-1.3l2.1-.4c.2 0 .3-.1.5-.1s.4-.1.6-.2c.4-.2.6-.4 1-.5 1.2-.7 2.4-1.5 3.6-2.2 4.7-3 9.3-6.1 13.9-9.3l.2-.1.1-.2 5.8-17.7 2.8-8.9c.5-1.5.9-3 1.4-4.5l.2-.6c.1-.3.1-.6.1-.8v-1.1z" fill="#bfae71" stroke-width="none" opacity="1" stroke="none"></path></g></g><g id="svga-group-humanbody-back"><path id="SvgjsPath11582" d="M77.8 105.9s4.8 37.7 10 55.8c0 0-6.4 8.8-14.5 11.9-28.7 11.2-35 11.2-39.6 15.2-2.4 2.1.2 11.1 1.8 17.2 1.3 5 1.7 13.2 1.7 13.2h132.2s1.6-33-.6-39.8-7.1-2.9-21.9-4.5c-14.8-1.6-28.7-10.3-31-13.2l.3-60-38.4 4.2z" fill="#f3d4cf" stroke-width="none" opacity="1" stroke="none"></path></g><g id="svga-group-chinshadow-single"><path id="SvgjsPath11578" d="M86.3 155.9c6.3 1 20.4.7 22.8-.7 1.3-.8 3.8-3.1 6.8-6.3l.3-47.2-38.4 4.2s3.9 30.7 8.5 50z" fill="#d4958a" stroke-width="none" opacity="1" stroke="none"></path></g><g id="svga-group-humanbody-front"><path id="SvgjsPath11583" d="M72.1 183.1s14.6-.2 20.4 2.6c5.8 2.9 12.7 2.4 16.1-1s21.6-7 21.6-7-19.7 1.9-25 4.6c-5.3 2.7-22.3-2.8-33.1.8z" fill="#d4958a" stroke-width="none" opacity="1" stroke="none"></path><path id="SvgjsPath11584" d="M74.2 173.2c6.7-1.3 14.7-6.4 14.7-6.4l6.2 5.5c-4.3-7.9-12.7-41.1-12.7-41.1l-.7.7c1.7 10.5 3.9 21.9 6.1 29.7 0 0-6 8.2-13.6 11.6z" fill="#d4958a" stroke-width="none" opacity="1" stroke="none"></path><path id="SvgjsPath11585" d="M170.7 188.5c-.1-2.1-.2-4.1-.4-6.2-.1-1-.3-2.1-.6-3.2-.2-.5-.4-1-.6-1.6-.2-.5-.6-1-1-1.5s-.9-.9-1.5-1.1c-.6-.3-1.1-.4-1.7-.6-1.1-.2-2.2-.2-3.2-.2-2.1 0-4.1.1-6.1.1s-4-.1-6-.2-4-.4-6-.7c-1-.2-2-.4-2.9-.6l-1.5-.4c-.5-.1-1-.3-1.4-.4-3.8-1.1-7.6-2.6-11.2-4.4l-1.3-.7-1.3-.7c-.4-.2-.9-.5-1.3-.8s-.9-.5-1.3-.8-.8-.5-1.3-.8l-1.2-.9-.6-.5-.3-.2-.3-.2c-.2-.2-.4-.3-.5-.5l-.2-.3v-44.6l-.1-15v-.6l-.6.1c-6.4.8-12.9 1.5-19.3 2.3l-19.1 2.3v.5l.1.4.1.9.2 1.8c.1 1.2.3 2.3.4 3.5l.9 7c.6 4.7 1.3 9.4 2.1 14 .8 4.7 1.5 9.3 2.5 14 .9 4.5 1.8 9 3 13.5-1.1 1.4-2.3 2.7-3.6 4-1.3 1.3-2.8 2.6-4.3 3.8-1.5 1.1-3.1 2.2-4.8 3l-1.3.6c-.4.2-.9.3-1.3.5l-2.7 1c-7.2 2.7-14.5 5.3-21.8 7.7l-5.5 1.8c-1.8.6-3.7 1.3-5.5 2.2-.4.2-.9.5-1.3.7-.4.3-.9.5-1.3.9l-.6.5c-.2.2-.5.5-.6.8-.3.5-.4 1.1-.5 1.6-.2 1.1-.1 2.1 0 3.1s.3 2 .4 2.9c.4 1.9.8 3.8 1.3 5.7l.8 2.8c.3.9.5 1.8.7 2.8.4 1.9.7 3.8.9 5.7s.4 3.8.5 5.7v.8h133.4v-.8c.2-4.1.4-8.2.5-12.3s.2-8.2.2-12.3c0-1.8-.1-3.8-.1-5.9zm-67.4 30.3H70.2l-16.5-.1-16-.1c-.1-1.8-.2-3.5-.4-5.3-.2-1.9-.4-3.9-.8-5.8-.2-1-.4-1.9-.7-2.9l-.7-2.8c-.5-1.9-.9-3.7-1.2-5.6-.2-.9-.3-1.9-.4-2.8-.1-.9-.1-1.9 0-2.7.1-.4.2-.8.4-1.1.1-.2.2-.3.3-.4l.5-.4c.3-.3.7-.5 1.1-.8.4-.2.8-.5 1.2-.7 1.7-.8 3.5-1.4 5.3-2l5.5-1.8c7.3-2.4 14.6-5 21.8-7.8l2.7-1c.5-.2.9-.3 1.4-.5l1.4-.6c1.8-.9 3.4-2 5-3.2s3-2.5 4.4-3.9 2.7-2.9 3.8-4.5l.2-.3-.1-.3c-1.3-4.5-2.3-9.1-3.3-13.7s-1.9-9.3-2.7-13.9c-.8-4.6-1.6-9.3-2.4-14l-2.2-13.9 19.3-1.8c6.2-.6 12.3-1.2 18.5-1.8l-.2 14.4-.2 15-.3 30v.4l.2.2.6.7.6.6.3.3.3.2.6.5c.4.3.9.6 1.3.9.4.3.9.6 1.3.9.4.3.9.5 1.3.8s.9.5 1.3.8l1.4.8 1.4.7c.5.2.9.5 1.4.7l1.4.7c1 .4 1.9.8 2.9 1.2s1.9.8 2.9 1.1l1.5.5c.5.2 1 .3 1.5.4.5.1 1 .3 1.5.4l1.5.4c1 .3 2 .4 3 .6 2 .4 4.1.6 6.2.8 2.1.2 4.1.2 6.2.2 2.1 0 4.1-.1 6.1-.1s4 .1 5 1.3c.5.6.9 1.4 1.2 2.3.3.9.4 1.9.6 2.8.3 2 .4 4 .5 6s.1 4.1.2 6.1c.1 7.9-.1 15.8-.4 23.7-10.8.1-21.5.1-32.3.2h-33.1z" fill="#c5796d" stroke-width="none" opacity="1" stroke="none"></path><path id="SvgjsPath11586" d="M150.7 219.2 147 198l-.4 21.2z" fill="#d4958a" stroke-width="none" opacity="1" stroke="none"></path><path id="SvgjsPath11587" d="M47.3 203.5s2.2 11.5 2.9 15.7h3.5l-6.4-15.7z" fill="#d4958a" stroke-width="none" opacity="1" stroke="none"></path></g><g id="svga-group-clothes-single"><path id="SvgjsPath11714" d="M72.29 172.58s2.02 7.56 17.38 13.74 41.96-.02 44.23-15.23c0 0 6.36 1.86 14.04 2.24 7.68.37 15.92-.37 18.16.56 2.25.94 5.62 3.18 4.87 13.3-.75 10.11.19 23.22.19 23.22l-23.03 1.5.52 7.9H52.63l-1.87-5.47-15.73-1.12s-.19-7.12-1.31-9.92c-1.12-2.81-3.18-10.3-2.06-14.04s11.24-6.74 17.98-8.99c6.73-2.26 22.65-7.69 22.65-7.69z" fill="#e136af" stroke-width="none" opacity="1"></path><path id="SvgjsPath11715" d="M171.11 192.7c.04-1.47.1-2.94.22-4.41.11-1.45.23-2.97.22-4.46-.03-1.5-.14-3.02-.5-4.51-.37-1.48-.95-2.99-2.06-4.18-.54-.6-1.2-1.1-1.9-1.47-.66-.39-1.56-.65-2.31-.73-1.54-.2-3.02-.22-4.51-.24-2.97-.03-5.91.01-8.85-.07-5.85-.05-11.69-.84-17.28-2.38l-.98-.27-.15.99c-.45 2.88-1.86 5.58-3.91 7.73-2.04 2.17-4.6 3.87-7.33 5.2-5.49 2.64-11.64 3.88-17.75 4.09-3.06.09-6.14-.12-9.15-.71-1.5-.3-2.98-.7-4.42-1.21-.72-.25-1.43-.58-2.14-.86-.72-.29-1.43-.59-2.12-.94-2.8-1.29-5.51-2.82-7.94-4.71-1.22-.94-2.37-1.98-3.38-3.14a15.6 15.6 0 0 1-1.42-1.82 12.408 12.408 0 0 1-.86-1.5c-.04-.09-.08-.17-.12-.26-.05-.1-.04-.15-.15-.33l-16.4 5.19-8.28 2.65c-2.74.86-5.49 1.72-8.19 2.76-1.35.52-2.7 1.09-4.01 1.77-1.3.69-2.62 1.44-3.7 2.68-.27.31-.5.68-.69 1.08-.2.45-.24.81-.35 1.2-.12.77-.19 1.54-.18 2.29.01 1.5.19 2.97.44 4.42.26 1.44.59 2.87.99 4.28.2.7.42 1.4.66 2.1.28.75.47 1.27.62 1.95.56 2.67.72 5.57.81 8.37l.03.87.87.07c5.01.41 10.03.75 15.05 1.13l1.65 4.83.24.7h.74c8 0 16 .06 24.01.01l24.01-.11 24.01-.16 24.01-.27.54-.01-.04-.53-.57-7.48c3.7-.29 7.39-.53 11.09-.79l11.51-.79.3-.02-.02-.3c-.36-5.9-.51-11.81-.36-17.7zm-11.49 18.1c-3.84.23-7.68.48-11.52.68l-.41.02.02.42.41 7.37-23.48-.26-24.01-.16-24.01-.11c-7.76-.05-15.51 0-23.27.01L51.72 214l-.22-.64-.67-.05c-4.96-.34-9.92-.71-14.88-1.02-.14-2.62-.35-5.2-.94-7.84-.16-.72-.47-1.55-.71-2.14-.24-.65-.46-1.32-.66-1.99-.41-1.35-.75-2.72-1.01-4.09-.26-1.38-.45-2.77-.48-4.13-.03-.69.03-1.35.12-2 .07-.3.13-.65.23-.87.11-.24.25-.49.46-.73.79-.95 1.99-1.72 3.19-2.39 1.22-.67 2.51-1.26 3.82-1.8 2.62-1.09 5.33-2.02 8.05-2.95 2.73-.94 5.35-1.88 8.03-2.84l16.22-5.86c-.06.01.03.14.04.23.03.1.07.18.11.28.07.19.16.36.24.54.17.36.36.7.56 1.04.41.67.86 1.32 1.36 1.93a23.82 23.82 0 0 0 3.33 3.33c2.41 2.02 5.1 3.68 7.91 5.1.7.37 1.41.69 2.13 1 .72.31 1.42.65 2.17.94 1.48.57 3 1.02 4.55 1.37 3.09.69 6.26.98 9.42.96 6.32-.05 12.65-1.32 18.44-4.01 2.87-1.37 5.62-3.14 7.87-5.49 2.03-2.1 3.61-4.77 4.24-7.7a68.752 68.752 0 0 0 16.8 2.06c2.97.01 5.93-.1 8.87-.14 1.46-.01 2.94-.03 4.34.12.72.08 1.26.21 1.9.55.61.3 1.15.7 1.61 1.18.95.96 1.51 2.28 1.89 3.64.36 1.37.51 2.82.58 4.26.04 1.46-.03 2.9-.11 4.39-.07 1.48-.11 2.96-.15 4.44-.09 5.82.12 11.63.5 17.44l-11.25.68z" fill="#c2088c" stroke-width="none" opacity="1"></path></g><g id="svga-group-head" transform="matrix(1,0,0,1,0,0)"><g id="svga-group-ears-left-move" transform="matrix(1,0,0,1,-1.5,0)"><g id="svga-group-ears-left" transform="matrix(0.9499999,0,0,0.9499999,2.690397779619026,4.832686743601229)"><path id="SvgjsPath11530" d="M62.22 91.07s-9.85-8.65-11.43-8.8c-1.36-.13-4.73 7.07-6.22 11.62-.39 1.2-.3 2.54.22 3.7 1.43 3.16 4.6 9.75 7.44 13.05 0 0 2.4.52 3.16.29s6.69-5 7.3-6.86.74-9.97-.47-13z" fill="#f3d4cf" stroke-width="none" opacity="1" stroke="none"></path><path id="SvgjsPath11531" d="M63.07 94.44c.16 1.16.25 2.33.29 3.5.05 1.17.05 2.34-.01 3.51-.03.59-.08 1.17-.15 1.76-.05.3-.09.59-.17.9-.09.31-.25.62-.41.85-.64.98-1.41 1.72-2.18 2.48-.78.74-1.58 1.44-2.39 2.12-.41.33-.82.67-1.25.98-.21.16-.43.31-.65.46l-.35.22c-.14.07-.31.15-.47.17-.59.07-1.09-.01-1.61-.08-.51-.07-1.02-.17-1.53-.28l-.12-.03-.07-.09c-1.28-1.53-2.32-3.25-3.3-4.99-.97-1.75-1.85-3.56-2.7-5.38l-1.25-2.75c-.44-.92-.63-2.02-.48-3.05.06-.52.23-1.01.39-1.48s.33-.94.5-1.41c.35-.93.7-1.86 1.07-2.78.76-1.83 1.55-3.65 2.59-5.32.26-.42.54-.82.88-1.2.17-.19.35-.37.6-.52.12-.07.27-.14.46-.14.17.01.28.06.42.1.94.41 1.65 1 2.43 1.56 1.52 1.14 2.98 2.35 4.41 3.61 1.44 1.25 2.85 2.53 4.24 3.87.43 1.1.64 2.26.81 3.41zm-9.79-10.31c-.75-.52-1.54-1.11-2.29-1.42-.08-.02-.18-.07-.23-.07-.03 0-.1.01-.18.06-.15.08-.31.22-.45.39-.3.32-.57.7-.83 1.09-1.02 1.59-1.92 3.33-2.74 5.1-.41.89-.81 1.78-1.16 2.71-.18.46-.35.92-.52 1.39-.17.47-.34.92-.4 1.41-.13.98.06 2 .49 2.88.42.91.86 1.81 1.32 2.7.9 1.78 1.87 3.52 2.88 5.22 1.02 1.69 2.09 3.35 3.32 4.79l-.19-.11c.97.18 2.03.38 2.91.29.1-.01.16-.06.25-.1l.31-.2.62-.45c.41-.3.82-.63 1.23-.95.81-.66 1.6-1.34 2.37-2.06.75-.72 1.52-1.47 2.11-2.3.15-.22.25-.4.33-.63.07-.24.12-.51.17-.78.08-.55.15-1.12.19-1.69.08-1.14.12-2.29.13-3.45.01-1.15-.04-2.31-.13-3.46-.09-1.14-.23-2.32-.59-3.39-2.96-2.34-5.91-4.75-8.92-6.97z" fill="#e4b3ab" stroke-width="none" opacity="1" stroke="none"></path><path id="SvgjsPath11532" d="M62.45 98.39S52.96 86.4 51.18 87.4s-4.58 6.65-4.57 8.53c.02 2.77 2.95 7.4 4.42 8.8s3.25 2.25 5.6 1.71 5.82-8.05 5.82-8.05z" fill="#e4b3ab" stroke-width="none" opacity="1" stroke="none"></path><path id="SvgjsPath11533" d="M56.36 101.74c-.34-1.14-.73-2.26-1.13-3.37a93.8 93.8 0 0 0-1.28-3.3c-.45-1.09-.93-2.16-1.46-3.21-.54-1.04-1.08-2.08-1.74-3.05l-.07-.11-.07.11c-.66 1.04-1.28 2.1-1.88 3.2-.3.55-.58 1.1-.85 1.67-.28.56-.51 1.16-.74 1.75l-.04.09.04.11c.41 1.24.84 2.46 1.29 3.69.22.61.48 1.21.73 1.81.26.6.52 1.19.87 1.78l.17.27.22-.2c.3-.28.53-.58.77-.9.23-.32.43-.67.61-1.03.35-.73.56-1.57.53-2.42v-.05l-.02-.04c-.44-.87-.91-1.73-1.36-2.6l-.05.03c.37.91.74 1.83 1.13 2.73l-.02-.09c-.03.77-.26 1.51-.61 2.16-.35.65-.82 1.24-1.32 1.7l.39.07c-.3-.51-.56-1.11-.81-1.69l-.72-1.79c-.48-1.2-.93-2.41-1.38-3.62v.2c.4-1.18.85-2.35 1.38-3.47.52-1.13 1.12-2.22 1.8-3.22h-.14c.63.95 1.08 2.04 1.55 3.11l1.36 3.24 1.38 3.24c.46 1.08.92 2.16 1.41 3.23l.06-.03z" fill="#c5796d" stroke-width="none" opacity="1" stroke="none"></path></g></g><g id="svga-group-ears-right-move" transform="matrix(1,0,0,1,1.5,0)"><g id="svga-group-ears-right" transform="matrix(0.9499999,0,0,0.9499999,7.310373812612909,4.832827696947092)"><path id="SvgjsPath11534" d="M137.78 91.07s9.85-8.65 11.43-8.8c1.36-.13 4.73 7.07 6.22 11.62.39 1.2.3 2.54-.22 3.7-1.43 3.16-4.6 9.75-7.44 13.05 0 0-2.4.52-3.16.29s-6.69-5-7.3-6.86c-.61-1.86-.74-9.97.47-13z" fill="#f3d4cf" stroke-width="none" opacity="1" stroke="none"></path><path id="SvgjsPath11535" d="M137.75 91.04c1.4-1.34 2.8-2.62 4.24-3.87 1.43-1.26 2.9-2.47 4.41-3.61.78-.55 1.49-1.14 2.43-1.56.14-.04.25-.1.42-.1.19 0 .34.07.46.14.24.15.43.33.6.52.34.38.61.78.88 1.2 1.04 1.67 1.83 3.49 2.59 5.32.38.92.72 1.85 1.07 2.78.17.47.34.94.5 1.41.16.47.33.96.39 1.48.15 1.03-.04 2.13-.48 3.05l-1.25 2.75c-.85 1.82-1.73 3.63-2.7 5.38-.98 1.75-2.02 3.46-3.3 4.99l-.07.09-.11.02c-.51.11-1.02.2-1.53.28-.52.07-1.02.14-1.61.08-.16-.02-.32-.09-.47-.17l-.35-.22c-.22-.15-.44-.3-.65-.46-.43-.32-.84-.65-1.25-.98-.82-.67-1.62-1.38-2.39-2.12-.77-.76-1.54-1.49-2.18-2.48a3.05 3.05 0 0 1-.41-.85c-.09-.31-.13-.61-.17-.9-.07-.59-.12-1.18-.15-1.76-.06-1.17-.06-2.34-.01-3.51.05-1.17.13-2.34.29-3.5.15-1.15.36-2.31.8-3.4zm.06.05c-.35 1.07-.49 2.24-.59 3.39-.09 1.15-.14 2.31-.13 3.46.01 1.15.05 2.3.13 3.45.04.57.11 1.14.19 1.69.05.27.1.54.17.78.08.23.18.42.33.63.59.83 1.36 1.58 2.11 2.3.76.72 1.56 1.41 2.37 2.06.41.33.81.65 1.23.95l.62.45.31.2c.09.04.15.09.25.1.88.09 1.94-.11 2.91-.29l-.19.11c1.23-1.44 2.3-3.1 3.32-4.79a93.9 93.9 0 0 0 2.88-5.22c.45-.89.9-1.79 1.32-2.7.43-.88.62-1.9.49-2.88-.06-.49-.23-.94-.4-1.41-.16-.47-.34-.93-.52-1.39-.35-.92-.76-1.82-1.16-2.71-.82-1.77-1.72-3.51-2.74-5.1-.26-.39-.53-.77-.83-1.09-.15-.16-.31-.3-.45-.39a.314.314 0 0 0-.18-.06c-.05 0-.15.06-.23.07-.75.31-1.54.9-2.29 1.42-3.02 2.23-5.97 4.64-8.92 6.97z" fill="#e4b3ab" stroke-width="none" opacity="1" stroke="none"></path><path id="SvgjsPath11536" d="M137.55 98.39s9.49-11.99 11.27-10.99 4.58 6.65 4.57 8.53c-.02 2.77-2.95 7.4-4.42 8.8-1.47 1.39-3.25 2.25-5.6 1.71-2.35-.54-5.82-8.05-5.82-8.05z" fill="#e4b3ab" stroke-width="none" opacity="1" stroke="none"></path><path id="SvgjsPath11537" d="M143.64 101.74c.34-1.14.73-2.26 1.13-3.37.4-1.11.84-2.21 1.28-3.3.45-1.09.93-2.16 1.46-3.21.54-1.04 1.08-2.08 1.74-3.05l.07-.11.07.11c.66 1.04 1.28 2.1 1.88 3.2.3.55.58 1.1.85 1.67.28.56.51 1.16.74 1.75l.04.09-.04.11c-.41 1.24-.84 2.46-1.29 3.69-.22.61-.48 1.21-.73 1.81-.26.6-.52 1.19-.87 1.78l-.17.27-.22-.2c-.3-.28-.53-.58-.77-.9-.23-.32-.43-.67-.61-1.03-.35-.73-.56-1.57-.53-2.42v-.05l.02-.04c.44-.87.91-1.73 1.36-2.6l.05.03c-.37.91-.74 1.83-1.13 2.73l.02-.09c.03.77.26 1.51.61 2.16.35.65.82 1.24 1.32 1.7l-.39.07c.3-.51.56-1.11.81-1.69l.72-1.79c.48-1.2.93-2.41 1.38-3.62v.2c-.4-1.18-.85-2.35-1.38-3.47-.52-1.13-1.12-2.22-1.8-3.22h.14c-.63.95-1.08 2.04-1.55 3.11l-1.36 3.24-1.38 3.24c-.46 1.08-.92 2.16-1.41 3.23l-.06-.03z" fill="#c5796d" stroke-width="none" opacity="1" stroke="none"></path></g></g><g id="svga-group-faceshape-wrap" transform="matrix(1.0200003000000002,0,0,1.0001003000000002,-2.0010299234459126,-0.009054582653064358)"><g id="svga-group-faceshape-single"><path id="SvgjsPath11564" d="M135.9 49.8c-6.7-7.4-11.3-13.2-28.8-17.3-1.8-.4-12.3-.4-14.1 0-17.5 4.1-22.1 9.9-28.8 17.3-7.1 7.8-9.5 29-9.5 29 1.1 10.8 4.4 36.3 6.4 39 10.8 14 22.5 27 26.2 29.2 2.9 1.8 22.6 1.8 25.5 0 3.7-2.2 15.3-15.2 26.2-29.2 2.1-2.7 5.4-28.2 6.4-39 0 0-2.4-21.2-9.5-29z" fill="#f3d4cf" stroke-width="none" opacity="1" stroke="none"></path><path id="SvgjsPath11565" d="M107.1 32.5c-1.8-.4-12.3-.4-14.1 0-17.5 4.1-22.1 9.9-28.8 17.3-7.1 7.8-9.5 29-9.5 29 1.1 10.8 4.4 36.3 6.4 39 10.8 14 22.5 27 26.2 29.2 2.9 1.8 22.6 1.8 25.5 0 3.7-2.2 15.3-15.2 26.2-29.2 2.1-2.7 5.4-28.2 6.4-39 0 0-2.4-21.2-9.5-29-6.7-7.4-11.3-13.2-28.8-17.3zm35 31.2c.7 2.5 1.2 5 1.6 7.5.4 2.5.8 5 1 7.5-.5 3.8-1.1 7.5-1.7 11.3l-.9 5.7c-.3 1.9-.6 3.8-1 5.6-.7 3.7-1.3 7.5-2.2 11.2-.2.9-.4 1.8-.7 2.7-.1.4-.3.8-.4 1.2l-.1.2v.1l-.1.1-.2.3-1.8 2.2-1.8 2.2c-4.8 5.9-9.7 11.8-14.9 17.3-1.3 1.4-2.6 2.8-3.9 4-.3.3-.7.6-1 .9l-.5.5-.5.4c-.3.3-.7.5-1 .7 0 0-.1 0-.1.1l-.2.1c-.1 0-.2.1-.3.1-.1 0-.2.1-.3.1-.8.2-1.7.3-2.6.4-.9.1-1.8.2-2.8.3-1.9.1-3.8.2-5.6.2-1.9 0-3.8 0-5.6-.1-.9 0-1.9-.1-2.8-.2-.9-.1-1.8-.2-2.7-.4-.2 0-.4-.1-.6-.2l-.2-.1s-.1 0-.1-.1c-.3-.2-.7-.4-1-.7l-.5-.4-.5-.5c-.3-.3-.7-.6-1-.9-1.4-1.3-2.7-2.6-4-4-5.3-5.5-10.4-11.2-15.3-17.1l-1.8-2.2-1.8-2.2-.2-.3-.1-.1-.1-.1-.1-.1s0-.1-.1-.1l-.1-.3c-.2-.4-.3-.8-.5-1.3-.3-.9-.5-1.8-.7-2.7-.8-3.7-1.5-7.5-2.1-11.3-.3-1.9-.6-3.8-.8-5.7-.3-1.9-.5-3.8-.7-5.7-.5-3.8-.8-7.5-1.2-11.3.7-4.6 1.7-9.2 3-13.7.7-2.2 1.4-4.5 2.3-6.6.4-1.1.9-2.1 1.4-3.1s1.1-2 1.7-2.9c.2-.2.3-.4.5-.7.2-.2.3-.4.5-.6.3-.4.8-.8 1.2-1.3.8-.9 1.6-1.7 2.4-2.6l1.2-1.2 1.2-1.2c.4-.4.8-.8 1.3-1.2.4-.4.9-.7 1.3-1.1 3.5-2.8 7.7-4.9 12-6.5l1.6-.6c.5-.2 1.1-.4 1.7-.5.6-.2 1.1-.4 1.7-.5l1.7-.5.8-.2.2-.1h.2c.1 0 .2 0 .3-.1.5-.1 1.1-.1 1.7-.2 1.2-.1 2.3-.1 3.5-.2 2.3-.1 4.7-.1 7-.1h.8c.2 0 .5.1.8.2l1.7.4.9.2.9.2 1.7.4c2.3.6 4.5 1.3 6.7 2.3.3.1.5.2.8.3l.8.4c.5.3 1.1.5 1.6.8l1.5.9 1.5.9c2 1.3 3.8 2.8 5.4 4.5 1.7 1.7 3.3 3.4 4.9 5.2 1.7 1.9 2.9 4.2 3.9 6.6.9 2.7 1.7 5.2 2.3 7.6z" fill="#c5796d" stroke-width="none" opacity="1" stroke="none"></path></g></g><g id="svga-group-mouth-single-move" transform="matrix(1,0,0,1,0,0)"><g id="svga-group-mouth-single" transform="matrix(0.9499997000000001,0,0,0.9499997000000001,5.050280545642082,6.343397053684214)"><path id="SvgjsPath11908" d="M86.3 122.77s3.78 5.21 6.46 6.76c2.69 1.54 6.74 2.85 11.37 1.48s9.37-6.41 9.37-6.41-5.48-2.85-7.85-3.27c-2.37-.42-6 1.66-6 1.66s-2.47-1.96-3.95-2.2-9.4 1.98-9.4 1.98z" fill="#da7c87" stroke-width="none" opacity="1"></path><path id="SvgjsPath11909" d="M84.89 122.33c2.54.48 5.06 1.07 7.57 1.72 1.26.32 2.5.67 3.76 1.04.65.2 1.19.39 1.81.47.61.09 1.23.12 1.86.11 1.25.01 2.52-.11 3.77-.31.31-.05.62-.1.94-.16.32-.06.65-.12.97-.16.64-.1 1.29-.17 1.93-.24 1.29-.13 2.58-.21 3.87-.25 1.29.02 2.55-.09 3.83-.34-1.21.49-2.52.76-3.79.89-1.27.17-2.54.36-3.81.57l-1.89.34c-.31.06-.62.13-.93.2l-.96.21c-1.29.24-2.59.37-3.91.38-.66-.01-1.32-.04-1.99-.15-.66-.09-1.36-.32-1.94-.53l-3.69-1.21c-2.49-.82-4.95-1.65-7.4-2.58z" fill="#cb5f6c" stroke-width="none" opacity="1"></path></g></g><g id="svga-group-eyes-left-move" transform="matrix(1,0,0,1,2,0)"><g id="svga-group-eyes-left" transform="matrix(0.8999996000000001,0,0,0.8999996000000001,7.914037889240262,9.030035662234482)"><g id="svga-group-eyesback-left"><path id="SvgjsPath11640" d="M80.2 77.2c7.5 0 13.5 5.8 13.5 13s-6 13-13.5 13-13.5-5.8-13.5-13 6-13 13.5-13z" fill="#ffffff" stroke-width="none" opacity="1"></path></g><g id="svga-group-eyesiriswrapper-left" transform="matrix(1,0,0,1,0,0)"><g id="svga-group-eyesiriscontrol-left" transform="matrix(1,0,0,1,0,0)"><g id="svga-group-eyesiris-left"><path id="SvgjsPath11602" d="M80.2 84.6c3.1 0 5.6 2.5 5.6 5.6s-2.5 5.6-5.6 5.6-5.6-2.5-5.6-5.6 2.5-5.6 5.6-5.6z" fill="#467064" stroke-width="none" opacity="1"></path><path id="SvgjsPath11603" d="M80.2 87.2c1.7 0 3 1.3 3 3s-1.3 3-3 3-3-1.3-3-3 1.3-3 3-3z" fill="#000000" stroke-width="none" opacity="1"></path><path id="SvgjsPath11604" d="m79.5 87.8-.6-.6c-.2-.2-.5-.3-.8-.3s-.6.1-.8.3c-.2.2-.3.5-.3.8s.1.6.3.8l.6.6c.2.2.5.3.8.3s.6-.1.8-.3c.4-.6.4-1.2 0-1.6zm2.7 5.1c1 0 1-1.5 0-1.5-.9 0-.9 1.5 0 1.5z" fill="#ffffff" stroke-width="none" opacity="1"></path></g></g></g><g id="svga-group-eyesfront-left"><path id="SvgjsPath11648" d="M80.2 76.7c-7.8 0-14.1 6.1-14.1 13.6s6.3 13.6 14.1 13.6 14.1-6.1 14.1-13.6S88 76.7 80.2 76.7zm0 20.5c-5.5 0-10.7-2.6-10.8-3.5s.9-3.9 3.2-6.4 8-3.3 12.8-1.4 5.9 7.5 5.9 7.5c.1 1.7-5.6 3.8-11.1 3.8z" fill="#f3d4cf" stroke-width="none" opacity="1" stroke="none"></path><path id="SvgjsPath11649" d="m90.2 90.3-.9-1.5c-1-1.5-2.4-2.8-4.2-3.7-2.2-1.1-4.8-1.4-7.2-1-1.2.2-2.4.6-3.5 1.1-1 .5-2 1.2-2.8 2.1h-.1c-.7-.4-1.4-.5-2-1-.6-.5-1-1.1-1.3-1.8-.1-.2-.5-.1-.5.1.1.9.5 1.7 1.1 2.3.5.5 1.3 1.2 2.1 1.3-.1.2-.3.4-.4.6-.7-.2-1.5-.1-2.2-.3-1.1-.3-1.8-1.1-2.6-1.9-.2-.2-.5 0-.4.2.4 1.1 1.3 1.8 2.4 2.3.6.3 1.5.7 2.3.7-.1.2-.2.5-.3.8h-.1c-.8 0-1.6.4-2.4.3-1.2.1-2.2-.6-2.8-1.5-.2-.2-.5 0-.4.2.9 1.4 3.6 2.9 5.4 2.2 0 .2-.1.4-.1.6-.1.3-.2.7-.2 1.1v.2c0 .1.1.2.1.3l.3.3.1.1c-1.1-.1-2.5.9-2.7 1.8 0 .2.2.4.4.3.4-.3.8-.7 1.2-.9.4-.2 1.3-.5 1.8-.7.1.1.2.1.3.2-.4.1-.7.4-1 .7-.4.5-.5 1.1-.4 1.7.1.2.4.2.4-.1 0-.5.3-.9.6-1.2.3-.3.8-.4 1.1-.7.1.1.2.1.4.2 2.1.9 4.4 1.5 6.8 1.7 2.4.2 4.7-.1 7-.7 1.1-.3 2.2-.7 3.3-1.1.5-.2 1-.5 1.5-.8.2-.2.4-.3.6-.6s.3-.5.3-.8c-.1-1-.5-2.1-1-3.1zm.8 3.9c-.2.2-.4.4-.6.5-.5.3-1 .6-1.5.8-1.1.4-2.2.7-3.3.9-2.3.4-4.6.6-6.8.4-2.3-.2-4.5-.8-6.6-1.6-.5-.2-1-.5-1.5-.7-.2-.1-.5-.3-.7-.5-.1-.1-.2-.2-.2-.3 0 0 0-.1-.1-.1v-.2c0-.4.1-.8.2-1.1.7-1.5 1.6-2.9 2.8-4 1.5-1.4 3.6-2.2 5.7-2.6 2.1-.4 4.3-.2 6.3.6 1.8.7 3.5 1.8 4.9 3.2.8 1.2 1.5 2.5 1.8 3.9-.1.3-.2.6-.4.8z" fill="#956345" stroke-width="none" opacity="1" stroke="none"></path></g></g></g><g id="svga-group-eyes-right-move" transform="matrix(1,0,0,1,-2,0)"><g id="svga-group-eyes-right" transform="matrix(0.8999996000000001,0,0,0.8999996000000001,12.055048906648238,9.030035662234482)"><g id="svga-group-eyesback-right"><path id="SvgjsPath11641" d="M119.8 77.2c7.5 0 13.5 5.8 13.5 13s-6 13-13.5 13-13.5-5.8-13.5-13 6-13 13.5-13z" fill="#ffffff" stroke-width="none" opacity="1"></path></g><g id="svga-group-eyesiriswrapper-right" transform="matrix(1,0,0,1,0,0)"><g id="svga-group-eyesiriscontrol-right" transform="matrix(1,0,0,1,0,0)"><g id="svga-group-eyesiris-right"><path id="SvgjsPath11605" d="M119.8 85.3c2.7 0 4.9 2.2 4.9 4.9s-2.2 4.9-4.9 4.9-4.9-2.2-4.9-4.9 2.2-4.9 4.9-4.9z" fill="#467064" stroke-width="none" opacity="1"></path><path id="SvgjsPath11606" d="M119.8 87.5c1.5 0 2.7 1.2 2.7 2.7s-1.2 2.7-2.7 2.7-2.7-1.2-2.7-2.7 1.2-2.7 2.7-2.7z" fill="#000000" stroke-width="none" opacity="1"></path><path id="SvgjsPath11607" d="M119.2 88.1c-.2-.2-.3-.4-.5-.5s-.4-.3-.7-.3c-.2 0-.5.1-.7.3-.2.2-.3.4-.3.7 0 .2.1.5.3.7.2.2.4.3.5.5s.4.3.7.3c.2 0 .5-.1.7-.3.3-.5.3-1.1 0-1.4zm2.4 4.5c.8 0 .8-1.3 0-1.3s-.8 1.3 0 1.3z" fill="#ffffff" stroke-width="none" opacity="1"></path></g></g></g><g id="svga-group-eyesfront-right"><path id="SvgjsPath11650" d="M119.8 76.7c-7.8 0-14.1 6.1-14.1 13.6s6.3 13.6 14.1 13.6 14.1-6.1 14.1-13.6-6.3-13.6-14.1-13.6zm0 19.4c-5.5 0-11.3-1.9-11.1-3.4 0 0 1.2-5.1 5.9-6.9 4.8-1.8 9.7-.7 12 1.6s4.2 4.8 4 5.6c-.2.8-5.4 3.1-10.8 3.1z" fill="#f3d4cf" stroke-width="none" opacity="1" stroke="none"></path><path id="SvgjsPath11653" d="M134.7 89.1c-1.1 1.2-2.9 2.1-4.6 2-.1-.1-.2-.2-.2-.3-.1-.1-.1-.2-.2-.3.7.1 1.6-.4 2.1-.8.7-.6 1.2-1.2 1.4-2.1 0-.3-.3-.4-.4-.2-.4.6-.9 1.3-1.5 1.7-.5.3-1.4.3-1.9.6v-.1l-.9-1.2c.4-.1.8-.2 1.1-.4.8-.4 1.4-1 1.6-1.8.1-.3-.3-.4-.5-.2-.4.6-.9 1.1-1.6 1.4-.4.2-.9.2-1.3.2-.1-.1-.1-.2-.2-.2l-.3-.3-.4-.3-.9-.8-.8-.5-.4-.2-.4-.2c-.3-.1-.6-.3-.9-.4-1.2-.4-2.5-.6-3.8-.7-2.6 0-5.2.6-7.3 2.2-2 1.6-3.2 3.8-3.6 6.2 0 .1-.1.2-.1.2 0 .3.1.6.3.8.2.2.4.4.7.5.5.3 1 .5 1.5.8 1 .4 2.1.8 3.2 1 2.2.5 4.4.8 6.6.7 1.8-.1 3.6-.4 5.4-1 .3.3.6.7.8 1.1.2.4.2.8.4 1.1.1.2.4.2.5-.1.3-.8-.3-1.8-.9-2.4.1 0 .3-.1.4-.1.4-.2.8-.3 1.2-.5.5.2.9.5 1.3.9.3.4.4.9.8 1.2.1.1.4.1.4-.1.3-.6-.1-1.3-.6-1.8-.4-.3-.8-.6-1.2-.7.4-.2.8-.4 1.2-.7l.3-.3c.1-.1.1-.2.1-.3v-.3c0-.2-.1-.3-.2-.5 1.8.3 4.2-.8 4.5-2.8-.3 0-.5-.2-.7 0zm-4.3 3.7c0 .1 0 .1 0 0-.1.2-.2.2-.3.3-.8.6-1.9 1-2.9 1.4-2.1.7-4.2 1.1-6.4 1.3-2.2.1-4.4-.1-6.5-.4-1.1-.2-2.2-.4-3.2-.8-.5-.2-1-.4-1.5-.7-.2-.1-.5-.3-.7-.5-.2-.2-.3-.4-.3-.7 0-.1 0-.1.1-.2 1-2.1 2.5-4 4.3-5.1.9-.6 2-1 3.1-1.2 1.1-.3 2.2-.4 3.4-.4 1.1 0 2.2.2 3.3.5.3.1.5.2.8.3l.4.1.4.2.8.4.7.5c.5.3.9.7 1.4 1.1l1.2 1.2 1.1 1.4c.2.4.5.8.7 1.1v.2h.1z" fill="#956345" stroke-width="none" opacity="1" stroke="none"></path></g></g></g><g id="svga-group-facehighlight-single"></g><g id="svga-group-eyebrows-left-move" transform="matrix(1,0,0,1,0,4)"><g id="svga-group-eyebrows-left-rotate" transform="matrix(0.9825664732332883,-0.18591160716291474,0.18591160716291474,0.9825664732332883,-12.921579766297867,15.948220130537216)"><g id="svga-group-eyebrows-left"><path id="SvgjsPath11692" d="M63.58 81.61s2.73-6.07 7.31-8.29c5.98-2.9 21.19 2.04 22.07 2.67.87.63.35 3.77-1.13 3.92-1.48.15-8.53-2.96-13.8-4.33-5.27-1.38-9.96 0-14.45 6.03z" fill="#b79675" stroke-width="none" opacity="1"></path><path id="SvgjsPath11693" d="M63.57 81.64c.12-.13.26-.26.39-.42l.37-.43c.24-.28.49-.55.74-.81.5-.52 1.02-1.03 1.58-1.49 1.09-.93 2.31-1.71 3.61-2.24 1.3-.53 2.7-.8 4.1-.78 1.41.01 2.8.26 4.18.67 2.78.78 5.52 1.77 8.27 2.72 1.38.47 2.75.96 4.22 1.28.19.03.37.07.57.07.2.01.44-.01.64-.1.41-.18.69-.52.88-.87.2-.35.32-.73.4-1.12.08-.39.1-.79.05-1.2-.03-.2-.07-.4-.16-.61-.08-.2-.23-.4-.44-.51-.36-.18-.7-.28-1.05-.41-.7-.23-1.39-.45-2.09-.66a90.5 90.5 0 0 0-4.22-1.12c-2.83-.68-5.67-1.3-8.59-1.47-1.45-.08-2.93-.04-4.37.27-.72.16-1.44.39-2.11.75-.66.35-1.28.77-1.85 1.24-1.14.95-2.13 2.09-2.98 3.3-.43.6-.82 1.25-1.18 1.9-.18.33-.35.66-.52.99-.08.17-.16.34-.24.5l-.11.26-.06.13-.02.06-.01.03-.01.02c-.01.01-.01.04.01.05zm.03-.07c1.45-2.5 3.19-4.99 5.44-6.73.56-.43 1.16-.82 1.78-1.13.61-.32 1.28-.52 1.97-.67 1.37-.27 2.8-.32 4.23-.3 1.43.02 2.86.15 4.29.34 1.43.18 2.85.43 4.27.75 1.42.32 2.81.7 4.2 1.13.69.21 1.39.45 2.06.71.33.13.68.27.98.42.24.13.34.5.36.84.04.7-.13 1.44-.48 2.02-.17.29-.41.53-.67.62-.13.05-.26.06-.42.05-.15-.01-.33-.05-.5-.09-.68-.16-1.37-.39-2.05-.62L87 78.17c-2.74-.99-5.47-2.05-8.3-2.83-1.41-.39-2.9-.66-4.37-.62-1.48.03-2.95.36-4.3.96-1.35.59-2.56 1.49-3.64 2.5-.55.5-1.04 1.05-1.51 1.62-.23.29-.47.57-.69.87-.11.14-.24.3-.31.44-.08.14-.16.31-.28.46z" fill="#a8815a" stroke-width="none" opacity="1"></path></g></g></g><g id="svga-group-eyebrows-right-move" transform="matrix(1,0,0,1,0,4)"><g id="svga-group-eyebrows-right-rotate" transform="matrix(0.9825664693395645,0.1859116277417384,-0.1859116277417384,0.9825664693395645,16.621628481227248,-21.4339320693295)"><g id="svga-group-eyebrows-right"><path id="SvgjsPath11694" d="M136.97 82.09s-2.84-5.43-7.28-7.34c-5.81-2.49-20.12 2.3-20.92 2.88s-.19 3.42 1.23 3.52c1.41.1 8-2.86 12.98-4.22 4.95-1.34 9.48-.19 13.99 5.16z" fill="#b79675" stroke-width="none" opacity="1"></path><path id="SvgjsPath11695" d="m137 82.06-.01-.02-.02-.03-.03-.06-.06-.12-.12-.23c-.08-.15-.16-.31-.25-.45-.18-.3-.35-.59-.54-.88-.37-.59-.77-1.15-1.2-1.69-.86-1.08-1.84-2.09-2.97-2.92-.56-.41-1.17-.78-1.81-1.09-.64-.31-1.34-.49-2.04-.63-1.39-.25-2.8-.25-4.18-.15-2.77.22-5.46.84-8.13 1.51-1.33.35-2.66.7-3.97 1.1-.66.2-1.31.41-1.96.64-.33.12-.64.22-.98.39-.2.1-.33.29-.4.47s-.11.37-.13.56a3.636 3.636 0 0 0 .52 2.1c.2.32.48.61.88.77.19.07.42.1.62.08.19-.01.37-.04.54-.09 1.38-.32 2.67-.79 3.96-1.25 2.58-.92 5.16-1.87 7.78-2.64 1.3-.4 2.61-.65 3.96-.69 1.33-.04 2.68.17 3.93.62 1.26.45 2.45 1.13 3.53 1.95.54.41 1.06.86 1.56 1.32.25.23.49.47.74.71l.36.38c.13.14.27.26.39.37.02.01.03-.02.03-.03zm-.34-.4c-.08-.11-.21-.26-.32-.39-.22-.27-.45-.52-.69-.77-.47-.5-.97-.99-1.51-1.43-1.06-.89-2.25-1.66-3.55-2.18-1.3-.52-2.72-.78-4.13-.78-1.42-.01-2.82.26-4.14.65-2.66.76-5.22 1.78-7.79 2.74l-1.92.71c-.64.23-1.29.45-1.93.62-.16.04-.32.07-.47.09-.15.02-.27.01-.4-.03-.25-.08-.49-.29-.66-.54-.35-.51-.55-1.18-.53-1.82.01-.31.09-.64.31-.76.28-.15.6-.28.92-.41.64-.25 1.28-.48 1.93-.69 1.3-.42 2.63-.8 3.95-1.12 1.34-.32 2.68-.57 4.04-.77 1.36-.2 2.72-.34 4.07-.4s2.72-.05 4.03.18c.66.11 1.3.28 1.9.56.61.27 1.19.6 1.75.98 2.21 1.53 3.97 3.75 5.45 5.97-.13-.15-.22-.3-.31-.41z" fill="#a8815a" stroke-width="none" opacity="1"></path></g></g></g><g id="svga-group-nose-single-move" transform="matrix(1,0,0,1,0,0)"><g id="svga-group-nose-single"><path id="SvgjsPath11682" d="M109.52 109.12c-.37-.88-.94-1.63-1.59-2.29.5.77.95 1.58 1.22 2.42.13.42.21.86.14 1.25-.04.2-.1.36-.23.53-.12.17-.25.34-.41.47-.61.58-1.49.8-2.35.68-.43-.05-.87-.17-1.28-.35-.39-.14-.76-.35-1.13-.54.33-.49.63-1.01.89-1.55-.86.8-1.66 1.61-2.52 2.32-.43.35-.86.7-1.32.96-.45.27-.94.48-1.33.46-.1.01-.18-.02-.27-.03-.08-.05-.15-.05-.26-.14-.21-.13-.43-.31-.65-.48-.44-.34-.87-.72-1.31-1.08-.87-.74-1.75-1.48-2.69-2.17.44.7.95 1.34 1.47 1.97-.44.2-.89.36-1.34.46-.56.11-1.15.13-1.62-.09-.95-.47-1.51-1.61-1.35-2.58.04-.25.12-.44.26-.65.15-.23.32-.46.49-.69.35-.45.72-.9 1.11-1.33l.58-.65c.23-.25.4-.49.58-.74.36-.5.68-1.03.94-1.61.26-.57.42-1.23.52-1.81.1-.59.2-1.18.26-1.77.13-1.18.24-2.36.27-3.55.08-2.37.02-4.76-.45-7.08.05 2.36-.12 4.7-.35 7.03-.13 1.16-.26 2.33-.44 3.48-.09.58-.18 1.15-.28 1.72-.11.58-.23 1.07-.47 1.57-.22.5-.5.99-.82 1.45-.16.23-.33.47-.5.65-.2.23-.39.45-.58.68-.38.46-.74.94-1.09 1.43-.17.25-.35.5-.5.77-.18.29-.3.67-.32 1-.11 1.38.74 2.67 1.98 3.12.64.2 1.29.1 1.86-.1.47-.16.9-.4 1.31-.67.21.25.41.5.63.74.39.44.8.84 1.24 1.25.22.2.45.39.72.57.11.09.32.19.5.27.19.05.39.1.58.1.77 0 1.36-.33 1.88-.66.51-.36.96-.75 1.36-1.2.39-.42.74-.87 1.06-1.34.66.58 1.44 1.09 2.36 1.27.47.1.98.11 1.46 0 .48-.12.94-.36 1.31-.7.19-.17.34-.37.48-.57.15-.2.26-.48.28-.73.03-.54-.1-1.03-.29-1.47z" fill="#c5796d" stroke-width="none" opacity="1" stroke="none"></path></g></g><g id="svga-group-hair-front" transform="matrix(1.0200003000000002,0,0,1.0001003000000002,-1.955784417502997,-0.012361973278260052)"><path id="SvgjsPath11748" d="m125.2 36.6-2.9-3.2s-7.5-5.8-12.1-5.3-37.8-.5-42.2 4.4c-4.4 4.8-21.3 26.4-21.1 32.2.2 5.8 1.7 16.2 2.2 18.4s6.1 1.4 6.3 2.9c.2 1.4.7 7 .7 10.2s-4.8 4.8-5.3 6.1 2.7 13.1 3.2 16c.5 2.9 6.8 2.7 6.8 5.6 0 2.9-4.1 2.9-4.1 2.9l3.2 8s0-3.1.5-4.6 6.3-.7 6.1-3.2c-.2-2.4.5-6.3 0-9.2-.5-2.9-5.8-1.9-7.3-2.2s-.7-6.8.2-9.7c1-2.9 6.8-5.3 6.8-5.3s1.7-8.7 1.4-10.2c-.2-1.4-8.2-10.2-7.8-12.1.5-1.9 6.5-15.5 9-15.8 2.4-.2 37.3-2.4 42.4-5.3 5.1-2.9 12.8-14.3 12.8-14.3l1.2-6.3m-.5 0 7.5.8s6.8 5.8 8 8.2c1.2 2.4 8.7 15.5 8.7 19.6 0 4.1-1 17.5-1 17.5s-2.4 12.6-2.7 13.8-5.6 7.3-5.6 9.7 1.9 9.4 1.9 9.4l-4.6-5.3s-.7-5.8-.7-7.8 3.1-6.3 3.9-6.5.5-16 .5-16-8.2-12.6-10.2-16.2-6.3-14.1-6.3-14.1l-.9-6.6 1.5-6.5zM82.9 143.8s-8.7-.7-11.1-.2c-2.4.5-6.4 2.8-6.4 2.8-1.5-2.6-5.4-6.5-6.8-7.4-1.5-.9-2.5-.3-2.5-.3s-5.2 10.3-5.2 11.1 2.3 8.4 2.3 8.4l-5.8 7.4 3.3 6.2c-1.5 1.8-4 5-4.2 5.3-.4.4 1.3 10.7 2.3 12.6.9 1.9 12.8 9.3 12.8 9.3l.8 5.4s2.1-5.2 2.1-6.9-1.1-4.8-1.1-4.8 3.4 4.7 3.6 5.5c.2.9-.9 11.1-.9 11.1l3.2 4.1s-1.1-3.5-.6-5.5 9-19.6 9-19.6-3.2-13.1-7.2-15.9l-3.9-1.4c2-1.1 3.8-2.2 4.5-2.9 1.7-1.6 4.3-7.4 4.3-7.4 3.9-1.6 7.1-6.3 7.1-6.3 1.6-3.3.4-10.6.4-10.6z" fill="#ded4b0" stroke-width="none" opacity="1" stroke="none"></path><path id="SvgjsPath11749" d="M109.6 47.9c-.9.7-1.8 1.3-2.7 1.9-.5.3-.9.4-1.5.5-.6.1-1.1.2-1.7.3-2.2.3-4.5.5-6.7.8-9 .9-17.9 1.9-26.9 2.9-1.1.1-2.2.3-3.4.4-.3 0-.6.1-.9.2-.3.1-.5.3-.7.6-.4.4-.7.9-1.1 1.3-1.3 1.9-2.4 3.8-3.6 5.8-2.3 3.9-4.5 7.8-6.5 11.9l-.8 1.5c-.1.3-.2.5-.4.9v.4c0 .1 0 .2.1.3.1.2.1.3.2.4.6 1.1 1.3 1.9 2 2.8 1.4 1.8 2.9 3.4 4.4 5.2.7.9 1.4 1.7 2.1 2.6.3.4.7.9.9 1.4.3.4.5.9.6 1.3.3 2 .1 4.2-.3 6.3-1.8.9-3.5 1.8-5.2 2.8-.9.5-1.8 1.1-2.6 1.8-.4.3-.8.7-1.2 1.2-.2.2-.4.5-.4 1l.1.8c.7 4.1 1.3 8.1 2.1 12.2v.2l.2.1c1.7.6 3.4 1.2 5.1 1.9l1.2.6c.1.1.2.1.2.2s.1.2.1.3c.1.2.1.4.2.7.2.9.2 1.8.3 2.7h.1c0-.9-.1-1.8-.2-2.7 0-.2-.1-.4-.1-.7 0-.1-.1-.2-.1-.3l-.3-.3c-.4-.3-.8-.5-1.2-.7-1.6-.8-3.2-1.4-4.9-2-.5-4-1.1-8-1.7-12l-.1-.8.2-.4 1-1c.8-.6 1.7-1.1 2.5-1.7 1.8-1 3.6-2 5.4-2.9l.2-.1v-.2c.4-2.3.7-4.6.4-6.9-.2-.7-.5-1.2-.8-1.7-.3-.5-.7-1-1-1.4-.7-.9-1.4-1.8-2.2-2.6-1.5-1.7-3-3.4-4.4-5.1-.7-.9-1.4-1.7-2-2.6-.1-.2-.2-.5-.2-.5 0-.1.2-.5.3-.7l.7-1.5c2-4 4-8.1 6.2-12 1.1-2 2.2-3.9 3.5-5.8.3-.5.7-.9 1-1.3.2-.2.4-.4.6-.5.3 0 .5-.1.8-.2 1.1-.2 2.2-.3 3.3-.4 9-.9 18-1.3 26.9-2.3 2.2-.3 4.5-.5 6.7-.8.6-.1 1.1-.2 1.7-.3.6-.1 1.2-.3 1.7-.6 1-.6 1.9-1.3 2.8-2 3.5-2.8 6.9-5.8 10.2-8.9l-.1-.1c-3.1 2.2-6.6 5.1-10.1 7.8zm40 15.7c-.5-2.2-1.4-4.1-2.3-6.1-1.8-3.9-3.9-7.6-5.9-11.2-.3-.5-.5-.9-.8-1.4-.3-.5-.7-.9-1-1.3-.7-.8-1.5-1.6-2.3-2.3-1.6-1.5-3.1-2.9-4.8-4.2l-.1-.1h-.1l-7-.4-2.8-3.2c-1.4-1.1-2.9-2.1-4.4-3-1.6-.9-3.2-1.7-4.9-2.2-.9-.2-1.8-.4-2.8-.4-.9.1-1.8.1-2.6.1h-5.3c-7.1 0-14.2 0-21.4.7-1.8.2-3.6.4-5.3.6-1.8.3-3.6.6-5.3 1.2-.9.3-1.8.7-2.6 1.4l-.5.5-.4.5-.9 1c-1.2 1.4-2.3 2.8-3.4 4.2-4.7 5.6-9 11.3-12.7 17.5-.9 1.5-1.8 3.1-2.5 4.8-.4.8-.7 1.7-1 2.6-.1.5-.2.9-.3 1.4v1.4c.3 3.6.7 7.1 1.2 10.6.3 1.8.5 3.5.8 5.3.1.4.2.9.3 1.3 0 .1 0 .2.1.3 0 .1.1.3.2.4.2.2.3.5.6.6.9.6 1.8.7 2.7.9.9.2 1.8.3 2.5.6l.2.1c0 .1.1.1.1.1s.1.3.1.5l.2 1.3c.2 1.8.3 3.5.4 5.3 0 .9.1 1.8.1 2.7 0 .9-.2 1.6-.7 2.3-1 1.4-2.6 2.2-4 3.3-.2.2-.4.3-.5.6-.1.1-.1.3-.1.4v.4c0 .5.1.9.1 1.4.1.9.3 1.8.5 2.6.3 1.8.8 3.5 1.1 5.2.4 1.7.8 3.5 1.1 5.2.1.4.1.8.3 1.3l.1.4.2.3c.1.2.3.4.5.6.8.7 1.6 1 2.4 1.4.8.3 1.7.7 2.3 1.1.4.2.6.5.8.7.2.3.2.6.2.9-.1 1.5-2 2.1-3.6 2.1h-.8l.4 1.1 3 8 1.3 3.3.1-3.6c0-1 .1-2 .2-2.9.1-.5.2-.9.3-1.4v-.1s.1 0 .1-.1l.2-.1.3-.1c.9-.2 1.9-.4 2.9-.6.5-.1 1.1-.3 1.7-.7.1-.1.3-.2.4-.4.1-.1.3-.3.3-.5.1-.2.2-.4.2-.6v-.5c-.1-1.8.2-3.9.2-5.9 0-1 0-2.1-.1-3.2-.1-.6-.4-1.4-1-1.8-.5-.4-1.1-.7-1.7-.8-1.1-.3-2.2-.3-3.2-.3h-1.9c-.1-.3-.2-.7-.2-1.2v-1.4c0-1 .2-1.9.3-2.9s.4-1.9.6-2.8c.2-.8.8-1.4 1.4-2 1.4-1.2 3.2-2.2 4.9-2.9l.5-.2.1-.5c.4-2.2.8-4.3 1.2-6.5.2-1.1.3-2.2.4-3.4v-.6c0-.1-.1-.3-.1-.4l-.1-.3c-.2-.3-.3-.6-.5-.8-.3-.5-.7-.9-1-1.4-1.3-1.8-2.7-3.5-4-5.2-.6-.9-1.2-1.8-1.7-2.6l-.3-.6c-.1-.2-.1-.4-.1-.3 0 0 0 .1 0 0v-.2l.1-.3.3-.7c.8-2 1.7-4 2.7-5.9 1-1.9 2-3.9 3.1-5.6.3-.4.6-.9.9-1.2.3-.4.7-.8.9-.9.1 0 0 0 0 0h.4l.8-.1 1.6-.1 6.6-.6c4.4-.4 8.8-.8 13.1-1.3 4.4-.5 8.7-1 13.1-1.8 2.2-.4 4.3-.8 6.5-1.7 1.1-.5 1.9-1.2 2.8-2 .8-.8 1.6-1.5 2.4-2.4 2.6-2.8 4.8-5.9 7-9 .2 1.7.3 3.5.5 5.2v.2c1.1 2.7 2.1 5.4 3.2 8 1.2 2.6 2.2 5.3 3.7 7.9 1.4 2.5 2.9 5 4.5 7.4 1.5 2.3 3 4.7 4.5 7l.1 7.6v3.9c0 .7 0 1.3-.1 1.9l-.1.9c0 .2-.1.5-.1.6-.2.2-.3.3-.5.4-.3.3-.5.6-.7.8-.4.6-.8 1.1-1.2 1.7s-.7 1.2-1 1.8c-.3.7-.6 1.3-.6 2.2 0 .8.1 1.4.1 2.1l.2 2c.2 1.3.3 2.6.5 3.9v.2l.1.2 4.7 5.2 1.8 2-.8-2.6c-.8-2.8-1.6-5.6-2.1-8.4 0-.3-.1-.7-.1-1 0-.3.1-.6.2-.9.2-.7.6-1.3.9-1.9.7-1.2 1.6-2.4 2.4-3.6l1.2-1.8c.2-.3.4-.6.6-1 .1-.4.1-.7.2-1.1l.9-4.3c.6-2.9 1.2-5.7 1.8-8.6.4-4.2.8-8.4 1.1-12.6l.2-3.2c0-.5.1-1.1.1-1.6.6-.7.5-1.3.4-1.8zM123 43v.1c0 .2.1.5.1.7-2.4 3.2-4.9 6.3-7.6 9.1-.8.8-1.5 1.5-2.4 2.2-.8.7-1.7 1.4-2.6 1.8-1.9.8-4.1 1.1-6.2 1.4-8.6 1.2-17.4 2-26.1 2.6l-6.6.5-1.6.1-.8.1h-.4c-.2 0-.6.1-.7.2-.8.4-1.1.9-1.5 1.4-.4.5-.7.9-1 1.4-1.3 1.9-2.3 3.9-3.3 5.8-1 2-1.9 4-2.8 6.1l-.5.8-.2.4v.3c0 .1 0 .2-.1.4 0 .6.1.9.2 1.3.1.3.3.6.4.9.6 1.1 1.2 2 1.8 2.9 1.3 1.8 2.7 3.5 4 5.3.3.4.6.9.9 1.3.1.2.3.4.4.6V91c0 .9-.2 2.1-.3 3.1-.3 2-.6 4-1 5.9-1.7.8-3.4 1.8-4.9 3.1l-1.2 1.2c-.2.2-.3.5-.5.8-.1.3-.3.6-.3.9-.3 1-.5 2.1-.7 3.1-.2 1-.3 2.1-.3 3.1v1.6c0 .6.1 1.1.3 1.8l.3.6c.2.2.4.4.8.5.5.1.7.1 1 .1h1.5c1 0 1.9 0 2.8.2.4.1.8.3 1 .5.2.2.3.4.4.8.2.9.2 1.9.2 2.8 0 2-.3 3.9-.1 6.1V127.5s0 .1-.1.1c0 0-.1.1-.2.1-.2.2-.7.3-1.1.5-.9.2-1.9.4-3 .7l-.4.1-.5.2c-.2.1-.3.2-.5.4s-.3.5-.3.6c-.2.5-.2 1-.3 1.5l-1.8-4.3c.7-.1 1.3-.3 2-.6.9-.4 1.8-1.4 1.8-2.5.1-.5-.1-1.1-.4-1.6-.3-.4-.7-.8-1.2-1-.8-.5-1.7-.8-2.5-1.1s-1.6-.7-2.2-1.2l-.4-.4-.2-.2-.1-.2c-.1-.3-.2-.9-.3-1.3l-1.2-5.2c-.4-1.7-.8-3.5-1.2-5.2-.2-.9-.4-1.7-.5-2.6-.1-.4-.1-.9-.1-1.3v-.3c0-.1 0-.2.1-.2.1-.1.2-.3.4-.4 1.3-1.1 3-1.9 4.1-3.5.3-.4.5-.8.6-1.3.2-.5.2-1 .2-1.4 0-.9 0-1.8-.1-2.7-.1-1.8-.2-3.6-.4-5.3l-.2-1.3c0-.2 0-.4-.2-.8l-.3-.3-.3-.2c-.9-.4-1.8-.4-2.7-.6-.8-.2-1.8-.3-2.3-.8-.2-.1-.2-.2-.3-.4 0-.1 0-.1-.1-.2 0-.1 0-.2-.1-.3-.1-.4-.2-.9-.2-1.3-.3-1.8-.5-3.5-.7-5.3-.4-3.5-.8-7.1-.9-10.6-.1-.9 0-1.6.2-2.4.2-.8.6-1.6 1-2.4.8-1.6 1.6-3.1 2.6-4.6 3.8-6 8-11.7 12.4-17.2 1.1-1.4 2.2-2.8 3.3-4.1l.8-1 .4-.5c.1-.2.3-.3.4-.4.5-.4 1.2-.8 2-1.1 1.6-.6 3.3-.9 5-1.2 1.7-.3 3.5-.5 5.2-.7 7-.6 14.2-.9 21.2-1.1l5.3-.1c.9 0 1.8-.1 2.7-.2.8-.1 1.7.1 2.5.2 3.3.9 6.4 2.8 9.3 4.8l2.5 2.9L123 43zm25 23.9-.1 3.1c-.1 4.2-.3 8.4-.5 12.6-.5 2.9-1 5.7-1.5 8.6l-.8 4.3c-.1.3-.1.8-.2 1s-.3.6-.5.9l-1.2 1.8c-.9 1.2-1.7 2.4-2.5 3.6-.4.6-.8 1.3-1.1 2-.1.4-.3.7-.3 1.2-.1.4 0 .8 0 1.2.2 2.1.6 4.1 1.1 6l-2.6-3.2c-.1-1.2-.2-2.5-.4-3.7l-.1-1.9c0-.6-.1-1.3-.1-1.9 0-.4.2-1 .5-1.5.3-.6.6-1.1.9-1.6.3-.5.7-1 1.1-1.5.2-.2.4-.5.6-.7l.2-.2c.1-.1-.1.1 0 0s.3-.2.4-.3c.1-.1.1-.2.1-.2v-.1c0-.1.1-.2.1-.3.1-.5.1-.8.2-1.2l.1-1c.1-.7.1-1.3.1-2 .1-1.3.1-2.7.1-4 .1-2.6 0-5.3 0-7.9v-.3l-.2-.3-4.7-7.2c-1.6-2.4-3.1-4.8-4.6-7.3-1.5-2.4-2.7-5-3.9-7.6l-3.6-7.8c-.3-2-.6-4-1-5.9.1-.2.3-.4.4-.6l1.1-6.2 6.8 1c1.5 1.4 3 2.8 4.4 4.3.7.8 1.4 1.5 2.1 2.3l.9 1.2c.2.3.5.9.7 1.4 1.9 3.8 3.9 7.5 5.6 11.3.8 1.9 1.7 3.8 2.1 5.7.1.5.2.9.2 1.4l.1 1.5zM75.5 179.5c-.6-1.4-1.2-2.7-1.9-4.1-.7-1.3-1.6-2.6-2.9-3.6h-.2l-5.3-1.8H65c-4.5.1-9 .2-13.4.4l13.3.4 5.1 2c1 .8 1.8 2.1 2.4 3.3.7 1.3 1.2 2.6 1.7 4 1 2.6 1.8 5.4 2.4 8.1-2 4-3.9 8-5.8 12-1 2.1-1.9 4.1-2.8 6.2-.2.5-.5 1.1-.6 1.8-.1.5-.1.9-.1 1.4l-.5-.6c.3-2.8.6-5.6.8-8.4l.1-1.1V198.2c0-.1-.1-.3-.2-.5l-.2-.3c-.1-.2-.2-.4-.3-.5-.2-.3-.4-.7-.6-1-.8-1.3-1.7-2.5-2.6-3.7l-4-5.5 2.3 6.4c.3.9.6 1.9.8 2.8.1.5.2.9.2 1.4v.6c0 .2-.1.4-.1.7-.2.8-.4 1.6-.7 2.5l-.3-1.9-.1-.4-.3-.2c-2.6-1.6-5.2-3.3-7.8-5-1.3-.9-2.5-1.8-3.7-2.7-.3-.2-.6-.5-.8-.7-.2-.1-.2-.2-.3-.4-.1-.1-.2-.2-.2-.4-.3-.7-.5-1.4-.6-2.2-.7-3-1.4-6-1.7-9.1v-.7l.2-.2.7-.9 1.4-1.9 2.8-3.8-3 3.6L47 176l-.8.9-.2.2c0 .1-.1.1-.1.2v.9c.2 3.1.7 6.2 1.3 9.3.2.8.3 1.5.6 2.3.1.4.5.9.7 1.2l.9.9c1.2 1.1 2.5 2 3.7 2.9 2.4 1.8 4.9 3.4 7.4 5.1l.7 5 .4 3.3 1.2-3.1c.4-1 .8-1.9 1.1-2.9.3-1 .7-2 .9-3 .1-.3.1-.6.2-.8v-.6c.1.1.2.3.2.4.1.1.2.3.2.4l.1.2v.9l-.1 1.1c-.2 2.9-.6 5.9-.9 8.8v.4l.2.3 3.2 4.1 3.3 4.3L70 213c-.3-1-.6-2.1-.7-3.1-.1-.5-.1-1 0-1.5.1-.4.2-.9.4-1.4.8-2 1.8-4.1 2.7-6.2l5.7-12.3.1-.3-.1-.3c-.6-2.8-1.5-5.6-2.6-8.4zm-13.9-36.2c.2.3.3.8.4 1.2l.4 1.3c.5 1.8 1 3.6 1.6 5.3-.2-1.9-.5-3.7-.9-5.5l-.3-1.4-.1-.7c0-.2-.1-.5-.2-.8-.5-.9-1.1-1.6-1.7-2.4-2.5-2.8-5.2-5.4-8.1-7.6 1.2 1.4 2.4 2.8 3.7 4.2 1.2 1.4 2.5 2.7 3.7 4.1.5.9 1.1 1.6 1.5 2.3zm.3 17.4-.1-.1c-.8-.7-1.5-1.4-2.3-1.9-.4-.3-.8-.6-1.3-.9-.4-.3-.9-.5-1.4-.7.8.7 1.4 1.4 2.1 2.1.7.7 1.4 1.3 2.1 2 .5 1.8 1.1 3.5 2 5.1-.2-1.9-.6-3.7-1.1-5.6zm15.9-13c-.7 1-1.3 1.9-2 2.8-.3.5-.7.9-1.1 1.3-.2.2-.4.4-.5.6l-.3.2c-.1 0-.2.1-.2.1-1.8.6-3.7 1.2-5.5 1.8l-2.8 1c-.9.4-1.8.7-2.7 1.1.9-.2 1.9-.4 2.8-.6l2.8-.7c1.8-.5 3.7-1 5.5-1.6.2-.1.3-.1.4-.2l.3-.3.6-.6c.4-.4.7-.9 1.1-1.4.7-1 1.3-2 1.9-3 1.2-2.1 2.4-4.2 3.5-6.4l-1.9 3c-.6.9-1.2 1.9-1.9 2.9zm-13.2 22.8 6-3.4 3.3-7.7s6.6-4.8 7.1-5.4c.6-.7 1.1-3.1 1.1-4.1s.2-7.7.2-7.7.4 1.8.7 3.3.7 3.8-.1 7.6-7.6 7.4-7.6 7.4-2 5.3-4.3 7.4l-4.5 2.9-1.9-.3z" fill="#bfae71" stroke-width="none" opacity="1" stroke="none"></path></g><g id="svga-group-glasses-single-move" transform="matrix(1,0,0,1,0,0)"><g id="svga-group-glasses-single" transform="matrix(1.1000004000000003,0,0,1.1000004000000003,-10.055041669590793,-9.380037443705774)"><path id="SvgjsPath11724" d="M96.1 90.7s.3-2.2-3.6-3.5c-3.1-1-6.2-1.2-8.8-1.2s-10.8-.1-12.9.1-5.2.4-6 3.4c-.8 3 1 7.8 5.2 10.2 4.2 2.3 12.5 2.5 17.8 1 5.3-1.5 7.8-5 8.3-10z" fill="#ffffff" stroke-width="none" opacity="0.44"></path><path id="SvgjsPath11725" d="M104.9 90.7s-.2-2.2 3.8-3.5c3.1-1 6.3-1.2 8.9-1.2s10.9-.1 13 .1 5.2.4 5.9 3.4c.6 3-1.4 7.9-5.7 10.3-4.3 2.3-12.6 2.5-17.9 1-5.4-1.6-7.7-5.1-8-10.1z" fill="#ffffff" stroke-width="none" opacity="0.44"></path><path id="SvgjsPath11726" d="M96.1 90.1s3.8-1.7 8.8 0v1s-5.4-1-8.9 0l.1-1z" fill="#a30000" stroke-width="none" opacity="1"></path><path id="SvgjsPath11727" d="M79.9 102.1c-4.1 0-7.8-.7-10.1-2-3.8-2.1-5.6-6.2-5.6-9V91h-2.5l-.2-2.1h3.1v-.1c1.1-2.6 4-2.8 5.9-3h.2c.9-.1 2.9-.1 6.3-.1H83.6c2.5 0 5.8.1 8.9 1.2 4.1 1.4 3.9 3.7 3.9 3.9-.6 5.4-3.5 8.9-8.6 10.4-2.1.6-5 .9-7.9.9zm-2.8-15.7c-3.4 0-5.4 0-6.3.1h-.2c-2.1.2-4.8.4-5.5 3.1-.8 3 1.1 7.6 5 9.8 2.2 1.2 5.7 1.9 9.7 1.9 2.8 0 5.6-.3 7.8-1 4.9-1.4 7.5-4.6 8.1-9.8 0-.2.1-2-3.4-3.1-3-1-6.2-1.1-8.7-1.1h-2.3c-1.2.1-2.7.1-4.2.1zm43.5 15.7c-2.9 0-5.7-.4-7.9-1-5.1-1.5-7.8-4.9-8.2-10.4 0-.3-.1-2.6 4.1-3.9 3.2-1 6.5-1.2 9-1.2h6.7c3.4 0 5.4 0 6.3.1h.2c1.9.2 4.8.4 5.8 3v.1h3.1l-.3 2.1h-2.5v.1c-.2 2.9-2.1 6.9-6 9.1-2.4 1.3-6.2 2-10.3 2zm3.6-15.7h-6.6c-2.4 0-5.7.1-8.7 1.1-3.5 1.2-3.5 2.9-3.5 3.1.3 5.2 2.8 8.4 7.6 9.8 2.1.6 4.9 1 7.7 1 4 0 7.6-.7 9.8-1.9 4.1-2.2 6.1-6.9 5.5-9.8-.6-2.7-3.2-2.9-5.4-3.2h-.2c-.8-.1-2.9-.1-6.2-.1z" fill="#c20b0b" stroke-width="none" opacity="1"></path><path id="SvgjsPath11728" d="M77 85.7h6.7c2.5 0 5.8.1 8.9 1.2 4 1.3 3.8 3.6 3.8 3.8-.6 5.4-3.4 8.8-8.5 10.3-2.2.7-5.1 1-7.9 1-4.1 0-7.8-.7-10-2-3.7-2.1-5.5-6.1-5.5-8.9v-.3H62l-.3-1.8h3l.1-.1c1-2.5 3.9-2.8 5.8-2.9h.2c.8-.2 2.9-.3 6.2-.3m2.9 15.8c2.8 0 5.6-.3 7.8-1 4.9-1.4 7.6-4.6 8.2-9.9 0-.2.1-2.1-3.5-3.2-3-1-6.2-1.1-8.7-1.1H77.1c-3.4 0-5.4 0-6.3.1h-.2c-2.1.2-4.9.5-5.6 3.2-.8 3 1.1 7.7 5.1 9.9 2.2 1.3 5.8 2 9.8 2m-2.9-16c-2.7 0-5.2 0-6.3.1h-.2c-2 .2-4.9.5-6 3.1h-3.1l.2 2.3h2.5c0 3.2 2.1 7.1 5.7 9.1 2.5 1.4 6.4 2.1 10.2 2.1 2.9 0 5.7-.4 8-1 5.2-1.5 8.1-5 8.7-10.5 0-.3.2-2.7-4-4.1-3.1-1.1-6.4-1.2-9-1.2h-2.2c-1.3.1-2.9.1-4.5.1zm2.9 15.8c-3.6 0-7.3-.6-9.7-1.9-3.9-2.2-5.7-6.8-5-9.7.7-2.6 3.3-2.9 5.4-3.1h.2c1-.1 3.6-.1 6.2-.1H83.6c2.4 0 5.6.1 8.6 1.1 3.4 1.1 3.3 2.9 3.3 3-.5 5.1-3.1 8.3-8 9.7-2 .6-4.8 1-7.6 1zm44.4-15.9v.3c3.4 0 5.4 0 6.3.1h.2c1.9.2 4.7.4 5.7 2.9l.1.1h3.1l-.3 1.8h-2.5v.3c-.2 2.8-2.1 6.8-6 8.9-2.4 1.3-6.1 2-10.2 2-2.9 0-5.7-.4-7.9-1-5-1.5-7.8-4.9-8.1-10.3 0-.2-.1-2.5 4-3.8 3.2-1 6.4-1.2 8.9-1.2H124.3v-.1m-3.6 16.1c4 0 7.7-.7 9.9-1.9 4.1-2.3 6.2-7 5.6-10-.6-2.8-3.4-3-5.5-3.2h-.2c-.9-.1-2.9-.1-6.3-.1h-6.7c-2.5 0-5.7.1-8.8 1.1-3.6 1.2-3.6 3.1-3.6 3.3.3 5.2 2.8 8.4 7.7 9.9 2.3.6 5 .9 7.9.9m3.6-16.1h-6.7c-2.5 0-5.8.1-9.1 1.2-4.3 1.4-4.2 3.8-4.2 4.1.3 5.5 3.1 9 8.2 10.5 2.2.7 5.1 1 8 1 3.8 0 7.7-.6 10.3-2.1 3.7-2.1 5.9-6 6.1-9.2h2.5l.3-2.4h-3.1c-1-2.6-3.9-2.9-5.9-3.1h-.2c-.9.1-3.5 0-6.2 0zm-3.6 15.9c-2.8 0-5.6-.3-7.7-1-4.8-1.4-7.3-4.5-7.6-9.7 0-.1-.1-1.8 3.4-3 3-1 6.2-1.1 8.7-1.1H124.1c2.6 0 5.2 0 6.3.1h.2c2.1.2 4.7.4 5.3 3.1.6 2.9-1.4 7.5-5.4 9.7-2.5 1.3-6.2 1.9-9.8 1.9z" fill="#a30000" stroke-width="none" opacity="1"></path></g></g></g></g></g><rect id="svga-credit-rect" width="200" height="15" x="0" y="185" fill="#ecf0f1" opacity="0.5" style="display: none;"></rect><text id="svga-credit-text" font-family="Avenir Next, Roboto, Helvetica, Arial, sans-serif" font-size="10px" text-anchor="start" font-weight="400" size="10px" anchor="start" weight="400" fill="#333333" x="33.43669891357422" y="182.60824704170227" style="display: none;"><tspan id="SvgjsTspan11513" dy="13" x="33.43669891357422">Created on AvatarMaker.com</tspan></text></g><defs id="SvgjsDefs11465"></defs></svg>