<svg xmlns="http://www.w3.org/2000/svg" xmlns:xlink="http://www.w3.org/1999/xlink" version="1.1" x="0px" y="0px"
    viewBox="0 0 100 100" style="enable-background:new 0 0 100 100;" xml:space="preserve">
    <g>
        <path fill="#343436"
            d="M65.2778091,91.182251h15.5340347c1.6977386,0,3.0740128-1.3762741,3.0740128-3.0740128v-37.820549L50,28.3187542   l-33.8858566,21.968935v37.820549c0,1.6977386,1.3762741,3.0740128,3.0740108,3.0740128h15.5340385   c1.6977348,0,3.0740089-1.3762741,3.0740089-3.0740128V62.1226158h24.4075928v25.9856224   C62.2037964,89.8059769,63.5800705,91.182251,65.2778091,91.182251z" />
        <path fill="#343436"
            d="M2.9852431,41.9807549l2.557173,3.9956131c0.9151611,1.4299355,2.8162169,1.8472099,4.2461524,0.9321098L50,21.1737061   l40.2114334,25.7347717c1.4299316,0.9151001,3.330986,0.4978256,4.2461472-0.9321098l2.5571747-3.9956131   c0.9151611-1.4299355,0.4978867-3.3310547-0.932106-4.2462158l-15.632103-10.0044193V14.0731859   c0-1.6976738-1.3762741-3.0740108-3.0740128-3.0740108h-6.6826172c-1.6977386,0-3.0740128,1.3763371-3.0740128,3.0740108v5.4454374   L51.6570206,9.3025646c-1.0100975-0.6464224-2.3039436-0.6464224-3.3140411,0L3.9173529,37.734539   C2.487355,38.6497002,2.0700819,40.5508194,2.9852431,41.9807549z" />
    </g>
</svg>