<?xml version="1.0" encoding="UTF-8"?>
<svg
        width="1200pt"
        height="1200pt"
        version="1.1"
        viewBox="0 0 1200 1200"
        xmlns="http://www.w3.org/2000/svg">
    <path
            d="m1078.8 573.6c-43.199-68.398-129.6-207.6-174-242.4-30-24-99.602-60-150-85.199-8.3984-3.6016-18-2.3984-22.801 4.8008-1.1992 2.3984-3.6016 4.8008-6 7.1992l-72-44.398c-12-7.1992-26.398-13.199-40.801-14.398v-36c30-7.1992 51.602-33.602 51.602-64.801 0-37.199-30-67.199-67.199-67.199-37.199 0-67.199 30-67.199 67.199 0 8.3984 7.1992 14.398 14.398 14.398s14.398-7.1992 14.398-14.398c3.6016-21.605 20.402-38.406 40.801-38.406s37.199 16.801 37.199 37.199c0 20.398-16.801 37.199-37.199 37.199-8.3984 0-14.398 7.1992-14.398 14.398v49.199c-14.398 2.3984-27.602 7.1992-40.801 14.398l-70.801 44.398c-1.1992-2.3984-3.6016-3.6016-4.8008-6-4.8008-7.1992-15.602-9.6016-22.801-6-18 8.3984-32.398 15.602-36 16.801-9.6016 4.8008-138 58.801-165.6 104.4-28.797 46.809-98.398 174.01-124.8 222.01-6 12-3.6016 25.199 6 33.602 26.398 22.801 80.398 63.602 127.2 72 10.801 2.3984 21.602-2.3984 27.602-10.801 22.801-30 45.602-51.602 45.602-51.602s19.199 295.2 10.801 483.6c-1.1992 21.602 14.398 39.602 36 40.801 114 9.6016 296.4 24 470.4 2.3984 20.398-2.3984 34.801-20.398 33.602-39.602-4.8008-158.4-10.801-420 1.1992-486l39.602 46.801c8.3984 10.801 24 13.199 34.801 6 30-18 85.199-50.398 117.6-75.602 13.195-8.3984 15.594-23.996 8.3945-35.996zm-518.4-334.8c12-7.1992 25.199-10.801 39.602-10.801 13.199 0 27.602 3.6016 39.602 10.801l66 40.801c-27.602 20.398-64.801 32.398-104.4 32.398-40.801 0-78-13.199-105.6-33.602z"
            fill="#38CEFF" />
</svg>