<?xml version="1.0" encoding="UTF-8"?>
<svg
        width="1200pt"
        height="1200pt"
        version="1.1"
        viewBox="0 0 1200 1200"
        xmlns="http://www.w3.org/2000/svg">
    <g fill="#7a306c">
        <path d="m431.25 101.25c3.75 1.875 5.625 3.75 9.375 5.625 7.5 5.625 15 9.375 22.5 15 20.625 11.25 35.625 30 48.75 56.25 5.625 9.375 9.375 20.625 13.125 30 3.75 7.5 7.5 16.875 9.375 24.375 22.5 52.5 63.75 80.625 120 84.375h9.375c26.25 0 52.5-5.625 76.875-16.875 18.75-9.375 24.375-22.5 24.375-33.75 0-7.5-1.875-26.25-24.375-37.5l-11.25-3.75c-15-5.625-28.125-13.125-43.125-18.75s-22.5-13.125-28.125-22.5c-9.375-16.875-16.875-33.75-24.375-50.625l-3.75-9.375c-13.125-30-31.875-54.375-56.25-73.125-39.375-30-80.625-39.375-125.62-30-18.75 3.75-30 16.875-33.75 35.625-5.625 16.875 1.875 33.75 16.875 45zm112.5-13.125c18.75 13.125 31.875 31.875 41.25 54.375l3.75 9.375c7.5 16.875 16.875 35.625 24.375 54.375 11.25 20.625 28.125 35.625 54.375 45 11.25 3.75 22.5 9.375 33.75 13.125-15 3.75-30 5.625-46.875 5.625-37.5-1.875-63.75-20.625-78.75-56.25-3.75-7.5-5.625-15-9.375-22.5-3.75-11.25-7.5-22.5-13.125-33.75-16.875-35.625-39.375-61.875-69.375-76.875l-16.875-11.25c-1.875-1.875-3.75-1.875-5.625-3.75 30-5.625 56.25 1.875 82.5 22.5zm-86.25-26.25-13.125 18.75z" />
        <path d="m99.375 532.5c165 116.25 870 615 896.25 635.62 15 11.25 33.75 16.875 50.625 16.875 26.25 0 52.5-11.25 71.25-31.875 43.125-45 20.625-106.88 9.375-136.88-30-86.25-101.25-153.75-213.75-210-9.375-5.625-20.625-9.375-31.875-15-20.625-9.375-41.25-18.75-61.875-26.25-86.25-37.5-176.25-75-253.12-129.38-16.875-11.25-33.75-24.375-50.625-35.625l129.38-185.62c7.5-11.25 5.625-24.375-5.625-31.875s-24.375-5.625-31.875 5.625l-129.38 185.62c-3.75-1.875-5.625-3.75-9.375-5.625-13.125-9.375-26.25-18.75-37.5-26.25l127.5-185.62c7.5-11.25 5.625-24.375-5.625-31.875s-24.375-5.625-31.875 5.625l-127.5 185.62-46.875-33.75 127.5-185.62c7.5-11.25 5.625-24.375-5.625-31.875s-24.375-5.625-31.875 5.625l-127.5 183.75-46.875-33.75 127.5-183.75c7.5-11.25 5.625-24.375-5.625-31.875s-24.375-5.625-31.875 5.625l-127.5 183.75-30-20.625c-16.875-11.25-35.625-15-56.25-11.25-24.375 5.625-48.75 24.375-63.75 50.625-30 39.375-18.75 88.125 24.375 120zm9.375-99.375c7.5-13.125 22.5-24.375 33.75-28.125h5.625c3.75 0 9.375 1.875 13.125 3.75l22.5 15 26.25 18.75h1.875l176.25 123.75c16.875 11.25 33.75 24.375 52.5 37.5 33.75 22.5 65.625 46.875 99.375 69.375 80.625 56.25 172.5 95.625 262.5 133.12 20.625 9.375 41.25 18.75 61.875 26.25 9.375 3.75 18.75 9.375 30 13.125 101.25 48.75 163.12 108.75 191.25 183.75 15 39.375 20.625 67.5 0 88.125-16.875 18.75-43.125 22.5-61.875 9.375-28.125-18.75-733.12-517.5-896.25-635.62-18.75-9.375-31.875-31.875-18.75-58.125z" />
    </g>
</svg>