<svg xmlns="http://www.w3.org/2000/svg" version="1.1" width="600px" height="600px" viewBox="0 0 200 200" style="overflow:hidden!important;"><g id="svga-group-wrapper"><g id="svga-group-backs-single"><path id="SvgjsPath3825" d="M0 0h200v200H0V0z" fill="#a8c1ee" stroke-width="none" opacity="1" stroke="none"></path></g><g id="svga-group-humanwrap-move" transform="matrix(1,0,0,1,0,0)"><g id="svga-group-humanwrap" transform="matrix(1.0000001,0,0,1.0000001,-0.000009964999961198373,-0.000011694315347199336)"><g id="svga-group-hair-back-move" transform="matrix(1,-1.3877787807814457e-16,1.3877787807814457e-16,1,-1.4210854715202004e-14,0)"><g id="svga-group-hair-back" transform="matrix(1.0200001,0,0,1.0001001,0,0)"></g></g><g id="svga-group-humanbody-back"><path id="SvgjsPath3778" d="M180.8 184.9c-2.3-3.4-38.9-17.8-38.9-17.8l-13.4-5.2-5.6-68.8H76.8L71.3 162l-13.4 5.2S21.4 181.6 19 185c-2.3 3.4-3.3 14.9-3.3 14.9V219h168.5v-19.2c-.1.1-1-11.5-3.4-14.9z" fill="#f0c7b1" stroke-width="none" opacity="1" stroke="none"></path></g><g id="svga-group-chinshadow-single"><path id="SvgjsPath4122" d="M94.3 163.2s17.4.7 30.2-15c.96-1.2 1.83-2.36 2.64-3.5l-4.2-51.6H76.82l-4.96 62.4c11.08 8.16 22.44 7.7 22.44 7.7z" fill="#d19271" stroke-width="none" opacity="1" stroke="none"></path></g><g id="svga-group-humanbody-front"><path id="SvgjsPath3779" d="M184.5 219c-.1-6.4-.1-12.8-.1-19.2l-.3-.1s.1-.1.2 0c.1 0 .1.1.1.1v-.4l-.1-.5-.1-.9-.2-1.9c-.2-1.3-.4-2.5-.6-3.8-.2-1.3-.5-2.5-.9-3.8-.4-1.2-.8-2.5-1.5-3.6-.8-.9-1.9-1.5-2.9-2.1-1-.6-2.1-1.1-3.2-1.7-2.1-1.1-4.3-2.1-6.5-3.1-4.4-2-8.7-3.9-13.1-5.7-4.4-1.9-8.8-3.7-13.2-5.5l-13-5.2-1.2-16.9c-.4-5.7-.9-11.5-1.3-17.2l-1.3-17.2-1.5-17.3-.1-.8h-.8c-7.7 0-15.4.1-23.1.1l-23.1.2h-.5v.5L75 110.2l-1.3 17.2c-.8 11.4-1.8 22.8-2.8 34.2-5.6 2.1-11.2 4.2-16.7 6.4-5.6 2.2-11.2 4.5-16.8 6.9-2.8 1.2-5.6 2.4-8.3 3.6-2.8 1.3-5.5 2.5-8.2 4.1-.7.4-1.3.8-2 1.4-.2.1-.4.4-.5.6l-.3.6c-.2.4-.4.7-.5 1.1-.6 1.5-1 3-1.3 4.5-.6 3-1.1 6-1.4 9.1l-.1 19.1v.9h.9l42.1.1H100c14 0 28.1-.1 42.1-.2l42.1-.5h.3v-.3zm-84.5-1-42.1-.1-41.2.1-.1-18.1c.3-3 .6-5.9 1.2-8.9.3-1.4.6-2.9 1.1-4.2.1-.3.3-.7.4-.9l.2-.4.3-.3c.5-.4 1.1-.8 1.8-1.2 2.5-1.5 5.3-2.8 8-4.1 2.7-1.3 5.5-2.5 8.2-3.7 5.5-2.4 11.1-4.8 16.7-7.1s11.2-4.5 16.9-6.7l.2-.1v-.2c.9-11.5 1.7-23 2.7-34.4l1.4-17.2 1.5-16.7 22.6.2c7.4.1 14.8.1 22.3.1l1.3 16.4 1.5 17.2c.5 5.7 1 11.5 1.5 17.2l1.6 17.2v.3l.3.1 13.4 5c4.4 1.7 8.9 3.4 13.3 5.2 4.4 1.8 8.8 3.7 13.2 5.6 2.2 1 4.3 2 6.5 3 1.1.5 2.1 1.1 3.2 1.6 1 .6 2.1 1.2 2.9 2 .7 1.1 1.1 2.3 1.4 3.5.3 1.2.6 2.5.8 3.7.2 1.3.4 2.5.6 3.8l.2 1.9.1.9.1.5v.4c0 6.3 0 12.6-.1 18.9l-41.8-.5c-14 .1-28.1 0-42.1 0z" fill="#c27b55" stroke-width="none" opacity="1" stroke="none"></path><path id="SvgjsPath3780" d="M125.1 142.4s-1.8 23-9.1 32.9c0 0 7.9-25 9.1-32.9zm-34.5 16s5 7.9 11.5 10.1c0 0-9.5 2.2-11.5-10.1zM73.4 140c6.7 25.6 6.7 25.6 8.5 30.7 0 0 .4-12.6-8.5-30.7z" fill="#d19271" stroke-width="none" opacity="1" stroke="none"></path></g><g id="svga-group-clothes-single"><path id="SvgjsPath3668" d="M56.9 166.6s-31.1 11.5-38.3 16.7c0 0-2.3 2.3-3.3 9.3-1 7-1.4 27.3-1.4 27.3h171.5s-.2-16.2-1.3-25.3c-1.2-9.1-1.9-9.3-3.1-10.5-1.2-1.2-27.3-14-38.6-17.5 0 0-1.6 22-40.1 23.6s-45.2-17.5-45.4-23.6z" fill="#1f437b" stroke-width="none" opacity="1" stroke="none"></path><path id="SvgjsPath3669" d="M185.8 220c-.1-6.6-.3-13.2-.7-19.8-.2-3.3-.6-6.6-1.1-9.8-.3-1.6-.5-3.3-1.3-4.9-.2-.4-.5-.8-.8-1.1-.3-.3-.6-.6-1-.9-.8-.5-1.5-.9-2.2-1.2-5.8-3.1-11.8-5.9-17.8-8.7-3-1.4-6-2.7-9.1-3.9-3.1-1.3-6.1-2.5-9.3-3.5l-.5-.2-.1.6c-.3 2.1-1 4.2-2.1 6.1l-.4.7-.4.7-.9 1.4-1 1.3c-.4.4-.7.9-1.1 1.2-1.5 1.6-3.2 2.9-5 4.1-.9.6-1.8 1.2-2.8 1.7l-3 1.4c-4.1 1.6-8.3 2.9-12.7 3.6l-3.3.5-3.3.3-3.3.3c-1.1.1-2.2 0-3.3.1H96c-1.1 0-2.2-.1-3.3-.1l-3.3-.2-3.3-.4c-2.2-.2-4.3-.8-6.5-1.2-1.1-.2-2.1-.6-3.2-1l-1.6-.5-1.5-.7c-4.1-1.7-7.9-4.1-10.8-7.4l-1.1-1.2c-.3-.4-.6-.9-1-1.3-.7-.9-1.1-1.9-1.7-2.8-1-2-1.6-4.1-1.8-6.4-3.4 1.2-6.6 2.4-9.9 3.6-3.3 1.2-6.5 2.5-9.8 3.8-3.2 1.3-6.5 2.7-9.6 4.1-3.2 1.5-6.4 2.9-9.3 4.9-1.1 1.3-1.7 2.8-2.2 4.2-.5 1.5-.9 3-1.1 4.6-.5 3.1-.6 6.2-.8 9.3-.4 6.2-.6 12.4-.7 18.7v.4h.4c14.3.1 28.6-.1 42.9-.1l42.9-.1h21.4l21.4.1 42.9.2h.4v-.5zm-64.7-.2H99.7l-42.9-.1c-6.8 0-13.6 0-20.5-.1-.1-3.4-.5-6.7-1-10-.6-3.4-1.3-6.8-2.5-10-.6-1.6-1.5-3.2-2.5-4.6-1-1.4-2-2.8-3.2-4.1-2.3-2.6-4.9-4.9-7.6-6.9 2.5 2.3 4.9 4.8 7.1 7.4 2.1 2.6 4.1 5.4 5.3 8.6 1.2 3.1 2 6.5 2.7 9.8.4 1.7.7 3.4 1 5 .3 1.6.6 3.2.8 4.9-7.3 0-14.6-.1-22 0 .1-6.1.3-12.1.6-18.2.2-3.1.3-6.2.8-9.3.2-1.5.6-3 1.1-4.5.5-1.4 1.1-2.9 2-4 2.8-1.9 6-3.4 9.1-4.9 3.2-1.5 6.4-2.8 9.6-4.2 3.2-1.4 6.4-2.7 9.7-4l9.7-3.8c.1 2.1.8 4.4 1.7 6.4.5 1 1 2 1.7 2.9.3.5.6.9 1 1.4l1.1 1.3c3 3.4 6.8 5.9 10.9 7.6l1.5.7 1.6.5c1.1.3 2.1.8 3.2 1 2.2.5 4.3 1.1 6.6 1.3l3.3.5 3.3.2c1.1.1 2.2.2 3.3.2h5.3c-.2.7-.2 1.3-.1 1.9.1.7.2 1.3.5 2-1.1 0-2.1.1-3.2 0-4.8 0-9.6-.2-14.3-.9-.6-.1-1.2-.1-1.8-.2l-1.8-.4-3.5-.7c-1.2-.3-2.3-.7-3.4-1l-1.6-.5c.5-.5.9-1.2 1.2-1.8.3-.7.6-1.5.7-2.3-.6.6-1 1.3-1.4 2-.3.7-.6 1.3-.7 2.1-.6-.2-1.1-.4-1.6-.6-1.5-.6-2.9-1.2-4.3-1.9.3-.3.6-.5.8-.8.3-.3.5-.6.8-.9.5-.7.9-1.4 1.2-2.2-.7.5-1.3 1.1-1.8 1.7-.2.3-.5.7-.7 1.1-.2.3-.3.7-.4 1.1-2.2-1.1-4.2-2.5-6-4.1.8-.4 1.4-.9 2-1.5.6-.6 1.2-1.3 1.6-2.1-.8.4-1.5 1-2.1 1.6-.6.6-1.1 1.2-1.5 2-.5-.5-1.1-.9-1.6-1.4-.5-.4-.8-.9-1.2-1.3-.4-.4-.8-.9-1.2-1.4-.7-1-1.4-1.9-2-3-1.2-2.1-2.1-4.3-2.4-6.7.2 2.4 1.1 4.7 2.2 6.9.5 1.1 1.2 2.1 1.9 3.1.3.5.8.9 1.1 1.4.4.4.8 1 1.2 1.4 3.4 3.5 7.6 6.1 12.1 7.9.6.2 1.1.5 1.7.7l1.7.6c1.2.4 2.3.8 3.5 1.1l3.6.8 1.8.4c.6.1 1.2.2 1.8.2 4.8.7 9.6.9 14.5 1 9.6 0 19.4-1.3 28.4-5 4.5-1.9 8.7-4.3 12.3-7.6 1.8-1.7 3.4-3.4 4.7-5.5 1.4-2 2.5-4.1 3.1-6.5-1.6 4.6-4.7 8.4-8.2 11.6-3.6 3.2-7.8 5.5-12.3 7.3-6.6 2.6-13.6 3.9-20.7 4.4.1-.6.1-1.1 0-1.6-.1-.6-.3-1.2-.6-1.8-.2.7-.2 1.3-.1 1.9.1.5.2 1.1.5 1.6-1.3.1-2.7.1-4 .2.2-.7.2-1.4.2-2.1-.1-.6-.2-1.2-.5-1.9h1.2l3.3-.2c1.1-.1 2.2-.1 3.3-.3l3.3-.5c4.4-.6 8.8-1.9 12.9-3.5 4.1-1.7 8-4.2 11.2-7.4.4-.4.8-.8 1.1-1.3l1.1-1.3.9-1.4.5-.7.4-.8c1-1.8 1.7-3.7 2.1-5.8 2.9.9 5.8 2.1 8.6 3.3l9 3.9c6 2.7 11.9 5.5 17.7 8.6.7.4 1.5.8 2.1 1.2.3.1.6.5.9.7.3.3.4.6.6.9.6 1.4.9 3 1.2 4.6.5 3.2.9 6.5 1.2 9.8.5 6.4.7 12.9.8 19.3l-22.5.1c.3-1.7.5-3.3.8-4.9.3-1.7.6-3.4 1-5 .7-3.3 1.5-6.7 2.7-9.8 1.1-3.1 3.2-5.9 5.3-8.6 2.2-2.6 4.6-5.1 7.1-7.4-2.8 2-5.3 4.4-7.6 6.9-1.2 1.3-2.2 2.6-3.2 4.1-1 1.4-1.8 3-2.4 4.6-1.2 3.2-2 6.6-2.5 10-.5 3.4-.9 6.7-1 10.1l-19.9.1-21.7-.6zm16.2-41.2c.3.7.7 1.2 1.2 1.7s1 .9 1.7 1.2c-.3-.7-.7-1.2-1.2-1.7s-1-1-1.7-1.2z" fill="#05275c" stroke-width="none" opacity="1" stroke="none"></path></g><g id="svga-group-head" transform="matrix(1,-1.3877787807814457e-16,1.3877787807814457e-16,1,-1.4210854715202004e-14,0)"><g id="svga-group-ears-left-move" transform="matrix(1,0,0,1,-1.5,1)"><g id="svga-group-ears-left" transform="matrix(0.9499999,0,0,0.9499999,2.882255596652982,4.427509198323435)"><path id="SvgjsPath10700" d="M64.76 80.15s-6.05-5.71-11.65-8.37c0 0-2.9.43-6.25 3.44 0 0 2.32 4.96 4.4 7.42 2.07 2.46 5.01 10.72 5.25 13.08.24 2.36-.73 6.67-.59 8.06.14 1.39 3.24 1.5 3.24 1.5s5.71-3.24 9.27-8.23c0-.01-1.08-9.31-3.67-16.9z" fill="#f0c7b1" stroke-width="none" opacity="1" stroke="none"></path><path id="SvgjsPath10701" d="M65.07 87.27c.04-.28-8.52-10.28-14.7-11.44 0 0 1.73 5.62 2.89 7.46s4.94 11 4.61 15.67c0 0 3.96-2.27 6.18-4.1 0 0 .54-4.33 1.02-7.59z" fill="#e1ac8f" stroke-width="none" opacity="1" stroke="none"></path><path id="SvgjsPath10702" d="m46.65 74.98-.18.16.11.21c.65 1.31 1.35 2.58 2.1 3.83s1.55 2.47 2.5 3.58c.88 1.11 1.53 2.42 2.14 3.72.59 1.32 1.11 2.67 1.59 4.03.46 1.37.89 2.75 1.2 4.15.35 1.38.16 2.81 0 4.24-.16 1.43-.44 2.84-.54 4.34-.01.19-.01.38.01.59.04.25.13.49.28.67.3.37.68.56 1.04.71.74.28 1.48.39 2.24.44l.1.01.1-.06c1.83-1.07 3.53-2.3 5.11-3.7.8-.69 1.55-1.43 2.27-2.2.73-.77 1.38-1.6 2.01-2.45l.09-.12-.02-.15c-.4-2.88-.92-5.72-1.56-8.54-.32-1.41-.69-2.81-1.08-4.2-.41-1.39-.87-2.76-1.37-4.12-.86-.87-1.74-1.67-2.64-2.46-.9-.8-1.84-1.55-2.79-2.29-1.91-1.47-3.93-2.81-6.11-3.89l-.09-.04-.1.02c-.65.12-1.22.31-1.8.54-.57.23-1.13.5-1.66.81-.53.31-1.05.64-1.54 1.01-.49.36-.96.75-1.41 1.16zm.6.32c.39-.33.79-.66 1.2-.95.48-.35.98-.66 1.48-.95.52-.28 1.04-.55 1.58-.77.51-.21 1.04-.39 1.55-.5 1.03.5 2.04 1.06 3.02 1.66 1 .64 2.01 1.28 2.98 1.98.98.69 1.92 1.42 2.87 2.15.94.73 1.88 1.5 2.78 2.26a65.5 65.5 0 0 1 1.1 4.17c.33 1.4.64 2.81.9 4.22.52 2.77.98 5.57 1.3 8.37-.59.78-1.2 1.54-1.87 2.24-.71.74-1.44 1.46-2.23 2.13-1.53 1.31-3.16 2.54-4.87 3.58-.64-.04-1.32-.14-1.9-.35-.3-.12-.59-.27-.75-.47-.08-.1-.12-.2-.14-.31-.01-.15-.02-.32-.01-.49.06-1.4.29-2.85.43-4.29.12-1.43.25-2.96-.17-4.4-.37-1.42-.84-2.79-1.35-4.15a54.07 54.07 0 0 0-1.65-4.03c-.6-1.32-1.22-2.64-2.12-3.82-.9-1.12-1.63-2.37-2.32-3.63-.64-1.2-1.24-2.42-1.81-3.65z" fill="#e1ac8f" stroke-width="none" opacity="1" stroke="none"></path><path id="SvgjsPath10703" d="M55.9 80.14c.92.98 1.71 2.06 2.44 3.17.74 1.11 1.44 2.24 2.05 3.42.63 1.17 1.22 2.36 1.71 3.59l-.07.03c-.67-1.14-1.37-2.27-2.06-3.38-.72-1.11-1.41-2.23-2.18-3.29-.77-1.07-1.53-2.13-2.37-3.14-.69-.85-1.43-1.67-2.27-2.37l1.72 3.94c.67 1.51 1.31 3.03 1.88 4.58a38.98 38.98 0 0 1 1.44 4.76c.26 1.14.48 2.31.53 3.5.14-.27.27-.55.38-.83.28-.73.44-1.5.5-2.28-.46-1.67-.91-3.34-1.32-5.02l.07-.02c.64 1.63 1.22 3.29 1.81 4.94l.01.04v.06c-.02.86-.15 1.71-.42 2.53-.13.41-.29.81-.47 1.19-.19.39-.4.75-.66 1.13l-.8 1.12.09-1.39c.1-1.57-.17-3.19-.49-4.78-.33-1.59-.77-3.17-1.25-4.73-.48-1.56-.99-3.13-1.57-4.67-.6-1.53-1.23-3.05-1.99-4.51l-.26-.5.49.31c1.16.7 2.14 1.63 3.06 2.6z" fill="#c27b55" stroke-width="none" opacity="1" stroke="none"></path></g></g><g id="svga-group-ears-right-move" transform="matrix(1,0,0,1,1.5,1)"><g id="svga-group-ears-right" transform="matrix(0.9499999,0,0,0.9499999,7.1172642955352785,4.427508816852949)"><path id="SvgjsPath10704" d="M135.24 80.15s6.05-5.71 11.65-8.37c0 0 2.9.43 6.25 3.44 0 0-2.32 4.96-4.4 7.42s-5.01 10.72-5.25 13.08c-.24 2.36.73 6.67.59 8.06-.14 1.39-3.24 1.5-3.24 1.5s-5.71-3.24-9.27-8.23c0-.01 1.08-9.31 3.67-16.9z" fill="#f0c7b1" stroke-width="none" opacity="1" stroke="none"></path><path id="SvgjsPath10705" d="M134.93 87.27c-.04-.28 8.52-10.28 14.7-11.44 0 0-1.73 5.62-2.89 7.46s-4.94 11-4.61 15.67c0 0-3.96-2.27-6.18-4.1 0 0-.54-4.33-1.02-7.59z" fill="#e1ac8f" stroke-width="none" opacity="1" stroke="none"></path><path id="SvgjsPath10706" d="M151.93 73.82c-.49-.37-1.01-.7-1.54-1.01-.53-.31-1.09-.58-1.66-.81-.58-.23-1.15-.42-1.8-.54l-.1-.02-.09.04c-2.18 1.08-4.2 2.42-6.11 3.89-.95.74-1.89 1.49-2.79 2.29-.9.8-1.79 1.59-2.64 2.46-.5 1.36-.96 2.74-1.37 4.12-.39 1.39-.76 2.79-1.08 4.2-.65 2.82-1.16 5.67-1.56 8.54l-.02.15.09.12c.63.85 1.29 1.68 2.01 2.45.72.77 1.48 1.51 2.27 2.2 1.58 1.39 3.28 2.62 5.11 3.7l.1.06.1-.01c.77-.05 1.5-.16 2.24-.44.36-.15.74-.34 1.04-.71.15-.18.25-.42.28-.67.02-.21.02-.41.01-.59-.1-1.5-.37-2.9-.54-4.34-.16-1.43-.35-2.86 0-4.24.31-1.4.74-2.78 1.2-4.15.48-1.36 1-2.71 1.59-4.03.61-1.3 1.26-2.61 2.14-3.72.94-1.12 1.75-2.34 2.5-3.58.75-1.25 1.45-2.52 2.1-3.83l.11-.21-.18-.16c-.44-.41-.91-.8-1.41-1.16zm-1.01 5.12c-.7 1.26-1.42 2.51-2.32 3.63-.9 1.18-1.52 2.5-2.12 3.82a54.07 54.07 0 0 0-1.65 4.03c-.51 1.36-.98 2.73-1.35 4.15-.42 1.44-.28 2.96-.17 4.4.13 1.44.37 2.9.43 4.29.01.17 0 .34-.01.49-.02.11-.06.21-.14.31-.16.2-.44.36-.75.47-.58.21-1.26.31-1.9.35-1.71-1.04-3.34-2.27-4.87-3.58-.78-.67-1.52-1.38-2.23-2.13-.68-.71-1.29-1.47-1.87-2.24.32-2.8.77-5.59 1.3-8.37.26-1.42.57-2.82.9-4.22.32-1.41.7-2.79 1.1-4.17.9-.76 1.84-1.53 2.78-2.26.95-.73 1.9-1.46 2.87-2.15.97-.69 1.98-1.34 2.98-1.98.98-.6 1.99-1.16 3.02-1.66.51.11 1.05.29 1.55.5.54.23 1.06.49 1.58.77.51.29 1.01.6 1.48.95.42.3.81.62 1.2.95-.55 1.24-1.15 2.46-1.81 3.65z" fill="#e1ac8f" stroke-width="none" opacity="1" stroke="none"></path><path id="SvgjsPath10707" d="M144.1 80.14c-.92.98-1.71 2.06-2.44 3.17-.74 1.11-1.44 2.24-2.05 3.42-.63 1.17-1.22 2.36-1.71 3.59l.07.03c.67-1.14 1.37-2.27 2.06-3.38.72-1.11 1.41-2.23 2.18-3.29.77-1.07 1.53-2.13 2.37-3.14.69-.85 1.43-1.67 2.27-2.37l-1.72 3.94c-.67 1.51-1.31 3.03-1.88 4.58a38.98 38.98 0 0 0-1.44 4.76c-.26 1.14-.48 2.31-.53 3.5a8.84 8.84 0 0 1-.38-.83c-.28-.73-.44-1.5-.5-2.28.46-1.67.91-3.34 1.32-5.02l-.07-.02c-.64 1.63-1.22 3.29-1.81 4.94l-.01.04v.06c.02.86.15 1.71.42 2.53.13.41.29.81.47 1.19.19.39.4.75.66 1.13l.8 1.12-.09-1.39c-.1-1.57.17-3.19.49-4.78.33-1.59.77-3.17 1.25-4.73.48-1.56.99-3.13 1.57-4.67.6-1.53 1.23-3.05 1.99-4.51l.26-.5-.49.31c-1.16.7-2.14 1.63-3.06 2.6z" fill="#c27b55" stroke-width="none" opacity="1" stroke="none"></path></g></g><g id="svga-group-faceshape-wrap" transform="matrix(1.0200001,0,0,1.0001001,-2.000009923705676,-0.00905595719623875)"><g id="svga-group-faceshape-single"><path id="SvgjsPath4109" d="M139.42 105.09c.29-8.36-.32-24.19.98-36.59 0 0 .9-9.5 0-13.6-2.2-10-6.3-16-15.2-20.8-9.3-5-25.2-4.8-25.2-4.8s-15.9-.2-25.2 4.8c-8.8 4.8-13 10.8-15.2 20.8-.9 4 0 13.6 0 13.6 1.3 12.4.52 25.14.91 34.65.49 15.53 4.95 26.5 10.09 33.1 12.7 15.7 29.4 15.35 29.4 15.35s15.46 1.51 28.16-14.19c8.05-9.99 10.85-20.76 11.26-32.32z" fill="#f0c7b1" stroke-width="none" opacity="1" stroke="none"></path><path id="SvgjsPath4110" d="M87.9 137.9s8.6-8.5 21.2-.5c0 0-12.3-3-21.2.5z" fill="#d19271" stroke-width="none" opacity="1" stroke="none"></path><path id="SvgjsPath4111" d="M128.16 137.41c8.06-9.99 10.86-20.76 11.26-32.32.29-8.36-.32-24.19.98-36.59 0 0 .9-9.5 0-13.6-2.2-10-6.3-16-15.2-20.8-9.3-5-25.2-4.8-25.2-4.8s-15.9-.2-25.2 4.8c-8.8 4.8-13 10.8-15.2 20.8-.9 4 0 13.6 0 13.6 1.3 12.4.52 25.14.91 34.65.49 15.53 4.95 26.5 10.09 33.1 12.7 15.7 29.4 15.35 29.4 15.35s15.46 1.51 28.16-14.19zm-5.62 4.69c-2.14 1.75-4.41 3.3-6.84 4.57-2.44 1.24-5 2.22-7.64 2.86-.66.18-1.32.32-1.99.43-.66.14-1.34.21-2.01.3-1.32.14-2.74.21-3.95.11h-.15c-2.6-.07-5.41-.57-8.03-1.33-2.64-.77-5.22-1.78-7.63-3.11-4.86-2.58-9.15-6.21-12.64-10.46-3.35-4.3-5.73-9.43-7.31-14.76-1.57-5.35-2.42-10.92-2.68-16.53-.33-5.63-.25-11.32-.34-17.02-.08-5.7-.31-11.42-.91-17.11-.33-2.83-.55-5.64-.65-8.47-.05-1.41-.06-2.82.01-4.22.04-.69.09-1.39.22-2.06.12-.68.3-1.37.45-2.06.69-2.73 1.64-5.39 2.96-7.86 1.36-2.45 3.09-4.69 5.19-6.55 2.09-1.86 4.49-3.41 6.99-4.67 2.51-1.23 5.24-2.02 7.99-2.63 5.52-1.15 11.21-1.55 16.83-1.46 5.62.17 11.28.81 16.68 2.19 2.7.69 5.33 1.6 7.71 2.91 2.43 1.34 4.72 2.89 6.7 4.76 4.02 3.71 6.38 8.86 7.71 14.27.73 2.59.72 5.42.74 8.24-.02 2.83-.18 5.62-.4 8.49-.68 11.42 0 22.8-.28 34.17-.21 5.61-1.03 11.23-2.84 16.53-1.8 5.31-4.6 10.23-8.11 14.54-.84 1.11-1.85 2.07-2.77 3.11-.45.53-1 .96-1.49 1.44-.49.45-.98.94-1.52 1.38z" fill="#c27b55" stroke-width="none" opacity="1" stroke="none"></path></g></g><g id="svga-group-mouth-single-move" transform="matrix(1,0,0,1,0,-3)"><g id="svga-group-mouth-single"><path id="SvgjsPath11283" d="M119.9 121.9c-.2-.3-.6-.6-.9-.8-.3-.1-.8-.1-.8.4 0 .3.2.6.5.8-.66 1.22-2.4 1.46-3.8 1.56-1.5.1-2.71.22-4.49-.17-3.42-.92-6.52-1.82-9.62-1.62-2.9.1-5.13.98-7.93 1.78-3.3.9-7.66 2.74-9.96-.66.3-.2.6-.4.8-.7.4-.4 0-1-.5-.9-1 .3-2.3 1.6-2.2 2.7 0 .2.3.4.5.3.4-.3.7-.7 1-1 .9 1.7 2.7 2.5 4.7 2.7 2 .1 3.9-.5 5.9-.9 2.2-.5 4.4-.7 6.6-.8 4.1-.1 8.1.2 12.2.4 2.4.1 5.7.4 7.5-1.5.1.3.2.6.5.8.1.1.3 0 .4-.1.7-.59 0-1.69-.4-2.29z" fill="#da7c87" stroke-width="none" opacity="1"></path><path id="SvgjsPath11284" d="M105.6 128.4c-3.4.2-6.6.7-10 .5-.3 0-.3.4-.1.4 3.2.7 7 .9 10.2-.2.4-.1.4-.7-.1-.7z" fill="#d19271" stroke-width="none" opacity="1"></path></g></g><g id="svga-group-eyes-left-move" transform="matrix(1,0,0,1,1,-2)"><g id="svga-group-eyes-left" transform="matrix(0.8999997000000001,0,0,0.8999997000000001,8.020023754823299,8.73002573223495)"><g id="svga-group-eyesback-left"><path id="SvgjsPath6151" d="M80.2 74.2c7.5 0 13.5 5.8 13.5 13s-6 13-13.5 13-13.5-5.8-13.5-13 6-13 13.5-13z" fill="#ffffff" stroke-width="none" opacity="1"></path></g><g id="svga-group-eyesiriswrapper-left" transform="matrix(1,0,0,1,0,0)"><g id="svga-group-eyesiriscontrol-left" transform="matrix(1,0,0,1,0,1)"><g id="svga-group-eyesiris-left" transform="matrix(1.0500001,0,0,1.0500001,-4.010007867411815,-4.3600085674118105)"><path id="SvgjsPath3795" d="M80.2 81.6c3.1 0 5.6 2.5 5.6 5.6s-2.5 5.6-5.6 5.6-5.6-2.5-5.6-5.6 2.5-5.6 5.6-5.6z" fill="#5c5d3e" stroke-width="none" opacity="1" stroke="none"></path><path id="SvgjsPath3796" d="M80.2 84.2c1.7 0 3 1.3 3 3s-1.3 3-3 3-3-1.3-3-3 1.3-3 3-3z" fill="#000000" stroke-width="none" opacity="1"></path><path id="SvgjsPath3797" d="m79.5 84.8-.6-.6c-.2-.2-.5-.3-.8-.3s-.6.1-.8.3c-.2.2-.3.5-.3.8s.1.6.3.8l.6.6c.2.2.5.3.7.3.3 0 .6-.1.7-.3.6-.6.6-1.2.2-1.6zm2.7 5.1c1 0 1-1.5 0-1.5-.9 0-.9 1.5 0 1.5z" fill="#ffffff" stroke-width="none" opacity="1"></path></g></g></g><g id="svga-group-eyesfront-left"><path id="SvgjsPath6159" d="M80.2 73.7c-7.8 0-14.1 6.1-14.1 13.6s6.3 13.6 14.1 13.6 14.1-6.1 14.1-13.6S88 73.7 80.2 73.7zm0 21.9c-5.5 0-10.7-2.8-10.8-3.7-.2-1 .9-4.2 3.2-6.8 2.4-2.6 8-3.5 12.8-1.5s5.9 8 5.9 8c.1 1.8-5.6 4-11.1 4z" fill="#f0c7b1" stroke-width="none" opacity="1" stroke="none"></path><path id="SvgjsPath6160" d="M89.4 86.9c.7 0 3.1 0 2.4-.2-1.2-.4-5.6-3.8-6.8-4.3s-5.5-1.3-6.2-1.3-7.1 2.8-7.7 3.2c-.6.4-2.2 6-2.6 6.3-.2.2.4.5.8.7 0 .1 0 .2-.1.3v.2c0 .1.1.2.1.3.1.2.2.3.3.4.2.2.5.4.7.6.5.3 1 .6 1.6.9 2.1 1 4.4 1.6 6.8 1.8 2.4.2 4.7-.1 7-.7 1.1-.3 2.2-.7 3.3-1.2.5-.3 1-.5 1.5-.9l.6-.6c.2-.2.3-.5.3-.8-.2-1.1-.7-2.2-1.2-3.3-.3-.4-.5-.9-.8-1.4zm1.6 5.5-.6.6c-.5.3-1 .6-1.5.8-1.1.4-2.2.8-3.3 1-2.2.4-4.6.7-6.8.5-2.3-.2-4.5-.8-6.6-1.7-.5-.2-1-.5-1.5-.8-.2-.2-.5-.3-.7-.5-.1-.1-.2-.2-.2-.3 0-.1 0-.1-.1-.1v-.2c0-.2 0-.4.1-.6.4-1 1.6-3.8 2.5-5 1.2-1.5 3.6-3.3 6.9-3.3 1.7 0 3.2.2 4.5.5.5.2 1.1.3 1.6.6 1.1.4 2 1.1 2.8 1.8 1.6 1.6 2.8 3.7 3.3 5.9-.1.3-.2.6-.4.8z" fill="#75431c" stroke-width="none" opacity="1" stroke="none"></path></g></g></g><g id="svga-group-eyes-right-move" transform="matrix(1,0,0,1,-1,-2)"><g id="svga-group-eyes-right" transform="matrix(0.8999997000000001,0,0,0.8999997000000001,11.98003662664756,8.73002573223495)"><g id="svga-group-eyesback-right"><path id="SvgjsPath6152" d="M119.8 74.2c7.5 0 13.5 5.8 13.5 13s-6 13-13.5 13-13.5-5.8-13.5-13 6-13 13.5-13z" fill="#ffffff" stroke-width="none" opacity="1"></path></g><g id="svga-group-eyesiriswrapper-right" transform="matrix(1,0,0,1,0,0)"><g id="svga-group-eyesiriscontrol-right" transform="matrix(1,0,0,1,0,1)"><g id="svga-group-eyesiris-right" transform="matrix(1.0500001,0,0,1.0500001,-5.990012132588205,-4.360008948882296)"><path id="SvgjsPath3798" d="M119.8 82.3c2.7 0 4.9 2.2 4.9 4.9s-2.2 4.9-4.9 4.9-4.9-2.2-4.9-4.9 2.2-4.9 4.9-4.9z" fill="#5c5d3e" stroke-width="none" opacity="1" stroke="none"></path><path id="SvgjsPath3799" d="M119.8 84.6c1.4 0 2.6 1.2 2.6 2.6s-1.2 2.6-2.6 2.6-2.6-1.2-2.6-2.6 1.2-2.6 2.6-2.6z" fill="#000000" stroke-width="none" opacity="1"></path><path id="SvgjsPath3800" d="M119.2 85.1c-.2-.2-.3-.4-.5-.5-.2-.2-.4-.3-.7-.3-.2 0-.5.1-.7.3-.2.2-.3.4-.3.7 0 .2.1.5.3.7.2.2.4.3.5.5.2.2.4.3.7.3.2 0 .5-.1.7-.3.3-.5.3-1.1 0-1.4zm2.4 4.5c.8 0 .9-1.3 0-1.3-.8-.1-.8 1.3 0 1.3z" fill="#ffffff" stroke-width="none" opacity="1"></path></g></g></g><g id="svga-group-eyesfront-right"><path id="SvgjsPath6161" d="M119.8 73.7c-7.8 0-14.1 6.1-14.1 13.6s6.3 13.6 14.1 13.6 14.1-6.1 14.1-13.6-6.3-13.6-14.1-13.6zm.3 20.6c-5.5 0-11.3-1.9-11.1-3.4 0 0 1.2-5.1 5.9-6.9s9.6-.7 12 1.5c2.4 2.3 4.2 4.8 4 5.6-.1.8-5.3 3.2-10.8 3.2z" fill="#f0c7b1" stroke-width="none" opacity="1" stroke="none"></path><path id="SvgjsPath6164" d="M131.9 90c-.3-.3-3.5-4-4.1-4.3s-4-3.2-4.8-3.2-6.4 0-7.6.4-4.2 2.8-4.7 3.4c-.3.4.2.2.7 0-.4.5-.8 1-1.1 1.5-.6 1-1 2-1.3 3 0 .3.1.6.3.8.2.2.4.4.7.5.5.3 1 .5 1.5.8 1 .4 2.1.8 3.2 1 2.2.5 4.4.8 6.6.7 2.2-.1 4.4-.6 6.5-1.3 1-.4 2.1-.8 3-1.5l.3-.3c.1-.1.1-.2.1-.3v-.3c0-.1 0-.1-.1-.2.4-.2 1-.4.8-.7zm-1.2 1.1c-.1.1-.1.2-.2.2-.8.6-1.9 1-2.9 1.4-2.1.7-4.2 1.1-6.4 1.3-2.2.1-4.3-.1-6.5-.4-1.1-.2-2.1-.4-3.2-.8-.5-.2-1-.4-1.5-.7-.2-.1-.5-.3-.7-.5-.2-.2-.3-.4-.3-.7.6-2.1 1.9-4 3.6-5.3.9-.7 1.8-1.1 2.8-1.5.9-.3 1.7-.5 2.6-.6.2 0 .5-.1.7-.1h.7c1.8-.1 3.7.2 5.3.9 1.3.8 2.3 1.8 2.9 2.5.9 1 2.3 2.9 2.8 3.7.1.2.1.3.1.5.2-.1.2 0 .2.1z" fill="#75431c" stroke-width="none" opacity="1" stroke="none"></path></g></g></g><g id="svga-group-facehighlight-single"></g><g id="svga-group-eyebrows-left-move" transform="matrix(1,0,0,1,3,4)"><g id="svga-group-eyebrows-left-rotate" transform="matrix(0.9914448609181878,0.13052619568084692,-0.13052619568084692,0.9914448609181878,9.986307331769723,-9.708565044460457)"><g id="svga-group-eyebrows-left" transform="matrix(1.0500001,0,0,1.0500001,-3.9527674575210625,-3.566333083274472)"><path id="SvgjsPath7149" d="M70.6 73.3s14.8.81 17.93.06c0 0 .82-2.14-.31-3.91s-19.1 2.72-19.1 2.72.24.93 1.48 1.13z" fill="#a68469" stroke-width="none" opacity="1" stroke="none"></path><path id="SvgjsPath7150" d="M88.99 71.22c-.04-.43-.13-.85-.27-1.24-.08-.18-.15-.38-.25-.53-.05-.08-.08-.16-.15-.25-.09-.12-.16-.16-.23-.21-.27-.15-.51-.19-.75-.22s-.47-.05-.7-.05c-.47-.01-.92.02-1.38.05-1.83.16-3.63.49-5.43.86-1.8.37-3.58.78-5.37 1.22l-5.35 1.33h-.01v.01c.07.21.18.38.3.51.12.14.25.24.38.32.13.09.27.14.4.19.14.05.27.08.41.1-.14-.03-.27-.06-.41-.11-.14-.05-.27-.11-.4-.2-.13-.08-.26-.19-.38-.32-.11-.13-.22-.3-.29-.5.89-.22 1.78-.42 2.68-.61.9-.2 1.79-.38 2.69-.55 1.8-.35 3.6-.67 5.4-.95.9-.14 1.81-.27 2.71-.38.9-.12 1.81-.21 2.72-.27.45-.03.91-.05 1.36-.04.23 0 .45.02.68.05.22.03.45.08.63.18.04.03.08.06.09.07.03.04.07.12.11.18.08.12.13.28.2.42.11.3.18.62.21.96.06.63-.04 1.29-.21 1.83-.33.06-.66.13-1 .16l-.55.06-.56.04c-.74.05-1.48.09-2.23.12-1.49.06-2.98.07-4.48.08-1.49 0-2.99 0-4.49-.04-1.5-.03-3-.1-4.49-.17l9 .47c1.5.06 3 .12 4.49.14 1.5.01 2.99.03 4.49-.23l.08-.01.04-.11c.13-.36.21-.71.26-1.1.07-.41.09-.83.05-1.26z" fill="#976f50" stroke-width="none" opacity="1" stroke="none"></path></g></g></g><g id="svga-group-eyebrows-right-move" transform="matrix(1,0,0,1,-3,4)"><g id="svga-group-eyebrows-right-rotate" transform="matrix(0.9914448613738103,-0.1305261922200516,0.1305261922200516,0.9914448613738103,-8.139790940679191,16.50645227358153)"><g id="svga-group-eyebrows-right" transform="matrix(1.0500001,0,0,1.0500001,-6.092512299441154,-3.5173986210868975)"><path id="SvgjsPath7151" d="M129.93 70.64s-13.82 1.75-16.83 1.43c0 0-.98-1.53-.09-2.95.89-1.41 18.2.55 18.2.55s-.14.72-1.28.97z" fill="#a68469" stroke-width="none" opacity="1" stroke="none"></path><path id="SvgjsPath7152" d="m131.22 69.67-5.15-.58c-1.72-.19-3.44-.36-5.16-.49-1.72-.14-3.45-.25-5.18-.22-.43.01-.87.03-1.3.07-.22.02-.44.05-.66.09-.22.05-.44.09-.68.22-.06.04-.12.08-.19.17-.05.08-.08.13-.11.2-.08.12-.12.28-.18.42-.09.3-.14.63-.14.95a3.593 3.593 0 0 0 .5 1.72l.05.08h.07c1.43.07 2.83-.05 4.24-.18 1.4-.13 2.81-.29 4.21-.45l8.4-1.05c-1.4.17-2.8.33-4.2.47-1.4.15-2.81.26-4.21.38-1.4.11-2.81.22-4.21.29-.7.04-1.4.07-2.1.09l-.53.02h-.52c-.32.01-.64-.02-.96-.04-.21-.39-.37-.88-.37-1.35 0-.25.03-.5.11-.73.05-.11.08-.23.15-.33.03-.05.06-.12.08-.14.01-.01.04-.04.08-.06.16-.09.37-.15.58-.19.21-.04.42-.07.63-.09.42-.05.85-.06 1.28-.08.86-.03 1.72-.02 2.58-.01.86.02 1.72.04 2.58.08 1.72.07 3.45.17 5.17.29.86.06 1.72.12 2.58.2.86.07 1.72.16 2.57.25-.04.16-.13.29-.22.39-.1.11-.21.2-.32.27-.11.08-.24.13-.36.18-.12.05-.25.08-.37.11.13-.03.25-.06.37-.11s.24-.1.36-.18c.12-.07.23-.16.33-.27.06-.09.15-.22.2-.39z" fill="#976f50" stroke-width="none" opacity="1" stroke="none"></path></g></g></g><g id="svga-group-beardwrap" transform="matrix(1.0200001,0,0,1.0001001,0,0)"><g id="svga-group-beard-single-move" transform="matrix(1,0,0,1,0,0)"><g id="svga-group-beard-single"></g></g></g><g id="svga-group-mustache-single-move" transform="matrix(1,0,0,1,0,0)"><g id="svga-group-mustache-single"></g></g><g id="svga-group-nose-single-move" transform="matrix(1,0,0,1,0,0)"><g id="svga-group-nose-single" transform="matrix(0.9499997000000001,0,0,0.9499997000000001,5.0168492918941325,5.236698671590418)"><path id="SvgjsPath11080" d="M109.5 107.91c-1.24.49-2.69.36-3.82.07s-2.48.69-2.95 1.13c-.47.44-1.71 1.71-3.93.91-2.22-.8-2.15-1.57-3.35-1.86-1.2-.29-2.07.66-3.42.29-1.35-.36-1.97-1.38-1.86-2.8.11-1.42.82-3.92 1.48-4.96s10.31-4.3 17.37.43c0 0 1.49 2.39 1.46 4.32s-.14 2.14-.98 2.47z" fill="#f0c7b1" stroke-width="none" opacity="1"></path><path id="SvgjsPath11081" d="M91.66 100.69c-.5 1.38-.97 2.79-1.14 4.22-.08.7-.12 1.45.12 2.05l.09.22c.04.07.09.13.13.2.04.07.09.13.15.19.06.05.1.12.16.16.23.21.53.32.83.39.63.13 1.33.02 2.02-.13l.53-.12.28-.06.15-.03.18-.02c.49-.03.91.14 1.27.31.73.36 1.3.86 1.88 1.29l.21.16c.07.04.12.08.19.12.13.07.27.13.42.17.3.09.63.13.95.12.64-.01 1.28-.21 1.77-.6l.17-.16.21-.2c.14-.13.29-.26.45-.38.31-.24.64-.46 1.01-.64.36-.17.75-.31 1.17-.37a2.43 2.43 0 0 1 1 .07l.29.11c.25.1.61.15.95.17.34.02.69.01 1.04-.03.68-.08 1.4-.27 1.8-.7.19-.19.27-.52.31-.86.04-.34.03-.69-.01-1.05-.14-1.43-.62-2.84-1.24-4.17.8 1.24 1.38 2.63 1.68 4.11.07.37.1.76.09 1.15-.02.39-.08.82-.37 1.2-.28.35-.66.56-1.03.71-.37.15-.75.24-1.14.31-.38.07-.77.09-1.16.09-.4-.01-.78-.04-1.22-.19l-.22-.08c-.07-.01-.13-.03-.2-.03-.14-.02-.29 0-.44.02-.3.05-.61.17-.91.32-.29.16-.58.34-.85.56-.13.11-.26.22-.39.34l-.19.18-.24.21c-.66.54-1.5.8-2.32.82-.41.01-.83-.05-1.23-.17-.2-.06-.4-.15-.59-.25-.09-.05-.19-.12-.28-.18l-.23-.17c-.59-.45-1.15-.92-1.73-1.23-.29-.15-.59-.26-.84-.25h-.09l-.12.02-.26.05-.55.11c-.74.14-1.54.25-2.35.04-.4-.11-.8-.29-1.11-.6-.3-.31-.55-.64-.66-1.06-.25-.8-.14-1.58 0-2.32.16-.74.39-1.45.66-2.14.29-.68.6-1.35.95-2z" fill="#c27b55" stroke-width="none" opacity="1"></path><path id="SvgjsPath11082" d="M102.11 103.91c-.52-.52-1.24-.61-1.94-.46-.09.02-.17.04-.25.06-.29-.19-.59-.32-.98-.32-.43 0-.95.19-1.25.52-.67.73-.68 1.78 0 2.5 1.14 1.22 3.69 1.57 4.66-.08.4-.68.33-1.65-.24-2.22z" fill="#f8d5c3" stroke-width="none" opacity="1"></path></g></g><g id="svga-group-hair-front" transform="matrix(1.0200001,0,0,1.0001001,-2.00912755352212,-0.005382877461819646)"><path id="SvgjsPath11397" d="M98.1 20.4s-7.2-5.9-16.9-6.4l1.7 3s-14.6-.6-27.6 11.1l3.6 2.2s-9.5 8.5-11 21c-1.4 12.5-.5 24.1-.5 24.1s4.5-1.4 5.8-2.7l1.6-4.4 3.3 10.3 5.9 5.5s-2-8.5-1.7-14.6c.3-6.1.6-7.8.6-7.8l.6 4.5s1.2 4.1 5 5.5c0 0-1.7-12.1.5-17.7 0 0 0 8.8 2.7 11.6 0 0 2.3-1.6 3.1-3s1.7-5.2 2.5-7.7 3.1-9.4 5.5-11.7c2.3-2.3 5-5.2 5-5.2s6.7 2 9.4 5.6c0 0 4.1-2.5 7.2-3.6 3.1-1.1 7.4-2.3 7.4-2.3s5.2 7.4 6.6 12.1 2.7 11 2.7 12.5.2 3 .2 3 2.5-1.1 3.8-2.7c0 0 3.4-.5 5.2-2 1.7-1.6 3.9-4.4 3.4-13.6 0 0 1.2.6 2 5.8s1.7 14.2.6 19.1c0 0 1.4-.3 3.1-1.7 0 0-1.2 9.7 0 13.6 0 0 2.5-4.5 4.2-6.7s3.1-6.3 3.1-6.3l1.1-5.2 4.4-.2s-.2-7.8-1.1-11.1c-.9-3.3-2.8-13.8-7.1-19.9s-11.9-10.3-13-11-14.9-7.2-27.7-3.1c0 0 6.3-5 15.8-3s10.8 5.2 10.8 5.2l2.2.9 1.6-.5s-4.5-6.7-12.8-8.3-17.3.4-22.8 5.8z" fill="#8b7965" stroke-width="none" opacity="1"></path><path id="SvgjsPath11398" d="M87.3 38.1c-3.6 2.7-6.3 6.4-8.2 10.5-2.1 4.6-2.3 9.7-4.8 13.8 1-4.6 1.8-9.2 3.1-13.7 1.4-4.9 2.7-11.2 6.8-14.6.3-.2-.1-.6-.3-.5-4 1.9-5.1 7.6-6.2 11.4-1.8 5.9-3.4 12.1-3.8 18.2-.5.7-1.1 1.4-1.9 2.1v.1c-.5-1.9-1.1-3.8-1.4-5.7-.4-2.5-.5-4.9-.7-7.3.2-1.5.5-3 .9-4.5 0-.2-.2-.3-.3-.1-.5 1.4-.8 2.9-1.2 4.3V52.4c-.8 3.4-1.2 6.9-1.3 10.5 0 1 .7 7.9.4 8-1 .5-3.7-3.4-4.3-4.3-.2-.2-.5 0-.3.2 1.3 2.6 2.8 4.3 5.1 6.2.4.3.8 0 .8-.4-.8-5.2-.8-10.2-.3-15.3.3 3.2 1.2 6.5 2.6 9.2.1.2.4.1.4-.2 0-.1-.1-.2-.1-.3.1.1.2.1.3 0 3.7-2.5 4.6-6.5 5.6-10.7 1.7-6.8 4.9-11.8 9.8-16.7-.1-.3-.4-.7-.7-.5zm-4.6-21.3c.2.2.6 0 .4-.3-.4-.7-.8-1.3-1.3-1.9 6.1.8 11.1 3.1 16.3 6.3.3.2.6-.2.4-.5-4.9-4.4-11.5-6.4-17.9-7-.5-.1-.6.6-.4.9.8.9 1.5 1.7 2.5 2.5zM54.6 29.2c1.1.4 2.2.6 3.4.8.4.1.6-.5.2-.7-3.9-1.4.3-3.2 2.4-4.6 2-1.3 4.1-2.5 6.2-3.5 4.9-2.2 9.9-3.1 15.1-4 .3 0 .2-.5-.1-.5-10.2-.1-19.9 5.1-27.5 11.6-.2.3-.1.8.3.9zm8.2 36.6c.1-.2.3-.4.4-.6l.3.9c.1.4.7.2.6-.2-.3-1.7-.6-3.4-.5-5.2 0-.4-.7-.5-.8-.1-1.3 7.6-1.1 15.3 1.1 22.7-.7-.8-1.4-1.4-2.2-2.2-.9-.9-1.8-1.9-2.9-2.7-.1-.1-.3-.1-.4 0-1-3.5-2.2-6.9-3.3-10.4-.1-.3-.5-.3-.6 0-.4 1.4-.9 2.8-1.2 4.2-.1 0-.3 0-.4.1-1.3 1.2-4.3 3.9-5.3 1.9-.3-.7-.1-2.3-.2-3.1-.1-2.3-.2-4.6-.2-6.9 0-5.4.5-10.8 1.8-16C52.7 34 62.6 26.1 76.1 21.6c.2-.1.1-.4-.1-.3-12.4 2.5-22.5 11-26.7 22.9-3.6 10.1-3.2 21-2.7 31.5 0 .3.3.5.6.5 2.5-.5 4.3-1.4 6.2-3.1.2-.2.2-.4.1-.5.4-1.1.8-2.2 1.1-3.3 1 3.3 1.9 6.7 3 10 .1.3.5.3.7.1.7.9 1.6 1.7 2.4 2.5.9.9 1.8 1.9 2.8 2.7.1.1.3.1.4 0 .1.2.4.1.4-.2-1.2-5-2.1-10-2-15.2.3-1.1.4-2.3.5-3.4zm69.4-42.1c.6 0 1.2-.1 1.7-.1s.7-.6.4-.9c-9.4-10.7-25.2-12.2-36-2.6-.2.1.1.4.2.3 5.5-3.9 11.9-6.3 18.7-5.7 3.5.3 6.9 1.5 9.9 3.3 1.5.9 3.4 1.9 4.4 3.4.9 1.4 1.1 1.4-.1 1.5-.1-.1-.2-.1-.3-.2-7.6-7.3-19.4-8.2-28.2-2.4-.2.1 0 .4.2.3 8.6-4.7 17.3-4.3 25 .9-7.7-2.9-16.7-2.8-24.5-1-.2.1-.1.4.1.4 9.5-1.7 17.5-.3 26.4 2.4-.1.2.1.6.4.6h1.3c-.1.1-.1.2 0 .3 8.1 5.1 13.5 11.9 16.5 21 1.6 5 2.5 10.1 3.1 15.3.2 1.4.7 3.1.1 4.3.2-.5-2.4.8-3.1 1.2-.2.2 0 .7.3.6h3.7c.3.1.7-.2.7-.5-1.7-15.8-4.7-35.3-20.9-42.4zm16.1 42.2c1.1-6.7.4-14-2.7-19.9-.1-.2-.5-.1-.4.2 2.3 8.8 3.2 16.4 1.1 25.3-2.5 3.6-4.5 7.6-6.7 11.3-.5-4.2-.3-8.2.3-12.4 3.4-2.8 5.8-6.5 5.9-11.2 0-.4-.6-.5-.6-.1-.4 2.2-1.1 4.4-2.2 6.3-.2.3-1.5 1.9-2.8 3.4-.1-.2-.5-.3-.6 0-.1.3-.1.5-.2.8-1.1 1.1-2.1 1.9-2.4 1.6-.6-.6.1-3.1.1-3.9.2-2.3.2-4.5.1-6.8-.3-8.1-2.4-16.2-6.4-23.2-.2-.3-.5 0-.4.2.1.2.1.4.2.5v.1c1.3 4.3 2.6 8.4 2.6 12.9 0 2.8-.2 6.5-2.3 8.6-1.4 1.4-3.4 2-5.4 2.6 2.1-3.4 2.1-8 1.2-12.1 0-.2-.2-.2-.3-.2 0-6.3-4.8-13.8-10.4-16.6-.1 0-.2 0-.3.1-6.6 1.6-13.2 5.1-18.1 9.9-2.4-2.4-5.7-4.7-9.1-5.2-.5-.1-.6.5-.2.7 3.4 1.4 6.3 2.7 8.9 5.2.3.3.6 0 .7-.2 2.3-1.4 4.8-2.5 7.3-3.4 1.2-.4 2.4-.8 3.7-1.2.8-.3 2.3-.9 3.1-.9v.2c5 8.6 8.4 16.7 8.8 26.8 0 .4.4.6.8.4 1.5-.7 2.7-1.7 3.5-2.9 4.5-.9 7.8-2.5 8.7-7.5.4-2.4.5-5 .3-7.6 2.2 7.9 2.8 16 1.3 24.5-.1.5.4.8.8.6 1-.5 2-1.1 2.9-1.8-.9 4.4-.8 8.9-.1 13.3.1.4.7.4.9.1 2.6-4.4 5.5-8.7 7.6-13.4.1-.2 0-.4-.2-.5.3-1.4.7-3 1-4.6 0 0 .1 0 .2-.1l.1-.1c-.2.1-.3.1-.3.2zm-26.4-2c-1.1-1.4-1.1-7-1.6-8.8-1.5-6-4-12.1-8-16.9.2-.3.2-.8-.3-.9-.8-.1-.9 0-1.6.2-1.7.5-3.5 1.3-5.2 1.9-1.3.5-2.6 1.1-3.8 1.7 4.4-3 8.9-5.1 14.4-6.7.1 0 .2-.1.2-.2 2.4 2.1 4.6 4 6.3 6.8 1.8 2.9 2.5 6 3.3 9.3 0 .1.1.2.3.2 0 2.2.3 4.5 0 6.7-.1.6-.9 3.6-1.8 5.5h-.1c-.2 0-.2.2-.1.3-.6 1.1-1.4 1.8-2 .9zM86.2 33.6c-.2-.1-.3.2-.1.3 3.2 1.3 5.7 3.3 8.3 5.4.2.2.6-.1.4-.3-2.1-2.8-5.4-4.5-8.6-5.4zm-26.6 4.8c-5 6.1-7.4 15.2-7.2 23.1-.7.2-1.4.5-2 .9.5-9.8 3.6-18.4 9-26.5.1-.2-.2-.4-.3-.2-5.9 7.8-8.9 17.1-9.4 26.8 0 .3.3.4.5.3.1.1.2.2.3.1.7-.2 1.5-.5 2.1-.8.2.1.4 0 .4-.2v-.2c.7-8.7 3.1-15.2 6.9-23 .1-.3-.1-.5-.3-.3z" fill="#7c664e" stroke-width="none" opacity="1"></path></g><g id="svga-group-glasses-single-move" transform="matrix(1,0,0,1,0,-1)"><g id="svga-group-glasses-single" transform="matrix(1.1000003000000003,0,0,1.1000003000000003,-10.005030701647598,-9.060027408882547)"><path id="SvgjsPath8207" d="M95.6 87.5s.3-2.2-3.6-3.5c-3.1-1-6.2-1.2-8.8-1.2s-10.8-.1-12.9.1-5.2.4-6 3.4c-.8 3 1 7.8 5.2 10.2 4.2 2.3 12.5 2.5 17.8 1 5.3-1.5 7.8-5.1 8.3-10z" fill="#ffffff" stroke-width="none" opacity="0.44"></path><path id="SvgjsPath8208" d="M104.4 87.5s-.2-2.2 3.8-3.5c3.1-1 6.3-1.2 8.9-1.2s10.9-.1 13 .1c2.1.2 5.2.4 5.9 3.4.6 3-1.4 7.9-5.7 10.3-4.3 2.3-12.6 2.5-17.9 1-5.4-1.6-7.7-5.2-8-10.1z" fill="#ffffff" stroke-width="none" opacity="0.44"></path><path id="SvgjsPath8209" d="M95.6 86.9s3.8-1.7 8.8 0v1s-5.4-1-8.9 0l.1-1z" fill="#06041f" stroke-width="none" opacity="1" stroke="none"></path><path id="SvgjsPath8210" d="M79.5 98.9c-4.1 0-7.8-.7-10.1-2-3.8-2.1-5.6-6.2-5.6-9v-.1h-2.5l-.2-2.1h3.1v-.1c1.1-2.6 4-2.8 5.9-3h.2c.9-.1 2.9-.1 6.3-.1H83.2c2.5 0 5.8.1 8.9 1.2 4.1 1.4 3.9 3.7 3.9 3.9-.6 5.4-3.5 8.9-8.6 10.4-2.2.6-5.1.9-7.9.9zm-2.9-15.7c-3.4 0-5.4 0-6.3.1h-.2c-2.1.2-4.8.4-5.5 3.1-.8 3 1.1 7.6 5 9.8 2.2 1.2 5.7 1.9 9.7 1.9 2.8 0 5.6-.3 7.8-1 4.9-1.4 7.5-4.6 8.1-9.8 0-.2.1-2-3.4-3.1-3-1-6.2-1.1-8.7-1.1h-2.3c-1.2.1-2.7.1-4.2.1zm43.5 15.7c-2.9 0-5.7-.4-7.9-1-5.1-1.5-7.8-4.9-8.2-10.4 0-.3-.1-2.6 4.1-3.9 3.2-1 6.5-1.2 9-1.2h6.7c3.4 0 5.4 0 6.3.1h.2c1.9.2 4.8.4 5.8 3v.1h3.1l-.3 2.1h-2.5v.1c-.2 2.9-2.1 6.9-6 9.1-2.4 1.3-6.2 2-10.3 2zm3.6-15.8h-6.6c-2.4 0-5.7.1-8.7 1.1-3.5 1.2-3.5 2.9-3.5 3.1.3 5.2 2.8 8.4 7.6 9.8 2.1.6 4.9 1 7.7 1 4 0 7.6-.7 9.8-1.9 4.1-2.2 6.1-6.9 5.5-9.8-.6-2.7-3.2-2.9-5.4-3.2h-.2c-.8 0-2.9-.1-6.2-.1z" fill="#18143e" stroke-width="none" opacity="1" stroke="none"></path><path id="SvgjsPath8211" d="M76.5 82.5h6.7c2.5 0 5.8.1 8.9 1.2 4 1.3 3.8 3.6 3.8 3.8-.6 5.4-3.4 8.8-8.5 10.3-2.2.7-5.1 1-7.9 1-4.1 0-7.8-.7-10-2-3.7-2.1-5.5-6.1-5.5-8.9v-.3h-2.5l-.2-1.8H64.2l.1-.1c1-2.5 3.9-2.8 5.8-2.9h.2c.8-.2 2.9-.3 6.2-.3m2.9 15.8c2.8 0 5.6-.3 7.8-1 4.9-1.4 7.6-4.6 8.2-9.9 0-.2.1-2.1-3.5-3.2-3-1-6.2-1.1-8.7-1.1H76.6c-3.4 0-5.4 0-6.3.1h-.2c-2.1.2-4.9.5-5.6 3.2-.8 3 1.1 7.7 5.1 9.9 2.2 1.3 5.8 2 9.8 2m-2.9-16c-2.7 0-5.2 0-6.3.1H70c-2 .2-4.9.5-6 3.1h-3.1l.2 2.3h2.5c0 3.2 2 7.1 5.7 9.1 2.5 1.4 6.4 2.1 10.2 2.1 2.9 0 5.7-.4 8-1 5.2-1.5 8.1-5 8.7-10.5 0-.3.2-2.7-4-4.1-3.1-1.1-6.4-1.2-9-1.2H81c-1.3.1-2.9.1-4.5.1zm2.9 15.8c-3.6 0-7.3-.6-9.7-1.9-3.9-2.2-5.7-6.8-5-9.7.7-2.6 3.3-2.9 5.4-3.1h.2c1-.1 3.6-.1 6.2-.1H83.1c2.4 0 5.6.1 8.6 1.1 3.4 1.1 3.3 2.9 3.3 3-.5 5.1-3.1 8.3-8 9.7-2 .6-4.8 1-7.6 1zm44.4-15.9v.3c3.4 0 5.4 0 6.3.1h.2c1.9.2 4.7.4 5.7 2.9l.1.1h3.1l-.3 1.8h-2.5v.3c-.2 2.8-2.1 6.8-6 8.9-2.3 1.3-6.1 2-10.2 2-2.9 0-5.7-.4-7.9-1-5-1.5-7.8-4.9-8.1-10.3 0-.2-.1-2.5 4-3.8 3.2-1 6.4-1.2 8.9-1.2H123.8v-.1m-3.6 16.1c4 0 7.7-.7 9.9-1.9 4.1-2.3 6.2-7 5.6-10-.6-2.8-3.4-3-5.5-3.2h-.2c-.9-.1-2.9-.1-6.3-.1H117c-2.5 0-5.7.1-8.8 1.1-3.6 1.2-3.6 3.1-3.6 3.3.3 5.2 2.8 8.4 7.7 9.9 2.3.6 5 .9 7.9.9m3.6-16.1h-6.7c-2.5 0-5.8.1-9.1 1.2-4.3 1.4-4.2 3.8-4.2 4.1.3 5.5 3.1 9 8.2 10.5 2.2.7 5.1 1 8 1 3.8 0 7.7-.6 10.3-2.1 3.7-2.1 5.9-6 6.1-9.2h2.5l.3-2.4h-3.1c-1-2.6-3.9-2.9-5.9-3.1h-6.4zm-3.6 15.9c-2.8 0-5.6-.3-7.7-1-4.8-1.4-7.3-4.5-7.6-9.7 0-.1-.1-1.8 3.4-3 3-1 6.2-1.1 8.7-1.1H123.6c2.6 0 5.2 0 6.3.1h.2c2.1.2 4.7.4 5.3 3.1.6 2.9-1.4 7.5-5.4 9.7-2.5 1.3-6.2 1.9-9.8 1.9z" fill="#06041f" stroke-width="none" opacity="1" stroke="none"></path></g></g></g></g></g><rect id="svga-credit-rect" width="200" height="15" x="0" y="185" fill="#ecf0f1" opacity="0.5" style="display: none;"></rect><text id="svga-credit-text" font-family="Avenir Next, Roboto, Helvetica, Arial, sans-serif" font-size="10px" text-anchor="start" font-weight="400" size="10px" anchor="start" weight="400" fill="#333333" x="33.43669891357422" y="182.60824704170227" style="display: none;"><tspan id="SvgjsTspan3640" dy="13" x="33.43669891357422">Created on AvatarMaker.com</tspan></text></g><defs id="SvgjsDefs3587"><linearGradient id="SvgjsLinearGradient6194" x1="100.0394" y1="79.6722" x2="100.0394" y2="122.2396" gradientUnits="userSpaceOnUse" class="svga-on-canvas-nose-gradient-single-0-null"><stop id="SvgjsStop6195" stop-opacity="0" stop-color="#ffe4d6" offset="0" ></stop><stop id="SvgjsStop6196" stop-opacity="0.9727" stop-color="#f0c7b1" offset="0.7584" ></stop><stop id="SvgjsStop6197" stop-opacity="0.9769" stop-color="#e8b9a0" offset="0.7953" ></stop><stop id="SvgjsStop6198" stop-opacity="0.9852" stop-color="#e1ac8f" offset="0.8691" ></stop><stop id="SvgjsStop6199" stop-opacity="0.9968" stop-color="#d19271" offset="0.972" ></stop><stop id="SvgjsStop6200" stop-opacity="1" stop-color="#c27b55" offset="1" ></stop></linearGradient><linearGradient id="SvgjsLinearGradient6224" x1="100.2671" y1="81.0612" x2="100.2671" y2="115.12" gradientUnits="userSpaceOnUse" class="svga-on-canvas-nose-gradient-single-0-null"><stop id="SvgjsStop6225" stop-opacity="0" stop-color="#e8b9a0" offset="0" ></stop><stop id="SvgjsStop6226" stop-opacity="1" stop-color="#d19271" offset="1" ></stop></linearGradient><linearGradient id="SvgjsLinearGradient6353" x1="99.7642" y1="100.53" x2="99.7642" y2="113.2523" gradientUnits="userSpaceOnUse" class="svga-on-canvas-nose-gradient-single-0-null"><stop id="SvgjsStop6354" stop-opacity="0" stop-color="#f0c7b1" offset="0" ></stop><stop id="SvgjsStop6355" stop-opacity="1" stop-color="#e8b9a0" offset="1" ></stop></linearGradient><linearGradient id="SvgjsLinearGradient6400" x1="100.2671" y1="81.0612" x2="100.2671" y2="115.12" gradientUnits="userSpaceOnUse" class="svga-on-canvas-nose-gradient-single-0-null"><stop id="SvgjsStop6401" stop-opacity="0" stop-color="#e8b9a0" offset="0" ></stop><stop id="SvgjsStop6402" stop-opacity="1" stop-color="#d19271" offset="1" ></stop></linearGradient><linearGradient id="SvgjsLinearGradient11048" x1="99.7642" y1="100.53" x2="99.7642" y2="113.2523" gradientUnits="userSpaceOnUse" class="svga-on-canvas-nose-gradient-single-0-null"><stop id="SvgjsStop11049" stop-opacity="0" stop-color="#f0c7b1" offset="0" ></stop><stop id="SvgjsStop11050" stop-opacity="1" stop-color="#e8b9a0" offset="1" ></stop></linearGradient></defs></svg>