<svg xmlns="http://www.w3.org/2000/svg" version="1.1" width="600px" height="600px" viewBox="0 0 200 200" style="overflow:hidden!important;"><g id="svga-group-wrapper"><g id="svga-group-backs-single"><path id="SvgjsPath3372" d="M0 0h200v200H0V0z" fill="#cfbae8" stroke-width="none" opacity="1" stroke="none"></path></g><g id="svga-group-humanwrap-move" transform="matrix(1,0,0,1,0,0)"><g id="svga-group-humanwrap"><g id="svga-group-hair-back-move" transform="matrix(1,0,0,1,0,0)"><g id="svga-group-hair-back"><path id="SvgjsPath8409" d="M171 148.7c.2 5.7 2.3 13.4-2.7 17.6-4.7 4-12.1 1.8-17.5 1.3-.6-.1-1.6-.1-2.4 0 1.1-.6 2.1-1.4 3-2.4 4-4.4 1.7-9.1-2.3-12 0-.5 0-1.1-.1-1.6 1.9-.2 3.7-.5 5.6-.8 4.9-.8 3.6-8.6-1.1-8.5-2.4 0-4.8.1-7.1.1 1.1-1.8 1-4.4-.3-6.2 1.8-10.1 2.5-20.4 1.6-30.6-.4-4-.2-9.7-4.2-12.1-4.1-2.5-11.4-1.3-16.1-1.4-23.7-.6-47.4-1.4-71.2-2.1-2.6-.1-5.5 2.5-5.2 5.2 1.2 9.3 2.3 18.6 3.6 27.8.6 4.4 1.3 8.8 2.1 13.2.5 3.2.7 7.5 3.4 9.7-1.3 0-2.6.1-3.9.4-2.2.5-3.7 3.2-3 5.3.5 1.7 1.6 2.8 2.9 3.6-1.5.7-2.2 3.1-.3 4.1-1.1.3-2 1.1-2 2.5 0 1 .2 2 .5 2.9-.9.3-2.2.2-3.1.2-2.7-.1-5.5-.6-8.2-.8-1.1-.1-2.4-.3-3.4.3-1.3.8-1.5 2.5-2.2 3.8-3.9 2-5.7.2-4.7 5.6 0 .1.3.1.3 0 0-3.6 2.6-2.9 4.8-3.4.3-.2.7-.5 1-.8 1-1.3 2.5-2 4.6-1.9 1.4.1 2.8.8 4.2.9 2.4.2 5.7-.3 7.4-2 1.1 2.1 2.8 3.9 4.8 5.1h-.2c-5.6-.4-1.9 1.7-5.2 4.6-.2.2 0 .7.3.6 1.8-.6.5-.1 2-1.3.4-.3.1-1.3.4-1.5 2.1-1.5 6.9.7 9.5.4 2.8-.3 5.2-1.7 7.2-3.6.7-.5 1.4-1 2-1.6 1 .6 2.1 1 3.2 1.2 1.7 1.8 4.1 2.7 6.9 2.9 2.6.2 5.3-.1 7.9-.7 1.4-.4 2.8-.8 4.1-1.4 1.4-.6 1.9-.9 2.9-.7 1.9.4 3.5 1.8 5.6 2 2 .3 4.1.1 6.1-.5 2.1-.6 4.1-1.8 5.7-3.3.7-.7 1.4-1.5 1.9-2.3 0-.1.1-.1.1-.2h.1c2.1 1 4 2.5 6.8 2.4.8 0 1.5-.1 2.2-.3.1.1.2.3.3.4.1.1.2.3.3.4.1.1.2.2.3.4l.2.2c.1.1.2.1.3.2l.2.2c.9.7 2.7 1.7 3.8 1 1.2.4 2.4.5 3.7.2.5-.1.5-.9 0-1-1.7-.4-3.4-.5-5-1.5-.2-.1-.4-.3-.6-.5-.1-.4-.3-.8-.3-1.2l.6-.3c3.8 2.1 8.5 2.9 12.7 1.7-.1.1-.2.3-.3.5-1.1 2.4 3.2 3.6 1.4 6.2-.4.6.4 1.1.9.7 1-.8 1.6-1.6 1.6-2.9 0-.7-1.2-2.2-1.2-2.5.2-1.9 7-.1 8.6.1 2.2.2 4.5.1 6.7-.3 3.3-.7 7.7-2.2 9.4-5.4 2.2-4.4.2-11.7-.7-16.3-.3-.7-1.2-.6-1.2 0zm16.6-7.1c-.1-.6-.9-.8-1.1-.1-4.2 1.3-6.2.4-5.9-2.4-.1-.6-.2-1.1-.4-1.7-.2-.5-.5-1-.9-1.4-.7-.8-1.7-1.1-2.5-1.8-.5-.3-1-.6-1.5-.8-2.1-2.4-2.7-4.9-1.6-7.4 1-4 4.3-8.8-.3-11.8-.5-.3-.9.4-.6.8 4.1 4.7-3 10.9-1.7 16.2.3 1.4 1 2.4 2 3.3.6.6 1.4.8 2 1.3 2.1 1.7 2.7 3.7 3.4 6.2.6 2.3 1.6 4.5 4.5 4.6 3.1.1 4.9-2.3 4.6-5z" fill="#97785d" stroke-width="none" opacity="1" stroke="none"></path></g></g><g id="svga-group-humanbody-back"><path id="SvgjsPath3440" d="M77.8 105.9s4.8 37.7 10 55.8c0 0-6.4 8.8-14.5 11.9-28.7 11.2-35 11.2-39.6 15.2-2.4 2.1.2 11.1 1.8 17.2 1.3 5 1.7 13.2 1.7 13.2h132.2s1.6-33-.6-39.8-7.1-2.9-21.9-4.5c-14.8-1.6-28.7-10.3-31-13.2l.3-60-38.4 4.2z" fill="#f3d4cf" stroke-width="none" opacity="1" stroke="none"></path></g><g id="svga-group-chinshadow-single"><path id="SvgjsPath3868" d="M86.3 155.9c6.3 1 20.4.7 22.8-.7 1.3-.8 3.8-3.1 6.8-6.3l.3-47.2-38.4 4.2s3.9 30.7 8.5 50z" fill="#d4958a" stroke-width="none" opacity="1" stroke="none"></path></g><g id="svga-group-humanbody-front"><path id="SvgjsPath3441" d="M72.1 183.1s14.6-.2 20.4 2.6c5.8 2.9 12.7 2.4 16.1-1s21.6-7 21.6-7-19.7 1.9-25 4.6c-5.3 2.7-22.3-2.8-33.1.8z" fill="#d4958a" stroke-width="none" opacity="1" stroke="none"></path><path id="SvgjsPath3442" d="M74.2 173.2c6.7-1.3 14.7-6.4 14.7-6.4l6.2 5.5c-4.3-7.9-12.7-41.1-12.7-41.1l-.7.7c1.7 10.5 3.9 21.9 6.1 29.7 0 0-6 8.2-13.6 11.6z" fill="#d4958a" stroke-width="none" opacity="1" stroke="none"></path><path id="SvgjsPath3443" d="M170.7 188.5c-.1-2.1-.2-4.1-.4-6.2-.1-1-.3-2.1-.6-3.2-.2-.5-.4-1-.6-1.6-.2-.5-.6-1-1-1.5s-.9-.9-1.5-1.1c-.6-.3-1.1-.4-1.7-.6-1.1-.2-2.2-.2-3.2-.2-2.1 0-4.1.1-6.1.1s-4-.1-6-.2-4-.4-6-.7c-1-.2-2-.4-2.9-.6l-1.5-.4c-.5-.1-1-.3-1.4-.4-3.8-1.1-7.6-2.6-11.2-4.4l-1.3-.7-1.3-.7c-.4-.2-.9-.5-1.3-.8s-.9-.5-1.3-.8-.8-.5-1.3-.8l-1.2-.9-.6-.5-.3-.2-.3-.2c-.2-.2-.4-.3-.5-.5l-.2-.3v-44.6l-.1-15v-.6l-.6.1c-6.4.8-12.9 1.5-19.3 2.3l-19.1 2.3v.5l.1.4.1.9.2 1.8c.1 1.2.3 2.3.4 3.5l.9 7c.6 4.7 1.3 9.4 2.1 14 .8 4.7 1.5 9.3 2.5 14 .9 4.5 1.8 9 3 13.5-1.1 1.4-2.3 2.7-3.6 4-1.3 1.3-2.8 2.6-4.3 3.8-1.5 1.1-3.1 2.2-4.8 3l-1.3.6c-.4.2-.9.3-1.3.5l-2.7 1c-7.2 2.7-14.5 5.3-21.8 7.7l-5.5 1.8c-1.8.6-3.7 1.3-5.5 2.2-.4.2-.9.5-1.3.7-.4.3-.9.5-1.3.9l-.6.5c-.2.2-.5.5-.6.8-.3.5-.4 1.1-.5 1.6-.2 1.1-.1 2.1 0 3.1s.3 2 .4 2.9c.4 1.9.8 3.8 1.3 5.7l.8 2.8c.3.9.5 1.8.7 2.8.4 1.9.7 3.8.9 5.7s.4 3.8.5 5.7v.8h133.4v-.8c.2-4.1.4-8.2.5-12.3s.2-8.2.2-12.3c0-1.8-.1-3.8-.1-5.9zm-67.4 30.3H70.2l-16.5-.1-16-.1c-.1-1.8-.2-3.5-.4-5.3-.2-1.9-.4-3.9-.8-5.8-.2-1-.4-1.9-.7-2.9l-.7-2.8c-.5-1.9-.9-3.7-1.2-5.6-.2-.9-.3-1.9-.4-2.8-.1-.9-.1-1.9 0-2.7.1-.4.2-.8.4-1.1.1-.2.2-.3.3-.4l.5-.4c.3-.3.7-.5 1.1-.8.4-.2.8-.5 1.2-.7 1.7-.8 3.5-1.4 5.3-2l5.5-1.8c7.3-2.4 14.6-5 21.8-7.8l2.7-1c.5-.2.9-.3 1.4-.5l1.4-.6c1.8-.9 3.4-2 5-3.2s3-2.5 4.4-3.9 2.7-2.9 3.8-4.5l.2-.3-.1-.3c-1.3-4.5-2.3-9.1-3.3-13.7s-1.9-9.3-2.7-13.9c-.8-4.6-1.6-9.3-2.4-14l-2.2-13.9 19.3-1.8c6.2-.6 12.3-1.2 18.5-1.8l-.2 14.4-.2 15-.3 30v.4l.2.2.6.7.6.6.3.3.3.2.6.5c.4.3.9.6 1.3.9.4.3.9.6 1.3.9.4.3.9.5 1.3.8s.9.5 1.3.8l1.4.8 1.4.7c.5.2.9.5 1.4.7l1.4.7c1 .4 1.9.8 2.9 1.2s1.9.8 2.9 1.1l1.5.5c.5.2 1 .3 1.5.4.5.1 1 .3 1.5.4l1.5.4c1 .3 2 .4 3 .6 2 .4 4.1.6 6.2.8 2.1.2 4.1.2 6.2.2 2.1 0 4.1-.1 6.1-.1s4 .1 5 1.3c.5.6.9 1.4 1.2 2.3.3.9.4 1.9.6 2.8.3 2 .4 4 .5 6s.1 4.1.2 6.1c.1 7.9-.1 15.8-.4 23.7-10.8.1-21.5.1-32.3.2h-33.1z" fill="#c5796d" stroke-width="none" opacity="1" stroke="none"></path><path id="SvgjsPath3444" d="M150.7 219.2 147 198l-.4 21.2z" fill="#d4958a" stroke-width="none" opacity="1" stroke="none"></path><path id="SvgjsPath3445" d="M47.3 203.5s2.2 11.5 2.9 15.7h3.5l-6.4-15.7z" fill="#d4958a" stroke-width="none" opacity="1" stroke="none"></path></g><g id="svga-group-clothes-single"><path id="SvgjsPath3570" d="M72.29 172.58s2.02 7.56 17.38 13.74 41.96-.02 44.23-15.23c0 0 6.36 1.86 14.04 2.24 7.68.37 15.92-.37 18.16.56 2.25.94 5.62 3.18 4.87 13.3-.75 10.11.19 23.22.19 23.22l-23.03 1.5.52 7.9H52.63l-1.87-5.47-15.73-1.12s-.19-7.12-1.31-9.92c-1.12-2.81-3.18-10.3-2.06-14.04s11.24-6.74 17.98-8.99c6.73-2.26 22.65-7.69 22.65-7.69z" fill="#673765" stroke-width="none" opacity="1" stroke="none"></path><path id="SvgjsPath3571" d="M171.11 192.7c.04-1.47.1-2.94.22-4.41.11-1.45.23-2.97.22-4.46-.03-1.5-.14-3.02-.5-4.51-.37-1.48-.95-2.99-2.06-4.18-.54-.6-1.2-1.1-1.9-1.47-.66-.39-1.56-.65-2.31-.73-1.54-.2-3.02-.22-4.51-.24-2.97-.03-5.91.01-8.85-.07-5.85-.05-11.69-.84-17.28-2.38l-.98-.27-.15.99c-.45 2.88-1.86 5.58-3.91 7.73-2.04 2.17-4.6 3.87-7.33 5.2-5.49 2.64-11.64 3.88-17.75 4.09-3.06.09-6.14-.12-9.15-.71-1.5-.3-2.98-.7-4.42-1.21-.72-.25-1.43-.58-2.14-.86-.72-.29-1.43-.59-2.12-.94-2.8-1.29-5.51-2.82-7.94-4.71-1.22-.94-2.37-1.98-3.38-3.14a15.6 15.6 0 0 1-1.42-1.82 12.408 12.408 0 0 1-.86-1.5c-.04-.09-.08-.17-.12-.26-.05-.1-.04-.15-.15-.33l-16.4 5.19-8.28 2.65c-2.74.86-5.49 1.72-8.19 2.76-1.35.52-2.7 1.09-4.01 1.77-1.3.69-2.62 1.44-3.7 2.68-.27.31-.5.68-.69 1.08-.2.45-.24.81-.35 1.2-.12.77-.19 1.54-.18 2.29.01 1.5.19 2.97.44 4.42.26 1.44.59 2.87.99 4.28.2.7.42 1.4.66 2.1.28.75.47 1.27.62 1.95.56 2.67.72 5.57.81 8.37l.03.87.87.07c5.01.41 10.03.75 15.05 1.13l1.65 4.83.24.7h.74c8 0 16 .06 24.01.01l24.01-.11 24.01-.16 24.01-.27.54-.01-.04-.53-.57-7.48c3.7-.29 7.39-.53 11.09-.79l11.51-.79.3-.02-.02-.3c-.36-5.9-.51-11.81-.36-17.7zm-11.49 18.1c-3.84.23-7.68.48-11.52.68l-.41.02.02.42.41 7.37-23.48-.26-24.01-.16-24.01-.11c-7.76-.05-15.51 0-23.27.01L51.72 214l-.22-.64-.67-.05c-4.96-.34-9.92-.71-14.88-1.02-.14-2.62-.35-5.2-.94-7.84-.16-.72-.47-1.55-.71-2.14-.24-.65-.46-1.32-.66-1.99-.41-1.35-.75-2.72-1.01-4.09-.26-1.38-.45-2.77-.48-4.13-.03-.69.03-1.35.12-2 .07-.3.13-.65.23-.87.11-.24.25-.49.46-.73.79-.95 1.99-1.72 3.19-2.39 1.22-.67 2.51-1.26 3.82-1.8 2.62-1.09 5.33-2.02 8.05-2.95 2.73-.94 5.35-1.88 8.03-2.84l16.22-5.86c-.06.01.03.14.04.23.03.1.07.18.11.28.07.19.16.36.24.54.17.36.36.7.56 1.04.41.67.86 1.32 1.36 1.93a23.82 23.82 0 0 0 3.33 3.33c2.41 2.02 5.1 3.68 7.91 5.1.7.37 1.41.69 2.13 1 .72.31 1.42.65 2.17.94 1.48.57 3 1.02 4.55 1.37 3.09.69 6.26.98 9.42.96 6.32-.05 12.65-1.32 18.44-4.01 2.87-1.37 5.62-3.14 7.87-5.49 2.03-2.1 3.61-4.77 4.24-7.7a68.752 68.752 0 0 0 16.8 2.06c2.97.01 5.93-.1 8.87-.14 1.46-.01 2.94-.03 4.34.12.72.08 1.26.21 1.9.55.61.3 1.15.7 1.61 1.18.95.96 1.51 2.28 1.89 3.64.36 1.37.51 2.82.58 4.26.04 1.46-.03 2.9-.11 4.39-.07 1.48-.11 2.96-.15 4.44-.09 5.82.12 11.63.5 17.44l-11.25.68z" fill="#481846" stroke-width="none" opacity="1" stroke="none"></path></g><g id="svga-group-head" transform="matrix(1,0,0,1,0,0)"><g id="svga-group-ears-left-move" transform="matrix(1,0,0,1,0,1)"><g id="svga-group-ears-left" transform="matrix(0.9499999,0,0,0.9499999,2.7602802168994884,4.861860843697357)"><path id="SvgjsPath5260" d="M63.09 94.03s-3.12-7.36-5.69-9.71c-2.57-2.34-7.59-5.02-9.48-4.35-1.9.67 1.12 8.81 2.23 10.6 1.12 1.79 1.12 11.49 1.23 14.39.11 2.9 2.9 6.25 5.02 8.7 2.12 2.45 4.24-1.12 5.69-4.35s1-15.28 1-15.28z" fill="#f3d4cf" stroke-width="none" opacity="1" stroke="none"></path><path id="SvgjsPath5261" d="M61.92 100.31c-.33-2.85-5.11-11.21-6.86-12.8-1.76-1.59-5.69-4.44-5.77-3.52s2.26 5.69 2.34 8.54.17 10.96 1.09 12.72c.92 1.76 5.69 1.51 6.53-.17s2.67-4.77 2.67-4.77z" fill="#e4b3ab" stroke-width="none" opacity="1" stroke="none"></path><path id="SvgjsPath5262" d="M47.07 80.79c-.11.94.06 1.79.25 2.64.4 1.69.98 3.31 1.62 4.9.33.79.68 1.58 1.11 2.33.35.72.47 1.6.59 2.43.22 1.69.26 3.4.32 5.11.04 1.71.03 3.42.05 5.13.03.85-.04 1.71.14 2.62.17.89.52 1.72.93 2.5.82 1.56 1.87 2.94 2.96 4.28.27.33.55.67.83.99.13.16.29.33.47.5.16.18.38.32.6.45.46.25 1.07.32 1.58.14.49-.19.88-.49 1.21-.81.66-.65 1.13-1.41 1.57-2.16.43-.76.81-1.54 1.15-2.34.63-1.74.72-3.45.84-5.17.17-3.44.07-6.86-.15-10.29-.62-1.62-1.31-3.18-2.08-4.71-.79-1.52-1.59-3.06-2.7-4.42-.56-.69-1.24-1.27-1.92-1.8-.69-.53-1.41-1.01-2.15-1.47-1.49-.89-3.07-1.66-4.83-2.01-.44-.07-.91-.11-1.4.01-.22.02-.56.2-.71.44-.18.22-.23.47-.28.71zm.56.1c.04-.18.1-.36.19-.47.1-.11.16-.15.37-.18.35-.08.75-.02 1.14.05 1.6.33 3.13 1.13 4.58 1.96.73.42 1.44.88 2.11 1.38.68.51 1.32 1.03 1.85 1.67 1.07 1.27 1.97 2.74 2.81 4.22.83 1.48 1.63 3.01 2.37 4.53-.03 3.41-.11 6.84-.4 10.23-.16 1.68-.34 3.42-.92 4.9-.73 1.51-1.47 3.09-2.59 4.22-.28.27-.59.49-.9.61-.31.1-.61.06-.9-.09-.55-.33-1.09-1.11-1.65-1.73-1.09-1.3-2.14-2.64-2.94-4.1-.4-.73-.72-1.5-.9-2.28-.17-.76-.15-1.64-.19-2.49-.06-1.71-.14-3.42-.25-5.13-.11-1.71-.25-3.42-.48-5.12-.14-.85-.25-1.71-.66-2.52-.43-.72-.75-1.52-1.07-2.31-.62-1.59-1.13-3.22-1.44-4.89-.14-.84-.26-1.7-.13-2.46z" fill="#e4b3ab" stroke-width="none" opacity="1" stroke="none"></path><path id="SvgjsPath5263" d="M53.38 89.46c.58 1.22 1.11 2.47 1.51 3.75.4 1.29.75 2.59 1.06 3.9.29 1.31.56 2.63.72 3.97l-.08.02c-.42-1.28-.8-2.56-1.2-3.84-.39-1.28-.78-2.56-1.2-3.82-.41-1.27-.78-2.55-1.24-3.8-.38-1.05-.84-2.1-1.49-3 .37 1.58.79 3.15 1.13 4.74.19.9.36 1.8.49 2.71.07.46.13.92.17 1.38.05.46.04.98.04 1.39.05 1.78.28 3.6.53 5.39.14.9.28 1.79.47 2.67.09.44.2.88.32 1.3.01.02.01.04.02.06.04-.85.09-1.71.11-2.56.04-1.28.1-2.55.06-3.83l.08-.01c.17 1.27.2 2.56.25 3.84.03 1.28.04 2.56.05 3.84v.8l-.52-.59c-.4-.46-.51-.9-.68-1.34-.15-.45-.28-.89-.39-1.34-.23-.9-.42-1.8-.58-2.71-.31-1.82-.56-3.63-.58-5.51.09-1.79-.24-3.58-.47-5.39-.26-1.8-.5-3.62-.9-5.4l-.12-.54.35.42c.88 1.08 1.49 2.29 2.09 3.5z" fill="#c5796d" stroke-width="none" opacity="1" stroke="none"></path></g></g><g id="svga-group-ears-right-move" transform="matrix(1,0,0,1,0,1)"><g id="svga-group-ears-right" transform="matrix(0.9499999,0,0,0.9499999,7.240042098463448,4.861360735885626)"><path id="SvgjsPath5264" d="M136.91 94.03s3.12-7.36 5.69-9.71c2.57-2.34 7.59-5.02 9.48-4.35s-1.12 8.81-2.23 10.6c-1.12 1.79-1.12 11.49-1.23 14.39-.11 2.9-2.9 6.25-5.02 8.7-2.12 2.45-4.24-1.12-5.69-4.35-1.45-3.23-1-15.28-1-15.28z" fill="#f3d4cf" stroke-width="none" opacity="1" stroke="none"></path><path id="SvgjsPath5265" d="M138.08 100.31c.33-2.85 5.11-11.21 6.86-12.8 1.76-1.59 5.69-4.44 5.77-3.52.08.92-2.26 5.69-2.34 8.54s-.17 10.96-1.09 12.72c-.92 1.76-5.69 1.51-6.53-.17s-2.67-4.77-2.67-4.77z" fill="#e4b3ab" stroke-width="none" opacity="1" stroke="none"></path><path id="SvgjsPath5266" d="M152.66 80.07c-.15-.24-.49-.42-.71-.44-.49-.12-.96-.08-1.4-.01-1.76.35-3.34 1.12-4.83 2.01-.74.45-1.46.93-2.15 1.47-.68.53-1.36 1.1-1.92 1.8-1.11 1.36-1.91 2.9-2.7 4.42-.77 1.54-1.46 3.1-2.08 4.71-.23 3.43-.33 6.85-.15 10.29.12 1.72.22 3.44.84 5.17.34.79.72 1.58 1.15 2.34.44.76.91 1.51 1.57 2.16.33.32.72.62 1.21.81.51.18 1.11.11 1.58-.14.22-.14.44-.27.6-.45.18-.17.34-.34.47-.5.28-.32.55-.66.83-.99 1.09-1.34 2.14-2.72 2.96-4.28.4-.78.75-1.61.93-2.5.17-.92.11-1.77.14-2.62.02-1.71.01-3.42.05-5.13.05-1.71.1-3.42.32-5.11.12-.83.23-1.71.59-2.43.43-.76.78-1.54 1.11-2.33.64-1.59 1.21-3.21 1.62-4.9.18-.85.36-1.7.25-2.64-.06-.23-.11-.48-.28-.71zm-.42 3.27c-.31 1.66-.82 3.3-1.44 4.89-.32.79-.63 1.59-1.07 2.31-.41.81-.52 1.67-.66 2.52-.22 1.7-.37 3.41-.48 5.12-.11 1.71-.2 3.42-.25 5.13-.05.85-.02 1.73-.19 2.49-.18.79-.5 1.55-.9 2.28-.8 1.46-1.85 2.8-2.94 4.1-.56.62-1.1 1.4-1.65 1.73-.29.15-.59.19-.9.09-.31-.12-.62-.34-.9-.61-1.12-1.13-1.86-2.71-2.59-4.22-.58-1.47-.76-3.22-.92-4.9-.29-3.39-.37-6.82-.4-10.23.74-1.52 1.54-3.05 2.37-4.53.84-1.48 1.73-2.95 2.81-4.22.53-.63 1.17-1.16 1.85-1.67.67-.5 1.39-.96 2.11-1.38 1.45-.83 2.98-1.63 4.58-1.96.39-.07.8-.12 1.14-.05.21.03.27.07.37.18.09.11.15.29.19.47.13.77.01 1.63-.13 2.46z" fill="#e4b3ab" stroke-width="none" opacity="1" stroke="none"></path><path id="SvgjsPath5267" d="M146.62 89.46c-.58 1.22-1.11 2.47-1.51 3.75-.4 1.29-.75 2.59-1.06 3.9-.29 1.31-.56 2.63-.72 3.97l.08.02c.42-1.28.8-2.56 1.2-3.84.39-1.28.78-2.56 1.2-3.82.41-1.27.78-2.55 1.24-3.8.38-1.05.84-2.1 1.49-3-.37 1.58-.79 3.15-1.13 4.74-.19.9-.36 1.8-.49 2.71-.07.46-.13.92-.17 1.38-.05.46-.04.98-.04 1.39-.05 1.78-.28 3.6-.53 5.39-.14.9-.28 1.79-.47 2.67-.09.44-.2.88-.32 1.3-.01.02-.01.04-.02.06-.04-.85-.09-1.71-.11-2.56-.04-1.28-.1-2.55-.06-3.83l-.08-.01c-.17 1.27-.2 2.56-.25 3.84-.03 1.28-.04 2.56-.05 3.84v.8l.52-.59c.4-.46.51-.9.68-1.34.15-.45.28-.89.39-1.34.23-.9.42-1.8.58-2.71.31-1.82.56-3.63.58-5.51-.09-1.79.24-3.58.47-5.39.26-1.8.5-3.62.9-5.4l.12-.54-.35.42c-.88 1.08-1.49 2.29-2.09 3.5z" fill="#c5796d" stroke-width="none" opacity="1" stroke="none"></path></g></g><g id="svga-group-faceshape-wrap"><g id="svga-group-faceshape-single"><path id="SvgjsPath3858" d="M135.9 49.8c-6.7-7.4-11.3-13.2-28.8-17.3-1.8-.4-12.3-.4-14.1 0-17.5 4.1-22.1 9.9-28.8 17.3-7.1 7.8-9.5 29-9.5 29 1.1 10.8 4.4 36.3 6.4 39 10.8 14 22.5 27 26.2 29.2 2.9 1.8 22.6 1.8 25.5 0 3.7-2.2 15.3-15.2 26.2-29.2 2.1-2.7 5.4-28.2 6.4-39 0 0-2.4-21.2-9.5-29z" fill="#f3d4cf" stroke-width="none" opacity="1" stroke="none"></path><path id="SvgjsPath3859" d="M107.1 32.5c-1.8-.4-12.3-.4-14.1 0-17.5 4.1-22.1 9.9-28.8 17.3-7.1 7.8-9.5 29-9.5 29 1.1 10.8 4.4 36.3 6.4 39 10.8 14 22.5 27 26.2 29.2 2.9 1.8 22.6 1.8 25.5 0 3.7-2.2 15.3-15.2 26.2-29.2 2.1-2.7 5.4-28.2 6.4-39 0 0-2.4-21.2-9.5-29-6.7-7.4-11.3-13.2-28.8-17.3zm35 31.2c.7 2.5 1.2 5 1.6 7.5.4 2.5.8 5 1 7.5-.5 3.8-1.1 7.5-1.7 11.3l-.9 5.7c-.3 1.9-.6 3.8-1 5.6-.7 3.7-1.3 7.5-2.2 11.2-.2.9-.4 1.8-.7 2.7-.1.4-.3.8-.4 1.2l-.1.2v.1l-.1.1-.2.3-1.8 2.2-1.8 2.2c-4.8 5.9-9.7 11.8-14.9 17.3-1.3 1.4-2.6 2.8-3.9 4-.3.3-.7.6-1 .9l-.5.5-.5.4c-.3.3-.7.5-1 .7 0 0-.1 0-.1.1l-.2.1c-.1 0-.2.1-.3.1-.1 0-.2.1-.3.1-.8.2-1.7.3-2.6.4-.9.1-1.8.2-2.8.3-1.9.1-3.8.2-5.6.2-1.9 0-3.8 0-5.6-.1-.9 0-1.9-.1-2.8-.2-.9-.1-1.8-.2-2.7-.4-.2 0-.4-.1-.6-.2l-.2-.1s-.1 0-.1-.1c-.3-.2-.7-.4-1-.7l-.5-.4-.5-.5c-.3-.3-.7-.6-1-.9-1.4-1.3-2.7-2.6-4-4-5.3-5.5-10.4-11.2-15.3-17.1l-1.8-2.2-1.8-2.2-.2-.3-.1-.1-.1-.1-.1-.1s0-.1-.1-.1l-.1-.3c-.2-.4-.3-.8-.5-1.3-.3-.9-.5-1.8-.7-2.7-.8-3.7-1.5-7.5-2.1-11.3-.3-1.9-.6-3.8-.8-5.7-.3-1.9-.5-3.8-.7-5.7-.5-3.8-.8-7.5-1.2-11.3.7-4.6 1.7-9.2 3-13.7.7-2.2 1.4-4.5 2.3-6.6.4-1.1.9-2.1 1.4-3.1s1.1-2 1.7-2.9c.2-.2.3-.4.5-.7.2-.2.3-.4.5-.6.3-.4.8-.8 1.2-1.3.8-.9 1.6-1.7 2.4-2.6l1.2-1.2 1.2-1.2c.4-.4.8-.8 1.3-1.2.4-.4.9-.7 1.3-1.1 3.5-2.8 7.7-4.9 12-6.5l1.6-.6c.5-.2 1.1-.4 1.7-.5.6-.2 1.1-.4 1.7-.5l1.7-.5.8-.2.2-.1h.2c.1 0 .2 0 .3-.1.5-.1 1.1-.1 1.7-.2 1.2-.1 2.3-.1 3.5-.2 2.3-.1 4.7-.1 7-.1h.8c.2 0 .5.1.8.2l1.7.4.9.2.9.2 1.7.4c2.3.6 4.5 1.3 6.7 2.3.3.1.5.2.8.3l.8.4c.5.3 1.1.5 1.6.8l1.5.9 1.5.9c2 1.3 3.8 2.8 5.4 4.5 1.7 1.7 3.3 3.4 4.9 5.2 1.7 1.9 2.9 4.2 3.9 6.6.9 2.7 1.7 5.2 2.3 7.6z" fill="#c5796d" stroke-width="none" opacity="1" stroke="none"></path></g></g><g id="svga-group-mouth-single-move" transform="matrix(1,0,0,1,0,1)"><g id="svga-group-mouth-single"><path id="SvgjsPath4592" d="M90.88 126.51s-.27 1.69.86 2.88c1.14 1.19 11.47 2.31 17.34.11 5.87-2.2 6.74-5.28 6.74-5.28s-5.39.45-7.07.11c-1.69-.34-7.66-1.1-8.9-1s-3.37.96-4.36 1.36-4.61 1.82-4.61 1.82z" fill="#da7c87" stroke-width="none" opacity="1" stroke="none"></path><path id="SvgjsPath4593" d="M87.57 126.62s1.87 1.37 4.84.17c2.96-1.19 6.58-2.22 8.13-2.32s7.17 1.35 10.39 1.07c3.22-.29 6.81-1.1 8.21-3.3s.26-3.18-.22-2.66c-.48.51-.69 4.46-3.65 4.22-2.96-.24-6.51-2.62-9.97-3.46-3.46-.83-4.82.93-5.53 1.53s-1.58.42-3.12.41c-1.54-.02-4.73.33-5.43 2.15-.71 1.82-2.27 2.85-3.65 2.19z" fill="#d26d79" stroke-width="none" opacity="1" stroke="none"></path></g></g><g id="svga-group-eyes-left-move" transform="matrix(1,0,0,1,1,0)"><g id="svga-group-eyes-left" transform="matrix(0.9499997000000001,0,0,0.9499997000000001,4.010023907411181,4.51502686111678)"><g id="svga-group-eyesback-left"><path id="SvgjsPath6374" d="M80.2 77.2c7.5 0 13.5 5.8 13.5 13s-6 13-13.5 13-13.5-5.8-13.5-13 6-13 13.5-13z" fill="#ffffff" stroke-width="none" opacity="1"></path></g><g id="svga-group-eyesiriswrapper-left" transform="matrix(1,0,0,1,0,0)"><g id="svga-group-eyesiriscontrol-left" transform="matrix(1,0,0,1,0,0)"><g id="svga-group-eyesiris-left"><path id="SvgjsPath3460" d="M80.2 84.6c3.1 0 5.6 2.5 5.6 5.6s-2.5 5.6-5.6 5.6-5.6-2.5-5.6-5.6 2.5-5.6 5.6-5.6z" fill="#586343" stroke-width="none" opacity="1" stroke="none"></path><path id="SvgjsPath3461" d="M80.2 87.2c1.7 0 3 1.3 3 3s-1.3 3-3 3-3-1.3-3-3 1.3-3 3-3z" fill="#000000" stroke-width="none" opacity="1"></path><path id="SvgjsPath3462" d="m79.5 87.8-.6-.6c-.2-.2-.5-.3-.8-.3s-.6.1-.8.3c-.2.2-.3.5-.3.8s.1.6.3.8l.6.6c.2.2.5.3.8.3s.6-.1.8-.3c.4-.6.4-1.2 0-1.6zm2.7 5.1c1 0 1-1.5 0-1.5-.9 0-.9 1.5 0 1.5z" fill="#ffffff" stroke-width="none" opacity="1"></path></g></g></g><g id="svga-group-eyesfront-left"><path id="SvgjsPath6382" d="M80.2 76.7c-7.8 0-14.1 6.1-14.1 13.6s6.3 13.6 14.1 13.6 14.1-6.1 14.1-13.6S88 76.7 80.2 76.7zM68.5 95.3s3.6-5.3 5.3-6.9c1.7-1.6 3.2-1.7 6.3-1.8s6.5.1 8.2 2.3c1.7 2.2 2.8 6 2.8 6-7.7-3.1-22.6.4-22.6.4z" fill="#f3d4cf" stroke-width="none" opacity="1" stroke="none"></path><path id="SvgjsPath6383" d="M76.5 98.7c-3.5-.3-7.9-1.9-7.9-1.9 4.5 2.9 7.9 1.9 7.9 1.9z" fill="#e4b3ab" stroke-width="none" opacity="1" stroke="none"></path><path id="SvgjsPath6384" d="M91 94.8c-.2-1.2-.5-2.4-1-3.6s-1.1-2.4-2.2-3.4c-.4-.4-.9-.7-1.4-1l.1-.2c.1-.1 0-.3-.1-.3s-.3 0-.3.1l-.1.2c-.3-.2-.7-.2-1-.4-.1 0-.2-.1-.3-.1l.2-.7c0-.1 0-.3-.2-.3-.1 0-.3 0-.3.2l-.1.7c-.1 0-.2 0-.3-.1-.5-.1-.9-.1-1.4-.1l.1-1.3c0-.1-.1-.2-.2-.2s-.2.1-.3.2l-.1 1.3H80c0-.2-.1-.3-.1-.4-.1-.3-.2-.5-.2-.9 0-.1-.2-.2-.3-.2-.1 0-.2.2-.2.3.1.4.2.7.2.9 0 .1.1.2.1.3-.5 0-1.1.1-1.6.1-.2 0-.4.1-.6.1-.1-.2-.1-.4-.2-.5-.1-.2-.2-.5-.3-.8 0-.1-.2-.2-.3-.2s-.2.2-.2.3c.1.3.2.6.3.8.1.1.1.3.2.4-.3.1-.7.1-1 .2s-.7.3-1 .5l-.9-1c-.1-.1-.2-.1-.3 0s-.1.2 0 .3l.9 1c-.2.1-.3.3-.5.4-.2.2-.5.4-.7.7-.2-.2-.3-.3-.4-.5 0-.1-.2-.2-.3-.2s-.2.2-.2.3c.1.3.3.5.5.8-.1.2-.3.3-.4.5-1.3 1.8-2.6 3.6-3.8 5.4-.1.2-.3.4-.4.6l-.3.6.5-.1c1.8-.4 3.7-.7 5.6-.9 1.9-.3 3.8-.5 5.7-.6 1.9-.1 3.8-.2 5.7 0 .9.1 1.9.2 2.8.3.9.2 1.8.4 2.8.7-.1-.1-.1-.2-.1-.2zm-2.7-.7c-.9-.2-1.9-.3-2.8-.4-1.9-.2-3.8-.2-5.7-.1-1.9.1-3.8.3-5.7.6l-5.1.9c.2-.3.4-.7.7-1 1.3-1.4 2.6-2.7 3.8-4.1.4-.4.9-.9 1.3-1.2.5-.4 1-.7 1.5-.8.2-.1.5-.1.8-.2s.6-.1.9-.1c.6-.1 1.3-.1 1.9-.1 1.3-.1 2.6-.1 3.8 0 .5 0 1.2.2 1.7.4.6.2 1.1.5 1.5.9s.9.8 1.2 1.3c.4.5.7 1 1 1.6.6 1 1.1 2.1 1.6 3.2 0 .1.1.1.1.2-.6-.7-1.6-.9-2.5-1.1z" fill="#533808" stroke-width="none" opacity="1" stroke="none"></path></g></g></g><g id="svga-group-eyes-right-move" transform="matrix(1,0,0,1,-1,0)"><g id="svga-group-eyes-right" transform="matrix(0.9499997000000001,0,0,0.9499997000000001,5.990036283324798,4.51502686111678)"><g id="svga-group-eyesback-right"><path id="SvgjsPath6375" d="M119.8 77.2c7.5 0 13.5 5.8 13.5 13s-6 13-13.5 13-13.5-5.8-13.5-13 6-13 13.5-13z" fill="#ffffff" stroke-width="none" opacity="1"></path></g><g id="svga-group-eyesiriswrapper-right" transform="matrix(1,0,0,1,0,0)"><g id="svga-group-eyesiriscontrol-right" transform="matrix(1,0,0,1,0,0)"><g id="svga-group-eyesiris-right"><path id="SvgjsPath3463" d="M119.8 85.3c2.7 0 4.9 2.2 4.9 4.9s-2.2 4.9-4.9 4.9-4.9-2.2-4.9-4.9 2.2-4.9 4.9-4.9z" fill="#586343" stroke-width="none" opacity="1" stroke="none"></path><path id="SvgjsPath3464" d="M119.8 87.5c1.5 0 2.7 1.2 2.7 2.7s-1.2 2.7-2.7 2.7-2.7-1.2-2.7-2.7 1.2-2.7 2.7-2.7z" fill="#000000" stroke-width="none" opacity="1"></path><path id="SvgjsPath3465" d="M119.2 88.1c-.2-.2-.3-.4-.5-.5s-.4-.3-.7-.3c-.2 0-.5.1-.7.3-.2.2-.3.4-.3.7 0 .2.1.5.3.7.2.2.4.3.5.5s.4.3.7.3c.2 0 .5-.1.7-.3.3-.5.3-1.1 0-1.4zm2.4 4.5c.8 0 .8-1.3 0-1.3s-.8 1.3 0 1.3z" fill="#ffffff" stroke-width="none" opacity="1"></path></g></g></g><g id="svga-group-eyesfront-right"><path id="SvgjsPath6385" d="M119.8 76.7c-7.8 0-14.1 6.1-14.1 13.6s6.3 13.6 14.1 13.6 14.1-6.1 14.1-13.6-6.3-13.6-14.1-13.6zM110 94.5s.6-2.6 2.2-4.6 4.9-2.2 7.9-2.1 4.4.3 6 1.7 5 6.3 5 6.3c-1.6-.1-13-6.1-21.1-1.3z" fill="#f3d4cf" stroke-width="none" opacity="1" stroke="none"></path><path id="SvgjsPath6388" d="m111.6 97 14.3.7c.1.1-7.9 1.4-14.3-.7z" fill="#e4b3ab" stroke-width="none" opacity="1" stroke="none"></path><path id="SvgjsPath6389" d="M131.3 95.9c-.6-.9-1.2-1.7-1.8-2.5-.1-.1-.1-.2-.1-.2-.3-.5-.6-1.1-.9-1.6l-.4-.8c-.2-.3-.3-.6-.5-.8-.2-.2-.3-.4-.5-.6l.6-.4c.1-.1.1-.2.1-.4-.1-.1-.2-.2-.3-.1l-.7.5c-.4-.4-1-.8-1.5-1.1l.4-1c.1-.1 0-.3-.1-.3s-.3 0-.3.1l-.4 1c-.1 0-.2-.1-.2-.1-.5-.2-.9-.3-1.4-.4l.1-1c0-.1-.1-.3-.2-.3s-.2.1-.3.2l-.1 1c-.6-.1-1.2-.1-1.7-.2h-.2V86c0-.2-.1-.3-.2-.3s-.2.1-.2.2v.9c-.4 0-.7-.1-1.1-.1h-.6c-.1-.3-.1-.7-.2-1 0-.2-.1-.3-.2-.3s-.2.1-.2.3c0 .4.1.7.1 1.1-.2 0-.5.1-.7.1s-.5.1-.7.2l-.3-1.3c0-.1-.2-.2-.3-.2-.1 0-.2.2-.2.3l.3 1.3c-.4.1-.9.3-1.3.4-.1-.3-.1-.6-.1-1 0-.2-.1-.3-.2-.3s-.2.1-.3.2c0 .4 0 .8.2 1.2l-.6.3c-.1 0-.1.1-.2.1-.2-.2-.3-.4-.4-.6-.1-.1-.2-.2-.3-.1-.1.1-.2.2-.1.3.1.2.2.4.4.6-.3.2-.7.4-1 .8-.5.5-.8 1.1-1.1 1.7-.5 1.2-1 3.5-1 3.5v.3c1.7-.9 3.4-1.4 5.2-1.6 1.8-.2 3.6-.1 5.4.2s3.5.8 5.3 1.3c.9.3 1.7.6 2.6.9l1.3.5c.4.2.9.3 1.4.4l.5.1-.8-.5zm-2.7-1c-.9-.3-1.7-.7-2.6-1-1.8-.6-3.5-1-5.4-1.3-1.8-.2-3.7-.3-5.5 0-.9.1-1.8.3-2.7.7-.9.3-1.7.7-2.5 1.3.2-.5.3-1 .6-1.5.3-.6.7-1.3 1-1.8s.7-1 1.1-1.3.9-.6 1.4-.8c1-.4 2.1-.7 3.2-.8.6-.1 1.1-.1 1.6-.1s1.1.1 1.7.1c1.2.1 2.3.2 3.2.5 1 .3 1.9 1 2.6 1.8.2.2.3.5.5.7s.3.5.5.8c.4.5.8 1 1.1 1.5.5.6 1.1 1.3 1.7 1.8.1.1.1.2.1.2-.2-.1-.5-.2-.7-.3l-.9-.5z" fill="#533808" stroke-width="none" opacity="1" stroke="none"></path></g></g></g><g id="svga-group-facehighlight-single"></g><g id="svga-group-eyebrows-left-move" transform="matrix(1,0,0,1,0,4)"><g id="svga-group-eyebrows-left-rotate" transform="matrix(0.9825664732332882,-0.18591160716291477,0.18591160716291477,0.9825664732332882,-12.463756669908761,16.00837565640954)"><g id="svga-group-eyebrows-left" transform="matrix(0.9499999,0,0,0.9499999,3.956257912499993,3.72306290417977)"><path id="SvgjsPath6837" d="M64.55 76.13s7.64-5.4 8.86-5.62 19.49 3.09 19.95 4.12c.46 1.03-.07 3.12-1.4 3.76-1.33.64-12.63-3.98-17.91-5.17-2-.45-9.5 2.91-9.5 2.91z" fill="#6b5747" stroke-width="none" opacity="1" stroke="none"></path><path id="SvgjsPath6838" d="M64.52 76.15c.01.02.08.01.08 0l.03-.01.06-.02.12-.05.23-.09.47-.18.94-.35c.63-.23 1.26-.45 1.89-.67 1.26-.44 2.54-.84 3.83-1.12.32-.07.64-.12.96-.16.32-.03.63-.04.89.02.64.16 1.28.34 1.92.54 1.27.39 2.55.8 3.81 1.23 2.54.85 5.07 1.71 7.65 2.49.64.19 1.29.39 1.95.55.66.16 1.32.33 2.04.38.19 0 .37.02.62-.06l.09-.03.06-.04.12-.07c.08-.04.15-.1.23-.16.29-.23.51-.51.69-.8.34-.59.52-1.24.53-1.9 0-.33-.03-.67-.16-.99-.02-.05-.02-.07-.06-.13-.04-.07-.09-.09-.13-.13-.08-.06-.16-.1-.24-.14-.16-.08-.32-.13-.48-.19-.65-.22-1.3-.39-1.95-.55-1.31-.33-2.62-.61-3.94-.9-2.63-.58-5.25-1.18-7.9-1.68-1.33-.24-2.66-.47-4.01-.63-.34-.04-.68-.08-1.03-.09-.09 0-.18-.01-.28-.01-.05 0-.1 0-.17.01-.06.01-.1.03-.15.04-.21.06-.36.14-.52.22-.62.32-1.18.67-1.74 1.02-1.12.71-2.19 1.48-3.27 2.24-.54.38-1.07.77-1.59 1.17l-.79.59-.39.3-.19.15-.1.08c-.05.01-.1.08-.12.12zm.92-.49-.34.16.32-.2.83-.53 1.67-1.06c1.11-.71 2.23-1.41 3.36-2.09.56-.34 1.14-.67 1.71-.95l.21-.1c.07-.04.13-.04.19-.07l.09-.03h.08c.07 0 .15 0 .23.01.32.02.65.06.98.1 1.32.18 2.65.38 3.98.59 1.33.2 2.66.4 3.99.62 1.33.22 2.65.45 3.97.72 1.32.27 2.63.57 3.92.92.65.17 1.29.36 1.9.6.15.06.3.12.44.19.07.04.13.07.18.11.02.02.05.04.04.04.01 0 .02.06.03.08.09.27.11.57.09.87a3.7 3.7 0 0 1-.57 1.69c-.17.25-.37.47-.6.64-.06.04-.12.09-.18.12l-.09.05-.05.03h-.03c-.07.03-.24.02-.38.01-.62-.06-1.27-.24-1.91-.42-.64-.18-1.28-.38-1.91-.58-2.54-.82-5.05-1.74-7.61-2.57-1.28-.41-2.56-.82-3.86-1.17-.65-.18-1.31-.35-1.98-.49-.4-.09-.77-.05-1.12 0-.35.05-.69.12-1.02.2-1.33.34-2.58.82-3.83 1.32-.62.25-1.23.52-1.84.79l-.89.4z" fill="#5c4534" stroke-width="none" opacity="1" stroke="none"></path></g></g></g><g id="svga-group-eyebrows-right-move" transform="matrix(1,0,0,1,0,4)"><g id="svga-group-eyebrows-right-rotate" transform="matrix(0.9825664725843342,0.18591161059271855,-0.18591161059271855,0.9825664725843342,16.67329710841132,-21.324482929816085)"><g id="svga-group-eyebrows-right" transform="matrix(0.9499999,0,0,0.9499999,6.101966282582467,3.9120080986587453)"><path id="SvgjsPath6839" d="M135.56 80.74s-6.82-5.75-7.95-6.03c-1.13-.28-18.27 2.16-18.75 3.17-.48 1.01-.1 3.12 1.11 3.82s11.94-3.37 16.91-4.31c1.88-.36 8.68 3.35 8.68 3.35z" fill="#6b5747" stroke-width="none" opacity="1" stroke="none"></path><path id="SvgjsPath6840" d="m135.5 80.64-.09-.08-.17-.16-.35-.32-.7-.63c-.47-.42-.94-.84-1.42-1.24-.96-.81-1.92-1.62-2.93-2.39-.5-.38-1.01-.76-1.56-1.1-.14-.08-.28-.17-.47-.24-.05-.02-.09-.04-.14-.05-.06-.01-.12-.02-.16-.02-.09-.01-.18-.01-.26-.01-.33 0-.64.02-.96.05-1.26.1-2.51.26-3.76.44-2.49.37-4.96.85-7.43 1.3-1.24.23-2.47.45-3.7.72-.61.14-1.23.28-1.84.46-.15.05-.31.1-.46.17-.08.03-.15.07-.23.13-.04.04-.08.06-.13.12-.04.06-.04.09-.06.13-.13.32-.18.65-.2.98-.02.66.12 1.32.4 1.93.15.3.34.59.6.83.06.06.13.12.2.17l.11.08.06.04.08.04c.23.09.39.08.57.09.68-.02 1.29-.15 1.92-.28.62-.13 1.23-.3 1.84-.46 2.43-.66 4.83-1.4 7.24-2.13 1.2-.37 2.4-.72 3.6-1.05.6-.16 1.21-.32 1.81-.44.24-.06.54-.03.83.02.29.05.59.12.89.21 1.18.35 2.35.81 3.5 1.3.57.25 1.15.5 1.72.76l.85.4.43.2.21.1.11.05.05.03.03.01c-.01 0 .06.02.07 0a.339.339 0 0 0-.1-.16zm-1.56-.86c-.55-.3-1.11-.6-1.67-.88-1.13-.55-2.27-1.1-3.49-1.5-.31-.1-.62-.18-.94-.25-.32-.06-.67-.11-1.04-.05-.63.11-1.25.25-1.86.39-1.23.29-2.44.64-3.65.99-2.41.71-4.8 1.5-7.2 2.21-.6.17-1.2.34-1.81.49-.6.15-1.21.29-1.79.33-.13.01-.29 0-.36-.03l-.03-.01-.04-.03-.08-.06a.653.653 0 0 1-.16-.13c-.21-.18-.39-.41-.53-.67a3.91 3.91 0 0 1-.44-1.71c0-.3.03-.6.13-.86.01-.03.03-.08.03-.08l.04-.04c.05-.04.11-.07.18-.1.13-.07.28-.12.42-.17.58-.21 1.19-.36 1.8-.5 1.22-.29 2.45-.53 3.69-.73 1.24-.21 2.48-.37 3.73-.53 1.25-.16 2.49-.3 3.74-.43 1.25-.14 2.49-.28 3.73-.4.31-.03.62-.05.92-.06h.21c.03 0 .06.01.07.01.02.01.05.02.08.03.06.03.11.04.17.08l.19.11c.52.31 1.04.66 1.54 1.03 1.01.73 2.02 1.48 3.02 2.24l1.5 1.14.75.57.28.22-.31-.18-.82-.44z" fill="#5c4534" stroke-width="none" opacity="1" stroke="none"></path></g></g></g><g id="svga-group-nose-single-move" transform="matrix(1,0,0,1,0,1)"><g id="svga-group-nose-single" transform="matrix(1.1500005000000004,0,0,1.1500005000000004,-14.992682269142193,-16.372648645748185)"><path id="SvgjsPath4262" d="M109.52 109.12c-.37-.88-.94-1.63-1.59-2.29.5.77.95 1.58 1.22 2.42.13.42.21.86.14 1.25-.04.2-.1.36-.23.53-.12.17-.25.34-.41.47-.61.58-1.49.8-2.35.68-.43-.05-.87-.17-1.28-.35-.39-.14-.76-.35-1.13-.54.33-.49.63-1.01.89-1.55-.86.8-1.66 1.61-2.52 2.32-.43.35-.86.7-1.32.96-.45.27-.94.48-1.33.46-.1.01-.18-.02-.27-.03-.08-.05-.15-.05-.26-.14-.21-.13-.43-.31-.65-.48-.44-.34-.87-.72-1.31-1.08-.87-.74-1.75-1.48-2.69-2.17.44.7.95 1.34 1.47 1.97-.44.2-.89.36-1.34.46-.56.11-1.15.13-1.62-.09-.95-.47-1.51-1.61-1.35-2.58.04-.25.12-.44.26-.65.15-.23.32-.46.49-.69.35-.45.72-.9 1.11-1.33l.58-.65c.23-.25.4-.49.58-.74.36-.5.68-1.03.94-1.61.26-.57.42-1.23.52-1.81.1-.59.2-1.18.26-1.77.13-1.18.24-2.36.27-3.55.08-2.37.02-4.76-.45-7.08.05 2.36-.12 4.7-.35 7.03-.13 1.16-.26 2.33-.44 3.48-.09.58-.18 1.15-.28 1.72-.11.58-.23 1.07-.47 1.57-.22.5-.5.99-.82 1.45-.16.23-.33.47-.5.65-.2.23-.39.45-.58.68-.38.46-.74.94-1.09 1.43-.17.25-.35.5-.5.77-.18.29-.3.67-.32 1-.11 1.38.74 2.67 1.98 3.12.64.2 1.29.1 1.86-.1.47-.16.9-.4 1.31-.67.21.25.41.5.63.74.39.44.8.84 1.24 1.25.22.2.45.39.72.57.11.09.32.19.5.27.19.05.39.1.58.1.77 0 1.36-.33 1.88-.66.51-.36.96-.75 1.36-1.2.39-.42.74-.87 1.06-1.34.66.58 1.44 1.09 2.36 1.27.47.1.98.11 1.46 0 .48-.12.94-.36 1.31-.7.19-.17.34-.37.48-.57.15-.2.26-.48.28-.73.03-.54-.1-1.03-.29-1.47z" fill="#c5796d" stroke-width="none" opacity="1" stroke="none"></path></g></g><g id="svga-group-hair-front"><path id="SvgjsPath8407" d="M185.9 135.4c.4-.1.6-.7.1-.8-12.8-3.5-1.1-13.1-3.6-20.4-1.6-4.7-6.6-5.4-9.4-8.9-3.6-4.6 3.6-10.8 4.5-15.6.8-4.3-2-8.2-3.5-12.1.3-1.8.6-3.7 1-5.5.5-2.4.9-4.8.8-7.2.1-.4.2-.9.3-1.4 1-5.6-1.1-11.5-5.6-15.1-2.3-1.9-4.8-2.9-7.5-3.3 0-1-.1-1.9-.4-2.8-.6-1.9-1.7-3.5-3.2-4.8-1.5-1.3-3.3-2.2-5.2-2.7-3.3-.8-7.4.8-10.3-1.5-3.6-2.9-4-8.1-8.2-10.8-4.2-2.6-8.6-2.7-13-.8 0 0-.1 0-.1.1-1.6-1-3.3-1.6-5.1-1.9-1.8-.2-3.4.2-5.1.2-1.2 0-2.2-.2-3.2-.5-.3-.2-.6-.3-.9-.5-.9-.4-1.9-.7-2.9-.9-.7-.2-1.3-.3-1.9-.4-4.2-.6-8.6.4-12.2 3.7-2.8 2.5-4.7 5.3-8.7 5.6C73.8 24.8 61 29.5 62 38.6v.4c-4-1.9-10.2-1.9-13.5-1.1-3.4.8-6.7 2.8-8.1 6.2-1.2 2.9-1.1 5.3-4.5 6.7-2 .8-4.3.8-6.3 1.8-2.5 1.2-5.1 3.6-5 6.7.1 1.1.6 2.1 1.2 3.1.5.7 1.2 1.2 1.7 1.9 1.3 1.9 2.6 5.6 1.5 7.7-.8 1.5-2.2 2-2.4 3.8-.3 2 1.1 2.8 1.2 4.7.2 2.8-3.4 4.2-2.1 7.1.2.4.7.2.8-.1.8-2.4 3.4-3.7 4-6.1.2-.7 0-1.2 0-1.9-.2-.5-.5-1-.9-1.5-.6-2.2 0-3.9 1.6-5 1-1.9 2.4-2.6 1.9-5.1-.6-2.9-3.5-3.8-4.8-6.2-5.3-8.8 11.4-6.7 14-11.6 1-2 .1-3.3 2-5.4 1.6-1.9 4.2-2.5 6.6-2.8 1.4-.1 3.1-.2 4.7-.1-3.3.4-6.6 1.7-8.8 3.5-1.8 1.5-3.2 3.4-4.2 5.5-.4.3-.9.7-1.3 1.1-2.5 2.5-4.4 5.8-4.4 9.4 0 4.6 3.2 8.1 4.3 12.4.1.5.2.9.2 1.4-.7 2-2 3.6-3.6 5-4.1.8-8.2 3.7-10.8 7.3-3.8 2.5-6.9 5.5-7.6 10.4-.7 4.6 1.1 9.1 4.7 12.1 2.3 1.9 5.5 3.2 7.1 5.8.1.1.1.3.2.4-3.6 5.5-12.3 9.9-13.9 16.5-.8 3.4.1 7.2 2.4 9.9 2.7 3.1 7.3 3.3 4.8 9.4-.5 1.2-1.1 1.5-1.1 2.9 0 .5.7.7.9.2 1.9-3.5 6.8-5.1 3.8-9.8-1.7-2.6-5.2-3.2-6.7-6.1-1.4-2.6-.8-5.1.6-7.3.6 6 6.3 11.7 12.2 10 2.3 2.6 3.8 5.2 1.2 9-1.4 2.1-4.5 4.8-3.4 7.7 1.1 3 4.6 3.6 7.5 2.7 1.6 2.4 4 4.4 6.6 5.5.7 1.8 1.7 3.4 3.4 4.4 2.1 1.3 6 1.9 7.1-1 .3-.7-.4-1.4-1.1-1.4-2 0-3.4.7-5.1-.9l-.3-.3c2.4 0 4.6-1 6.4-3.5 1.6-2.2 2.3-4.9 2.1-7.5.8 1.2 1.7 2.2 2.8 2.8 1.7 1 4.1 1.6 6 .6 1.5-.8 2.7-2.9 1.7-4.5-.4-.6-1.4-.7-1.8 0-.3.5-.6 1-1 1.3-1.4-.2-1.6-3.3-1.3-4.5.3-1.2 2.2-2.2 3.1-2.9 1.2-.9 2.4-1.3 3.3-2.6 1.7-2.2 1.8-5.2.8-7.7-1-2.7-3.1-4.6-5.4-6.1-2.6-1.7-5-2.7-6-5.9-1-3.3.6-6.2 1.2-9.3v-.3c1-1 1.7-2.1 2-3.5 1.3-7.3-10-9.2-8.2-16 .2-.8.6-1.5 1-2.1.3-.4.6-.7 1-1.1 1-.9 2.3-1.7 3.4-2.5 1.8-1.1 3.9-1.9 5.9-3 3.3-1.7 5.6-3.8 5.8-7.7.2-4.5-2.5-8.1-4.5-11.8-4.4-8.2.7-14.6 7.8-18.1.6-.1 1.2-.3 1.8-.6.2.1.5 0 .7-.1.2-.2.4-.3.6-.5h.2c7.6-4.3 14.9-10.1 24.2-8.2 5.3 1.1 10.9 4.6 9.7 10.8-.7 3.5-2.2 6.8-2 10.4.3 5.8 5.1 8.9 10.4 9.5 2.7.3 5.4-.1 8.1-.4 6.8 1.7 13 5.9 11.7 14.1-1.1 6.7-7.6 11-9.5 17.5-.6 2.2-.7 4.5-.1 6.7 0 1.1.2 2.2.6 3.3 1 2.4 2.9 4 4.6 5.8 4.6 5-.3 8.3-4 11.6-2 1.8-3.8 4.3-4.3 6.9-.4.4-.9.9-1.2 1.4-2.1 3.3-2 9.9 2.9 10.5.7.1 1-1 .4-1.3-2.2-1-2.3-3.6-1.5-5.8.3.5.6 1 1 1.5.9 1 1.9 1.6 3 2.3 2.4 1.7 2.5 4 2 6.7-.1.3-.1.6-.2.9 0 .1 0 .1-.1.2-.6 2.3-1.4 4.3-.6 6.8.4 1.1 1 2 1.8 2.7-1.9-.1-4-1.6-4.9-3.6-.4-.7-1.4-.2-1.3.5 1.2 5.4 7 7.1 10.6 4.1h.2c2.3 0 4.2.1 6.1.8 2.7 1.9 5.7 3.1 9.2 2.6 3 .1 6.2-.6 8.8-1.6 5.1-1.5 9.9-6.8 9.7-11.8 3.9 3.2 10.8 2.6 11.1-4.2.1-1.1-1.4-1.4-1.9-.5-1.5 3.2-3.8 2.9-7-1.1.4-1.1.8-2.1 1.3-3.1.4-1 .9-2 1.1-3.1.4-2.5-.2-4.6-2-6.4-.6-.6-1.3-1.1-2-1.6-.1-.2-.3-.4-.4-.6-.7-1.6-1.5-3.2-2.2-4.8.7-1.1 1.3-2.4 1.7-3.7 1.5-2.6 2.3-5.5 2.7-8.3.1-1 .2-2.2.1-3.3.2.3.4.5.6.8 1.4 2.7-.4 6-1 8.7-1.3 6.3 2.5 12.2 8.8 11.3zM32.3 114c-2.1-2.5-5.4-3.9-7.9-6.5-3.7-3.7-4-9.6-1-13.8-.8 1.7-1 3.5-.5 5.5 1.3 4.6 5.5 6.9 8.5 10.2.4.5.8.9 1.1 1.3.3 1.2.2 2.3-.2 3.3zm34.6-56.8c-3.1 4.2-3.4 8.6-1.3 13.3 1.4 3.1 3.7 5.8 4.5 9.2.9 3.7-1 5.9-3.5 7.5.3-.6.6-1.3.8-2 1.1-3.7.7-7.4-1.4-10.4 0-.1-.1-.1-.1-.2-2.4-5.2-3.7-9.5-1.3-15 .2-.4.1-.9-.2-1.2 1.2-1.3 2.5-2.5 4.2-3.4.2-.1.3-.2.5-.3-.9.8-1.6 1.6-2.2 2.5zm48.8 9c-1.3-3.2-.3-5.9.8-9 1.3-3.7 2.7-7 .7-10.7-5-9.1-15.2-9.5-24.3-6.2.7-.5 1.3-1 2-1.5 3.5-1.4 7.2-2.2 11-2 3.7.2 7.4 1.2 10.5 3.3 2 2.9 3.8 5.7 3.9 9.4.1 4-1.9 7.6-2.2 11.5-.4 4.4 1.3 8.1 4.8 10.1-3.3-.3-6-1.7-7.2-4.9z" fill="#9f826a" stroke-width="none" opacity="1" stroke="none"></path><path id="SvgjsPath8408" d="M148.4 121.5c-1-.8-2.1-1.3-3.2-1.8s-2.3-.8-3.4-1.1c-1.1-.3-2.2-.6-3.2-1-2-.8-3.8-1.8-4.7-3.6-.9-1.7-.9-3.9-.3-5.9.6-2.1 1.7-3.9 3-5.8 2.6-3.6 5.8-6.9 8.3-10.9.6-1 1.2-2.1 1.6-3.1.4-1.1.8-2.2 1-3.4.5-2.3.5-4.8-.2-7.1-.4-1.2-.9-2.2-1.6-3.2l-.6-.7-.6-.6c-.4-.4-.9-.8-1.4-1.1-2.1-1.2-4.4-1.7-6.8-1.7-4.7-.1-9.1 1.6-13.6 1.5-2.2-.1-4.5-.6-6.2-1.9-.8-.7-1.5-1.5-1.9-2.5-.3-1-.4-2.1-.2-3.1.3-2.1 1.5-4 2.8-5.9 1.2-1.9 2.7-3.8 3.3-6.2.3-1.2.4-2.4.4-3.7-.1-1.2-.4-2.4-.8-3.6-.8-2.3-2.3-4.3-4.1-5.9-1.8-1.6-4.1-2.7-6.4-3.3-2.3-.6-4.8-.6-7.1-.3-4.7.6-9.1 2.7-12.8 5.4-3.7 2.7-6.9 6-10 9.4l.1.1c3.4-3.1 6.7-6.2 10.5-8.7 1.9-1.2 3.8-2.3 5.9-3.2 2.1-.8 4.2-1.3 6.4-1.6 4.3-.5 8.9.5 12.1 3.4.8.7 1.5 1.5 2.1 2.4.6.9 1.1 1.8 1.5 2.8.8 2 1 4.2.5 6.2s-1.7 3.9-2.9 5.9c-1.2 1.9-2.4 4.1-2.7 6.5-.2 1.2 0 2.5.4 3.6.5 1.1 1.3 2.1 2.3 2.8 2 1.4 4.4 1.8 6.7 1.9 4.7 0 9.1-1.6 13.6-1.4 2.2.1 4.5.5 6.3 1.7.4.3.9.6 1.3 1l.6.6.5.6c.6.9 1.1 1.9 1.3 2.9.5 2.1.4 4.3-.1 6.5-.5 2.1-1.4 4.1-2.7 6-2.4 3.7-5.7 6.9-8.5 10.7-1.4 1.9-2.6 3.9-3.4 6.3-.4 1.2-.6 2.4-.6 3.7 0 1.3.3 2.6.9 3.8.6 1.2 1.5 2.2 2.6 2.9 1 .7 2.2 1.3 3.3 1.7 2.2.8 4.5 1.3 6.5 2.1s3.9 2 4.8 3.7c.4.8.6 1.8.5 2.7s-.6 1.8-1.2 2.6c-1.3 1.6-3.2 2.7-5.2 3.9-1 .6-2 1.2-2.9 2-.9.8-1.8 1.8-2.3 2.9-.6 1.1-.9 2.4-.8 3.7.1.7.3 1.3.6 1.9.4.6.8 1.1 1.3 1.5 2 1.6 4.4 2 6.1 3.2.9.6 1.5 1.4 1.7 2.4s0 2.1-.4 3.1c-.9 2-2.9 3.4-4.8 4.6l.1.2c1.9-1.1 4-2.4 5.2-4.5.6-1.1.9-2.3.7-3.5-.2-1.3-1-2.4-1.9-3.1-1.9-1.5-4.3-2-5.8-3.4-.8-.7-1.2-1.5-1.3-2.5-.1-.9.2-2 .7-2.9 1-1.8 2.8-3 4.8-4.1 1-.6 2-1.1 3-1.8s2-1.5 2.8-2.4c.8-1 1.5-2.1 1.7-3.5.2-1.3 0-2.8-.6-4-.7-1.1-1.6-2.1-2.6-2.8zM67.1 56.3c1.1-.8 2.4-1.5 3.7-2.1 2.6-1.2 5.5-1.8 8.3-2.6v-.2c-2.9.4-5.8.8-8.7 1.8-2.8 1-5.6 2.6-7.4 5.2-.9 1.2-1.6 2.7-2 4.2-.3 1.5-.3 3.2.2 4.8.5 1.5 1.4 2.9 2.3 4.1.9 1.2 2 2.2 3 3.3 1 1 2 2.1 2.8 3.2.8 1.1 1.4 2.4 1.5 3.7.2 1.3-.2 2.7-.9 3.9-.7 1.2-1.8 2.2-2.9 3.1-2.3 1.7-5.1 2.8-7.5 4.6-1.2.9-2.3 1.9-3.1 3.2-.8 1.3-1.4 2.8-1.2 4.4.1 1.6 1 3.2 2.1 4.2 1.1 1.1 2.5 1.9 3.7 2.6 1.3.8 2.5 1.5 3.5 2.4.3.2.4.5.7.7.2.2.4.5.5.8.2.5.4 1.1.4 1.7 0 1.2-.6 2.3-1.5 3.2-.9.9-2.1 1.7-3.3 2.3-.6.3-1.2.6-1.9.9-.7.3-1.4.7-2 1.1-1.3.8-2.6 1.8-3.6 3.2-.5.7-.9 1.5-1.1 2.4-.2.9-.1 1.8.1 2.7.5 1.8 1.8 2.9 2.9 3.9 1.1 1 2.1 1.9 2.7 3 .6 1.1.7 2.4.5 3.7-.4 2.7-2.1 5.3-2.3 8.5 0 .8.1 1.6.3 2.3.3.8.8 1.4 1.4 1.9.6.5 1.3.9 2.1 1 .8.2 1.6 0 2.2-.5l-.1-.2c-1.3.7-2.8.1-3.7-.9-.5-.5-.8-1.1-1-1.7-.2-.6-.2-1.3-.1-2 .3-2.8 2.1-5.2 2.8-8.2.4-1.5.4-3.3-.4-4.9-.8-1.5-2-2.6-3-3.6s-1.9-2-2.2-3.1c-.3-1.1 0-2.2.7-3.2s1.8-1.9 3-2.6c.6-.4 1.2-.7 1.8-1 .6-.3 1.3-.7 2-1 1.3-.7 2.6-1.6 3.8-2.8.6-.6 1.1-1.2 1.5-2 .4-.8.6-1.7.6-2.6 0-.9-.3-1.7-.7-2.5-.2-.4-.5-.7-.7-1.1l-.9-.9c-1.2-1-2.6-1.7-3.9-2.4s-2.5-1.4-3.6-2.2c-1-.9-1.8-2-1.9-3.3-.2-1.3.2-2.7.9-3.9.7-1.2 1.7-2.3 2.8-3.1 2.3-1.8 5-2.8 7.5-4.6 1.2-.9 2.3-1.9 3.2-3.2.9-1.2 1.4-2.8 1.4-4.4 0-1.6-.7-3.1-1.5-4.4-.8-1.3-1.8-2.4-2.8-3.6-2-2.2-4-4.2-4.9-6.8-.9-2.5-.2-5.3 1.3-7.6.6-.9 1.5-1.9 2.6-2.8zM53 147.5c-.5-1.4-.5-2.9-.2-4.4.2-1.5.5-3.1.4-4.7-.1-.8-.3-1.7-.7-2.5-.4-.8-1.1-1.5-1.8-1.9-1.4-1-2.8-1.5-3.8-2.4-1-.8-1.3-2-1-3.3.3-1.2 1-2.4 2-3.3 1-.9 2.3-1.7 3.6-2.5.7-.4 1.3-.9 2-1.4.7-.5 1.3-1.1 1.8-1.8 1.1-1.3 2-3 1.8-5-.1-1-.4-1.8-.9-2.6s-1.2-1.4-1.9-1.9c-1.4-1-2.8-1.6-4.2-2.3-1.3-.7-2.6-1.4-3.5-2.4-.9-1-1.3-2.3-1.3-3.7 0-1.4.4-2.8 1.1-4.1.7-1.3 1.6-2.4 2.7-3.4 2.2-2.1 4.8-3.8 7-6.1 1.1-1.2 2-2.4 2.6-3.9.7-1.4 1-3.1.7-4.7-.2-1.6-1.1-3.1-2.1-4.2-1-1-2.1-2-3.3-3-1.2-1-2.3-2-3.1-3.2-.8-1.2-1.4-2.5-1.7-3.8-.5-2.8.3-5.7 1.8-8.2 1.5-2.5 3.7-4.5 6.3-5.8 2.7-1.3 5.6-2 8.6-2.2 3-.3 6.1-.2 9.1 0v-.2c-3-.5-6.1-.9-9.2-.8-3.1 0-6.3.6-9.2 1.9-1.5.6-2.9 1.5-4.1 2.5-1.2 1.1-2.3 2.3-3.1 3.7-1.7 2.8-2.6 6.1-1.9 9.4.3 1.6 1.2 3.2 2.2 4.4 1.1 1.2 2.3 2.2 3.5 3.2 1.2.9 2.4 1.8 3.5 2.9 1 1.1 1.8 2.3 2.1 3.8.2 1.4 0 3-.6 4.3-.6 1.3-1.5 2.6-2.6 3.7-2.1 2.2-4.8 3.7-7.2 5.7-2.4 2-4.5 4.8-4.7 8.3-.1 1.7.4 3.5 1.6 4.8 1.1 1.3 2.6 2.2 4 2.9 1.4.7 2.8 1.4 3.9 2.2.5.4 1 .9 1.3 1.4.3.5.5 1.1.5 1.7.1 1.2-.5 2.4-1.4 3.5-.8 1.1-2 1.9-3.3 2.7-1.3.8-2.6 1.7-3.9 2.8-1.2 1.2-2.2 2.7-2.5 4.5-.2.9-.1 1.8.2 2.8s.9 1.7 1.6 2.2c1.4 1.1 2.9 1.5 4.1 2.3 1.2.7 1.8 1.9 2 3.3.2 1.4 0 2.9-.1 4.5-.2 1.6 0 3.2.6 4.7.3.7.8 1.4 1.4 2 .6.5 1.5.8 2.2.7v-.2c-1.4-.2-2.5-1.5-2.9-2.9zm111.2-22c.7-1.1 1.2-2.3 1.6-3.6.3-1.3.4-2.6.2-4s-.9-2.7-2-3.7-2.4-1.5-3.7-1.8c-1.3-.3-2.6-.4-3.8-.6-1.2-.1-2.4-.3-3.4-.6s-1.9-.9-2.4-1.7c-1.1-1.6-.8-4.1.2-5.9 1.1-1.9 2.8-3.6 4.5-5.4s3.3-3.7 4.8-5.7c3-4 5.5-8.6 6.2-13.7.7-5.1-.5-10.5-3.9-14.5-.8-1-1.8-1.9-2.9-2.6-1.1-.7-2.3-1.3-3.6-1.6-2.5-.7-5.1-.6-7.6-.1-5 .9-9.3 3.5-13.9 5-2.3.7-4.7 1.4-7.1 1-1.2-.2-2.2-.9-2.9-1.8-.7-.9-1-2.1-1.2-3.3-.2-2.4.7-4.7 1.6-7 .9-2.3 1.5-4.8 1.7-7.3.4-5-.7-10.2-3.6-14.5-3-4.2-7.8-7-12.8-7.9-5-1-10.2-.5-14.9 1.4-4.7 1.9-8.8 5-12.1 8.7-3.4 3.7-6.1 7.9-8.2 12.3l.2.1c2.5-4.2 5.3-8.2 8.8-11.7 3.4-3.5 7.5-6.2 11.9-8 4.5-1.7 9.4-2.1 14-1.1 2.3.5 4.6 1.3 6.6 2.5s3.8 2.8 5.2 4.7c2.8 3.8 4.1 8.6 3.9 13.4-.1 2.4-.6 4.8-1.4 7.1-.8 2.3-1.7 4.7-1.4 7.3.1 1.3.5 2.5 1.3 3.6s2 1.8 3.2 2c2.6.5 5.1-.2 7.4-.9 4.7-1.5 9.1-3.8 13.9-4.5 2.4-.4 4.8-.3 7 .3 1.1.3 2.1.9 3.1 1.5.9.7 1.8 1.5 2.5 2.4 2.9 3.7 3.9 8.7 3.2 13.2-.7 4.7-3.1 8.9-6.1 12.7-1.5 1.9-3.1 3.7-4.7 5.5-1.6 1.8-3.5 3.5-4.9 5.9-.6 1.2-1.1 2.6-1.1 4-.1 1.4.2 2.9 1.1 4.1.9 1.2 2.2 2.1 3.5 2.5 1.3.4 2.6.5 3.8.6 2.4.2 4.9.3 6.4 1.8.8.7 1.3 1.6 1.5 2.7.2 1.1.1 2.2-.1 3.3-.3 1.1-.7 2.2-1.3 3.2-.6 1-1.4 1.9-2.1 2.8-1.6 1.8-3.5 3.4-5.1 5.4-.8 1-1.5 2-2 3.2-.5 1.2-.8 2.4-.8 3.7s.2 2.6.7 3.7c.6 1.1 1.5 2.1 2.7 2.6l.1-.2c-1.1-.6-1.9-1.5-2.3-2.6-.4-1.1-.6-2.3-.5-3.5.1-1.2.4-2.4.9-3.4s1.2-2 2-2.9c1.6-1.8 3.5-3.3 5.3-5.1 1.3-.9 2.1-1.9 2.8-3zM67.4 40.7c-.5-2.8-.7-5.6-.2-8.2.1-.6.3-1.3.6-1.9.2-.6.5-1.2.8-1.8.7-1.1 1.6-2.1 2.6-2.9 1-.8 2.2-1.4 3.5-1.7.7-.1 1.3-.1 2-.1.7.1 1.3.3 2 .5 1.3.4 2.7 1 4.2 1 .8 0 1.5-.3 2.2-.7.2-.1.3-.2.5-.3l.4-.4c.3-.2.5-.6.8-.9.9-1.2 1.5-2.6 2-3.9.6-1.3 1.1-2.5 1.9-3.4.4-.4.8-.7 1.3-.9.5-.2 1-.2 1.6 0 1.1.3 2.2 1 3.4 1.8.6.4 1.2.8 2 1.1.7.3 1.5.6 2.4.6.9.1 1.7-.1 2.5-.4.7-.3 1.4-.6 2-1l1.8-1.1c.6-.3 1.2-.6 1.8-.8 1.2-.3 2.7-.4 3.7.7l.2-.1c-.4-.6-1-1.1-1.8-1.4-.7-.2-1.5-.3-2.3-.2s-1.5.3-2.2.6c-.7.3-1.3.6-1.9.9-1.2.6-2.5 1-3.6.9-1.1-.1-2.2-.8-3.3-1.6-1.2-.7-2.4-1.7-4.1-2.1-1.7-.4-3.7.4-4.8 1.7-2 2.6-2.2 5.6-3.5 7.9-.6 1.1-1.7 2.1-3 2.2-1.3.1-2.7-.4-4-.9-1.3-.5-2.8-1-4.3-.9-1.5.1-3 .6-4.3 1.4-1.3.8-2.4 2-3.1 3.3-.8 1.4-1.2 2.8-1.4 4.3-.3 3 .3 5.9 1.5 8.5l.1.2zM22.1 81.4c-1.4-.9-2.3-2.4-2.6-3.9-.3-1.5.4-3.1 1.4-4.2.5-.5 1.1-1 1.8-1.2.7-.3 1.5-.4 2.3-.5 1.6-.2 4-.8 5-3.1.2-.6.3-1.2.2-1.8-.1-.6-.4-1.2-.7-1.6-.6-.8-1.4-1.4-1.9-1.9s-.9-1.1-1.2-1.8c-.3-.7-.4-1.4-.5-2.2-.1-1.5.4-3 1.2-4.3.4-.6 1-1.2 1.6-1.6.6-.4 1.4-.7 2.2-1 1.6-.5 3.3-.8 4.9-1.2 1.7-.4 3.4-1.2 4.5-2.8 1-1.5 1.2-3.4 1.9-4.8s1.9-2.5 3.3-3.3c1.4-.8 2.9-1.4 4.4-1.7s3.2-.3 4.8-.1c3.3.4 6.5 1.5 9.8 2.5l.1-.2c-3-1.6-6.1-3.2-9.6-3.8-3.4-.7-7.4-.2-10.4 1.9-1.5 1.1-2.7 2.5-3.4 4.2-.7 1.7-.6 3.5-1.5 4.9-.8 1.4-2.4 2.1-4.1 2.4-1.6.4-3.3.4-5.1.8-.9.2-1.7.5-2.6.9-.9.4-1.6 1.1-2.2 1.8-1.2 1.5-1.8 3.4-1.8 5.3 0 1 .1 1.9.5 2.8.3.9.9 1.8 1.5 2.5s1.3 1.2 1.7 1.7c.4.5.4.9.3 1.4-.2.5-.7 1-1.3 1.3-.6.3-1.3.5-2.1.7s-1.6.5-2.5.9c-.9.4-1.7 1.1-2.3 1.8-1.2 1.5-1.7 3.6-1.1 5.4.5 1.8 1.8 3.3 3.5 3.9v-.1zM51.5 171c-.9.2-1.8-.1-2.6-.6-1.5-1.1-2.2-3-3.1-4.7-.5-.9-1.1-1.8-1.9-2.5-.8-.7-1.9-1.1-2.9-1.4-2.1-.4-4.1-.3-5.9-.5-.9-.1-1.8-.3-2.4-.8-.6-.4-1.1-1.1-1.3-1.9-.3-1.5.4-3.4 1.3-4.9 1-1.6 2.2-3.3 2.7-5.5.3-1.1.3-2.3-.1-3.5-.4-1.1-1.1-2.1-1.9-2.9-1.7-1.5-3.6-2.2-5.3-3.1-1.7-.8-3.4-1.7-4.4-3-1.1-1.3-1.4-3-.9-4.7.4-1.7 1.4-3.3 2.6-4.6 2.6-2.7 6.3-4.4 9.1-7.5 1.3-1.6 2.5-3.4 2.8-5.5.2-1.1.1-2.2-.2-3.2-.3-1-.9-2-1.6-2.8-2.8-3.1-7-4.1-9.4-7-1.2-1.4-1.9-3.3-1.8-5.2 0-1.9.6-3.8 1.6-5.4 1-1.6 2.4-3 3.9-4.2 1.5-1.2 3.2-2.2 4.9-3.1 1.7-1 3.4-2 4.9-3.5.7-.7 1.4-1.6 1.8-2.7.4-1 .6-2.2.5-3.3-.3-2.2-1.5-4-2.4-5.7-1-1.7-1.5-3.3-1.6-5.1-.1-3.6 1.7-7.2 4.3-9.9 2.6-2.7 6.2-4.3 9.9-5.3s7.7-1.4 11.5-1.8V45c-3.9.1-7.9.2-11.8 1-2 .4-3.9 1-5.7 1.8-1.8.8-3.6 1.9-5.1 3.4-1.5 1.4-2.7 3.1-3.6 5-.9 1.9-1.4 4-1.4 6.1 0 2.1.8 4.2 1.9 6 1 1.7 2.1 3.3 2.3 5 .3 1.7-.4 3.4-1.6 4.8-1.2 1.4-2.8 2.5-4.5 3.5-3.3 2.1-6.7 4.4-8.8 7.9-1 1.7-1.6 3.7-1.7 5.7-.1 2 .6 4.1 1.9 5.7 2.7 3.1 6.8 4.4 9.1 7.2.6.7 1 1.5 1.2 2.4.2.8.2 1.8 0 2.6-.4 1.8-1.4 3.4-2.6 4.7-2.5 2.7-6.2 4.3-9.2 7.2-1.5 1.5-2.7 3.3-3.2 5.4-.3 1.1-.4 2.2-.2 3.3.2 1.1.7 2.2 1.4 3.1.7.9 1.6 1.6 2.5 2.2.9.6 1.8 1 2.7 1.5 1.8.9 3.5 1.6 4.9 2.8 1.3 1.1 1.9 2.6 1.5 4.2-.4 1.6-1.4 3.2-2.4 5-.5.9-.9 1.9-1.2 2.9-.3 1-.4 2.2-.1 3.4.3 1.2 1 2.2 2 2.8 1 .6 2.1.9 3.2 1 2.1.2 4-.1 5.8.2.9.1 1.7.5 2.4 1s1.2 1.3 1.8 2.1c1 1.6 1.9 3.6 3.6 4.8.4.3.9.5 1.5.6.5.1 1.1.1 1.6-.1 1-.2 2-1 2.1-2.1h-.2c-.4 1.2-1.3 1.8-2.2 1.9zm132.9-92c-.4-.8-1.1-1.4-1.7-1.9-1.3-1-2.6-1.7-3.7-2.4-1.1-.8-1.8-1.7-2.1-2.9-.3-1.2-.2-2.5 0-3.9.4-2.8 1.6-5.6 1.6-8.8 0-3.2-1.2-6.2-2.9-8.7-1.8-2.5-4.2-4.4-7-5.7-2.8-1.2-5.7-1.8-8.7-1.8-3-.1-5.9.3-8.8 1.1-2.8.8-5.6 1.7-8.4 1.9-1.4.1-2.8-.1-4-.5-1.2-.5-2.3-1.3-3.1-2.4-1.7-2.1-2.5-4.9-3.1-7.7-.6-2.8-1.1-5.8-2.6-8.6-3-5.6-10.3-7.9-15.8-5.5l.1.2c5.6-1.7 11.9 1.1 14.3 6 1.2 2.5 1.6 5.3 2.2 8.2.6 2.9 1.5 5.9 3.5 8.4 1 1.2 2.4 2.2 3.9 2.6 1.5.5 3.1.6 4.6.3 3-.4 5.7-1.6 8.5-2.4 2.8-.8 5.7-1.2 8.6-1 2.9.1 5.7.9 8.2 2.2s4.6 3.3 6.2 5.6c1.5 2.3 2.4 5 2.4 7.8 0 2.7-1.2 5.4-1.8 8.4-.3 1.5-.5 3.1 0 4.8.2.8.6 1.6 1.1 2.3.5.7 1.2 1.3 1.8 1.7 1.3.9 2.6 1.5 3.6 2.3 1 .8 1.6 1.8 1.7 3 .1 1.2-.3 2.5-1 3.6-.6 1.1-1.6 2.2-2.6 3.2s-2.1 2.1-2.9 3.4c-.8 1.3-1.5 2.8-1.6 4.3 0 .8.1 1.6.4 2.3.3.8.9 1.4 1.5 1.8.6.5 1.4.8 2.1.8.8.1 1.6-.2 2.2-.7l-.1-.2c-1.2.8-2.8.4-3.8-.5-.5-.4-.9-1-1.1-1.6-.2-.6-.2-1.3-.2-2 .2-1.3.8-2.6 1.6-3.7s1.9-2.1 2.9-3.1c1.1-1 2.1-2.1 3-3.4.8-1.3 1.4-2.9 1.4-4.7.2-.4 0-1.3-.4-2.1zM138 25.7c1.1 1.5 2 3.5 3.5 4.9.8.7 1.7 1.3 2.8 1.5 1.1.2 2.2-.1 3.1-.7.9-.6 1.7-1.3 2.4-2s1.4-1.3 2.1-1.7c.7-.4 1.5-.6 2.1-.4.6.2 1.1.7 1.6 1.5.6.7 1 1.8 2.1 2.5.5.4 1.2.7 1.9.7s1.3-.2 1.9-.5c1.1-.6 1.8-1.6 2.1-2.7.3-1 .4-2.1.4-3.1h-.2c-.3 1-.6 1.9-1.1 2.7-.5.8-1.1 1.4-1.8 1.6-.8.3-1.4.1-1.9-.3-.5-.5-.9-1.3-1.5-2.2-.3-.5-.6-.9-1.1-1.4s-1.1-.8-1.7-1c-1.4-.3-2.7.2-3.6.8-.9.6-1.7 1.4-2.3 2.2-.6.8-1.2 1.5-1.9 2.1-.7.6-1.5 1-2.4 1-.9 0-1.8-.6-2.4-1.3-1.3-1.4-1.6-3.4-2.6-5.3-2.1-3.9-7.4-5.6-11.1-3.8l.1.2c3.8-.1 7.5 1.7 9.5 4.7zm39.2 109.1c-.8-.9-1.6-1.7-2.2-2.5-.3-.4-.6-.9-.8-1.4l-.2-.7c-.1-.2-.1-.5-.1-.8-.1-1 0-2.2.3-3.2.6-2.2 1.7-4.3 2.5-6.5.4-1.1.7-2.3.8-3.5.1-1.2-.1-2.4-.6-3.6-.9-2.3-2.8-4-4.4-5.6-1.6-1.6-3.3-3.3-4-5.3-.7-2-.5-4.2.3-6.2.7-2.1 1.8-4.1 2.9-6.2 1.1-2.1 1.9-4.4 2.2-6.9.1-1.2.1-2.5-.3-3.6-.3-1.2-1-2.3-1.9-3l-.1.1c.7.9 1.2 1.9 1.4 3.1.2 1.1.1 2.2-.1 3.3-.4 2.2-1.4 4.3-2.5 6.3-1.2 2-2.4 4.1-3.2 6.4-.4 1.2-.7 2.4-.8 3.7-.1 1.3.1 2.6.6 3.8 2.2 4.8 7.4 6.3 9.3 10.5.4 1 .6 2.2.5 3.3-.1 1.1-.4 2.2-.9 3.3-.8 2.2-2.1 4.2-2.9 6.4-.4 1.1-.7 2.4-.6 3.7 0 1.3.5 2.6 1.2 3.7 1.4 2.1 3.3 3.6 4 5.5.4.9.4 1.9 0 2.6-.4.8-1.2 1.4-2.1 1.9-1 .6-2.1 1.2-3 2.4-.9 1.1-1.3 2.7-1.1 4.1.3 2.6 1.5 4.7 1.8 6.8.3 2.1-.1 4.3-1.1 6.2-1.9 3.9-6.8 6.2-11.4 5.3l-.1.2c2.2.8 4.8.7 7.1-.1 2.3-.8 4.4-2.4 5.7-4.6 1.3-2.1 1.9-4.7 1.7-7.2-.1-1.3-.5-2.5-.9-3.6-.3-1.1-.7-2.2-.7-3.2-.1-1 .1-1.8.6-2.5s1.5-1.3 2.5-1.9c1-.6 2.2-1.4 2.8-2.9.7-1.4.4-3-.1-4.2-.5-1.5-1.3-2.5-2.1-3.4z" fill="#906e51" stroke-width="none" opacity="1" stroke="none"></path></g><g id="svga-group-glasses-single-move" transform="matrix(1,0,0,1,0,-2)"><g id="svga-group-glasses-single" transform="matrix(1.1500005000000004,0,0,1.1500005000000004,-14.985051895502139,-14.30337485671238)"><path id="SvgjsPath7853" d="m92.45 100.66-22.21.64c-.67.02-1.24-.5-1.28-1.16l-.45-8.42c-.04-.69.49-1.25 1.18-1.26l23.84-.39c.65-.01 1.17.52 1.17 1.19l.01 7.06c0 1.25-1.01 2.31-2.26 2.34z" fill="#ffffff" stroke-width="none" opacity="0.45"></path><path id="SvgjsPath7854" d="m109.38 99.84 20.34-.58c.58-.02 1.09-.53 1.14-1.15l.57-7.87c.05-.64-.4-1.15-.99-1.14l-21.85.35c-.63.01-1.15.55-1.17 1.21l-.17 6.97c-.03 1.26.93 2.24 2.13 2.21z" fill="#ffffff" stroke-width="none" opacity="0.45"></path><path id="SvgjsPath7855" d="M95.92 95.55c0 1.23-.32 2.24-.71 2.25-.39.01-.71-.98-.71-2.22 0-1.24.32-2.26.71-2.27.39-.01.71.99.71 2.24z" fill="#939393" stroke-width="none" opacity="1"></path><path id="SvgjsPath7856" d="M106.23 95.31c-.03 1.22.26 2.2.64 2.19.38-.01.71-1 .75-2.22.03-1.22-.26-2.22-.64-2.21-.38.01-.72 1.01-.75 2.24z" fill="#939393" stroke-width="none" opacity="1"></path><path id="SvgjsPath7857" d="m133.11 89.05-2.48.04-22.04.36c-.76.01-1.4.67-1.42 1.47l-.03 1.39c-1.95-.03-4.03-.54-5.99-.51-2.08.04-4.02.64-6.09.74v-1.41c0-.81-.64-1.46-1.43-1.45l-24.07.39-2.87.05.11 1.91 1.35-.03.45 8.25c.04.8.74 1.44 1.56 1.41l22.5-.65c1.33-.04 2.41-1.16 2.41-2.51v-4.69c2.07-.1 4.01-.7 6.08-.75 1.95-.04 4.03.47 5.98.49l-.13 4.64c-.03 1.33.99 2.38 2.27 2.34l20.6-.6c.71-.02 1.33-.65 1.38-1.4l.56-7.69 1.16-.02.14-1.77zM92.65 100.3l-22.53.64a.75.75 0 0 1-.77-.7l-.45-8.63c-.02-.41.3-.76.71-.76l24.03-.41c.39-.01.71.32.71.72l.01 7.37c-.01.95-.77 1.74-1.71 1.77zm37.96-1.75c-.03.37-.33.68-.69.69l-20.62.58c-.91.03-1.63-.72-1.61-1.66l.18-7.26c.01-.4.33-.72.7-.73l22.01-.37c.36-.01.63.3.6.69l-.57 8.06z" fill="#4a3114" stroke-width="none" opacity="1" stroke="none"></path></g></g></g></g></g><rect id="svga-credit-rect" width="200" height="15" x="0" y="185" fill="#ecf0f1" opacity="0.5" style="display: none;"></rect><text id="svga-credit-text" font-family="Avenir Next, Roboto, Helvetica, Arial, sans-serif" font-size="10px" text-anchor="start" font-weight="400" size="10px" anchor="start" weight="400" fill="#333333" x="33.43669891357422" y="182.60824704170227" style="display: none;"><tspan id="SvgjsTspan3371" dy="13" x="33.43669891357422">Created on AvatarMaker.com</tspan></text></g><defs id="SvgjsDefs3323"><linearGradient id="SvgjsLinearGradient4168" x1="100.1029" y1="84.5527" x2="100.1029" y2="114.9561" gradientUnits="userSpaceOnUse" class="svga-on-canvas-nose-gradient-single-0-null"><stop id="SvgjsStop4169" stop-opacity="0" stop-color="#ebc3bd" offset="0" ></stop><stop id="SvgjsStop4170" stop-opacity="1" stop-color="#d4958a" offset="1" ></stop></linearGradient></defs></svg>